  0
SECTION
  2
HEADER
  9
$ACADVER
  1
AC1032
  9
$ACADMAINTVER
 90
        4
  9
$DWGCODEPAGE
  3
ANSI_1252
  9
$REQUIREDVERSIONS
160
                 0
  9
$INSBASE
 10
0.0
 20
0.0
 30
0.0
  9
$EXTMIN
 10
-130.0006900889343
 20
-380.0214722219266
 30
0.0
  9
$EXTMAX
 10
70070.01130991107
 20
21369.99852777808
 30
0.0
  9
$LIMMIN
 10
-130.0006900889343
 20
-380.0214722219266
  9
$LIMMAX
 10
70070.01130991107
 20
21369.99852777808
  9
$ORTHOMODE
 70
     0
  9
$REGENMODE
 70
     1
  9
$FILLMODE
 70
     1
  9
$QTEXTMODE
 70
     0
  9
$MIRRTEXT
 70
     1
  9
$LTSCALE
 40
1.0
  9
$ATTMODE
 70
     1
  9
$TEXTSIZE
 40
0.2
  9
$TRACEWID
 40
0.05
  9
$TEXTSTYLE
  7
Standard
  9
$CLAYER
  8
0
  9
$CELTYPE
  6
ByLayer
  9
$CECOLOR
 62
   256
  9
$CELTSCALE
 40
1.0
  9
$DISPSILH
 70
     0
  9
$DIMSCALE
 40
1.0
  9
$DIMASZ
 40
0.18
  9
$DIMEXO
 40
0.0625
  9
$DIMDLI
 40
0.38
  9
$DIMRND
 40
0.0
  9
$DIMDLE
 40
0.0
  9
$DIMEXE
 40
0.18
  9
$DIMTP
 40
0.0
  9
$DIMTM
 40
0.0
  9
$DIMTXT
 40
0.18
  9
$DIMCEN
 40
0.09
  9
$DIMTSZ
 40
0.0
  9
$DIMTOL
 70
     0
  9
$DIMLIM
 70
     0
  9
$DIMTIH
 70
     1
  9
$DIMTOH
 70
     1
  9
$DIMSE1
 70
     0
  9
$DIMSE2
 70
     0
  9
$DIMTAD
 70
     0
  9
$DIMZIN
 70
     0
  9
$DIMBLK
  1

  9
$DIMASO
 70
     1
  9
$DIMSHO
 70
     1
  9
$DIMPOST
  1

  9
$DIMAPOST
  1

  9
$DIMALT
 70
     0
  9
$DIMALTD
 70
     2
  9
$DIMALTF
 40
25.4
  9
$DIMLFAC
 40
1.0
  9
$DIMTOFL
 70
     0
  9
$DIMTVP
 40
0.0
  9
$DIMTIX
 70
     0
  9
$DIMSOXD
 70
     0
  9
$DIMSAH
 70
     0
  9
$DIMBLK1
  1

  9
$DIMBLK2
  1

  9
$DIMSTYLE
  2
Standard
  9
$DIMCLRD
 70
     0
  9
$DIMCLRE
 70
     0
  9
$DIMCLRT
 70
     0
  9
$DIMTFAC
 40
1.0
  9
$DIMGAP
 40
0.09
  9
$DIMJUST
 70
     0
  9
$DIMSD1
 70
     0
  9
$DIMSD2
 70
     0
  9
$DIMTOLJ
 70
     1
  9
$DIMTZIN
 70
     0
  9
$DIMALTZ
 70
     0
  9
$DIMALTTZ
 70
     0
  9
$DIMUPT
 70
     0
  9
$DIMDEC
 70
     4
  9
$DIMTDEC
 70
     4
  9
$DIMALTU
 70
     2
  9
$DIMALTTD
 70
     2
  9
$DIMTXSTY
  7
Standard
  9
$DIMAUNIT
 70
     0
  9
$DIMADEC
 70
     0
  9
$DIMALTRND
 40
0.0
  9
$DIMAZIN
 70
     0
  9
$DIMDSEP
 70
    46
  9
$DIMATFIT
 70
     3
  9
$DIMFRAC
 70
     0
  9
$DIMLDRBLK
  1

  9
$DIMLUNIT
 70
     2
  9
$DIMLWD
 70
    -2
  9
$DIMLWE
 70
    -2
  9
$DIMTMOVE
 70
     0
  9
$DIMFXL
 40
1.0
  9
$DIMFXLON
 70
     0
  9
$DIMJOGANG
 40
0.7853981633974483
  9
$DIMTFILL
 70
     0
  9
$DIMTFILLCLR
 70
     0
  9
$DIMARCSYM
 70
     0
  9
$DIMLTYPE
  6

  9
$DIMLTEX1
  6

  9
$DIMLTEX2
  6

  9
$DIMTXTDIRECTION
 70
     0
  9
$LUNITS
 70
     2
  9
$LUPREC
 70
     4
  9
$SKETCHINC
 40
0.1
  9
$FILLETRAD
 40
0.5
  9
$AUNITS
 70
     0
  9
$AUPREC
 70
     0
  9
$MENU
  1
.
  9
$ELEVATION
 40
0.0
  9
$PELEVATION
 40
0.0
  9
$THICKNESS
 40
0.0
  9
$LIMCHECK
 70
     0
  9
$CHAMFERA
 40
0.0
  9
$CHAMFERB
 40
0.0
  9
$CHAMFERC
 40
0.0
  9
$CHAMFERD
 40
0.0
  9
$SKPOLY
 70
     0
  9
$TDCREATE
 40
2458995.831160556
  9
$TDUCREATE
 40
2458995.789493889
  9
$TDUPDATE
 40
2458995.831161053
  9
$TDUUPDATE
 40
2458995.789494386
  9
$TDINDWG
 40
0.0000000116
  9
$TDUSRTIMER
 40
0.0000000116
  9
$USRTIMER
 70
     1
  9
$ANGBASE
 50
0.0
  9
$ANGDIR
 70
     0
  9
$PDMODE
 70
     0
  9
$PDSIZE
 40
0.0
  9
$PLINEWID
 40
0.0
  9
$SPLFRAME
 70
     0
  9
$SPLINETYPE
 70
     6
  9
$SPLINESEGS
 70
     8
  9
$HANDSEED
  5
157
  9
$SURFTAB1
 70
     6
  9
$SURFTAB2
 70
     6
  9
$SURFTYPE
 70
     6
  9
$SURFU
 70
     6
  9
$SURFV
 70
     6
  9
$UCSBASE
  2

  9
$UCSNAME
  2

  9
$UCSORG
 10
0.0
 20
0.0
 30
0.0
  9
$UCSXDIR
 10
1.0
 20
0.0
 30
0.0
  9
$UCSYDIR
 10
0.0
 20
1.0
 30
0.0
  9
$UCSORTHOREF
  2

  9
$UCSORTHOVIEW
 70
     0
  9
$UCSORGTOP
 10
0.0
 20
0.0
 30
0.0
  9
$UCSORGBOTTOM
 10
0.0
 20
0.0
 30
0.0
  9
$UCSORGLEFT
 10
0.0
 20
0.0
 30
0.0
  9
$UCSORGRIGHT
 10
0.0
 20
0.0
 30
0.0
  9
$UCSORGFRONT
 10
0.0
 20
0.0
 30
0.0
  9
$UCSORGBACK
 10
0.0
 20
0.0
 30
0.0
  9
$PUCSBASE
  2

  9
$PUCSNAME
  2

  9
$PUCSORG
 10
0.0
 20
0.0
 30
0.0
  9
$PUCSXDIR
 10
1.0
 20
0.0
 30
0.0
  9
$PUCSYDIR
 10
0.0
 20
1.0
 30
0.0
  9
$PUCSORTHOREF
  2

  9
$PUCSORTHOVIEW
 70
     0
  9
$PUCSORGTOP
 10
0.0
 20
0.0
 30
0.0
  9
$PUCSORGBOTTOM
 10
0.0
 20
0.0
 30
0.0
  9
$PUCSORGLEFT
 10
0.0
 20
0.0
 30
0.0
  9
$PUCSORGRIGHT
 10
0.0
 20
0.0
 30
0.0
  9
$PUCSORGFRONT
 10
0.0
 20
0.0
 30
0.0
  9
$PUCSORGBACK
 10
0.0
 20
0.0
 30
0.0
  9
$USERI1
 70
     0
  9
$USERI2
 70
     0
  9
$USERI3
 70
     0
  9
$USERI4
 70
     0
  9
$USERI5
 70
     0
  9
$USERR1
 40
0.0
  9
$USERR2
 40
0.0
  9
$USERR3
 40
0.0
  9
$USERR4
 40
0.0
  9
$USERR5
 40
0.0
  9
$WORLDVIEW
 70
     1
  9
$SHADEDGE
 70
     3
  9
$SHADEDIF
 70
    70
  9
$TILEMODE
 70
     1
  9
$MAXACTVP
 70
    64
  9
$PINSBASE
 10
0.0
 20
0.0
 30
0.0
  9
$PLIMCHECK
 70
     0
  9
$PEXTMIN
 10
1.000000000000000E+20
 20
1.000000000000000E+20
 30
1.000000000000000E+20
  9
$PEXTMAX
 10
-1.000000000000000E+20
 20
-1.000000000000000E+20
 30
-1.000000000000000E+20
  9
$PLIMMIN
 10
0.0
 20
0.0
  9
$PLIMMAX
 10
12.0
 20
9.0
  9
$UNITMODE
 70
     0
  9
$VISRETAIN
 70
     1
  9
$PLINEGEN
 70
     0
  9
$PSLTSCALE
 70
     1
  9
$TREEDEPTH
 70
  3020
  9
$CMLSTYLE
  2
Standard
  9
$CMLJUST
 70
     0
  9
$CMLSCALE
 40
1.0
  9
$PROXYGRAPHICS
 70
     1
  9
$MEASUREMENT
 70
     0
  9
$CELWEIGHT
370
    -1
  9
$ENDCAPS
280
     0
  9
$JOINSTYLE
280
     0
  9
$LWDISPLAY
290
     1
  9
$INSUNITS
 70
     4
  9
$HYPERLINKBASE
  1

  9
$STYLESHEET
  1

  9
$XEDIT
290
     1
  9
$CEPSNTYPE
380
     0
  9
$PSTYLEMODE
290
     1
  9
$FINGERPRINTGUID
  2
{0a1b56a1-2f52-f74f-b856-a1eaa7bbec76}
  9
$VERSIONGUID
  2
{FAEB1C32-E019-11D5-929B-00C0DF256EC4}
  9
$EXTNAMES
290
     1
  9
$PSVPSCALE
 40
0.0
  9
$OLESTARTUP
290
     0
  9
$SORTENTS
280
   127
  9
$INDEXCTL
280
     0
  9
$HIDETEXT
280
     1
  9
$XCLIPFRAME
280
     0
  9
$HALOGAP
280
     0
  9
$OBSCOLOR
 70
   257
  9
$OBSLTYPE
280
     0
  9
$INTERSECTIONDISPLAY
280
     0
  9
$INTERSECTIONCOLOR
 70
   257
  9
$DIMASSOC
280
     2
  9
$PROJECTNAME
  1

  9
$CAMERADISPLAY
290
     0
  9
$LENSLENGTH
 40
50.0
  9
$CAMERAHEIGHT
 40
0.0
  9
$STEPSPERSEC
 40
2.0
  9
$STEPSIZE
 40
6.0
  9
$3DDWFPREC
 40
2.0
  9
$PSOLWIDTH
 40
0.25
  9
$PSOLHEIGHT
 40
4.0
  9
$LOFTANG1
 40
1.570796326794897
  9
$LOFTANG2
 40
1.570796326794897
  9
$LOFTMAG1
 40
0.0
  9
$LOFTMAG2
 40
0.0
  9
$LOFTPARAM
 70
     7
  9
$LOFTNORMALS
280
     1
  9
$LATITUDE
 40
37.795
  9
$LONGITUDE
 40
-122.394
  9
$NORTHDIRECTION
 40
0.0
  9
$TIMEZONE
 70
 -8000
  9
$LIGHTGLYPHDISPLAY
280
     1
  9
$TILEMODELIGHTSYNCH
280
     1
  9
$CMATERIAL
347
44
  9
$SOLIDHIST
280
     0
  9
$SHOWHIST
280
     1
  9
$DWFFRAME
280
     2
  9
$DGNFRAME
280
     2
  9
$REALWORLDSCALE
290
     1
  9
$INTERFERECOLOR
 62
   256
  9
$CSHADOW
280
     0
  9
$SHADOWPLANELOCATION
 40
0.0
  0
ENDSEC
  0
SECTION
  2
CLASSES
  0
CLASS
  1
ACDBDICTIONARYWDFLT
  2
AcDbDictionaryWithDefault
  3
ObjectDBX Classes
 90
        0
 91
        3
280
     0
281
     0
  0
CLASS
  1
VISUALSTYLE
  2
AcDbVisualStyle
  3
ObjectDBX Classes
 90
     4095
 91
        3
280
     0
281
     0
  0
CLASS
  1
MATERIAL
  2
AcDbMaterial
  3
ObjectDBX Classes
 90
     1153
 91
        3
280
     0
281
     0
  0
CLASS
  1
SCALE
  2
AcDbScale
  3
ObjectDBX Classes
 90
     1153
 91
        3
280
     0
281
     0
  0
CLASS
  1
TABLESTYLE
  2
AcDbTableStyle
  3
ObjectDBX Classes
 90
     4095
 91
        3
280
     0
281
     0
  0
CLASS
  1
MLEADERSTYLE
  2
AcDbMLeaderStyle
  3
ACDB_MLEADERSTYLE_CLASS
 90
     4095
 91
        3
280
     0
281
     0
  0
CLASS
  1
SUN
  2
AcDbSun
  3
SCENEOE
 90
     1153
 91
        3
280
     0
281
     0
  0
CLASS
  1
DICTIONARYVAR
  2
AcDbDictionaryVar
  3
ObjectDBX Classes
 90
        0
 91
        3
280
     0
281
     0
  0
CLASS
  1
CELLSTYLEMAP
  2
AcDbCellStyleMap
  3
ObjectDBX Classes
 90
     1152
 91
        3
280
     0
281
     0
  0
ENDSEC
  0
SECTION
  2
TABLES
  0
TABLE
  2
VPORT
  5
8
330
0
100
AcDbSymbolTable
 70
     1
  0
VPORT
  5
29
330
8
100
AcDbSymbolTableRecord
100
AcDbViewportTableRecord
  2
*Active
 70
     0
 10
0.0
 20
0.0
 11
1.0
 21
1.0
 12
34970.00530991107
 22
10494.98852777808
 13
0.0
 23
0.0
 14
0.5
 24
0.5
 15
0.5
 25
0.5
 16
0.0
 26
0.0
 36
1.0
 17
0.0
 27
0.0
 37
0.0
 40
22185.0204
 41
3.227583790727548
 42
50.0
 43
0.0
 44
0.0
 50
0.0
 51
0.0
 71
     0
 72
   100
 73
     1
 74
     3
 75
     0
 76
     0
 77
     0
 78
     0
281
     0
 65
     1
110
0.0
120
0.0
130
0.0
111
1.0
121
0.0
131
0.0
112
0.0
122
1.0
132
0.0
 79
     0
146
0.0
348
2F
 60
     3
 61
     5
292
     1
282
     1
141
0.0
142
0.0
 63
   250
361
6D
  0
ENDTAB
  0
TABLE
  2
LTYPE
  5
5
330
0
100
AcDbSymbolTable
 70
     1
  0
LTYPE
  5
14
330
5
100
AcDbSymbolTableRecord
100
AcDbLinetypeTableRecord
  2
ByBlock
 70
     0
  3

 72
    65
 73
     0
 40
0.0
  0
LTYPE
  5
15
330
5
100
AcDbSymbolTableRecord
100
AcDbLinetypeTableRecord
  2
ByLayer
 70
     0
  3

 72
    65
 73
     0
 40
0.0
  0
LTYPE
  5
16
330
5
100
AcDbSymbolTableRecord
100
AcDbLinetypeTableRecord
  2
Continuous
 70
     0
  3
Solid line
 72
    65
 73
     0
 40
0.0
  0
ENDTAB
  0
TABLE
  2
LAYER
  5
2
330
0
100
AcDbSymbolTable
 70
     7
  0
LAYER
  5
10
330
2
100
AcDbSymbolTableRecord
100
AcDbLayerTableRecord
  2
0
 70
     0
 62
     7
  6
Continuous
370
    -3
390
F
347
46
348
0
  0
LAYER
  5
6F
330
2
100
AcDbSymbolTableRecord
100
AcDbLayerTableRecord
  2
Walls
 70
     0
 62
     7
  6
Continuous
370
    -3
390
F
347
46
348
0
  0
LAYER
  5
E3
330
2
100
AcDbSymbolTableRecord
100
AcDbLayerTableRecord
  2
Offices
 70
     0
 62
     7
  6
Continuous
370
    -3
390
F
347
46
348
0
  0
LAYER
  5
10E
330
2
100
AcDbSymbolTableRecord
100
AcDbLayerTableRecord
  2
Meeting rooms
 70
     0
 62
     7
  6
Continuous
370
    -3
390
F
347
46
348
0
  0
LAYER
  5
136
330
2
100
AcDbSymbolTableRecord
100
AcDbLayerTableRecord
  2
Supermarket
 70
     0
 62
     7
  6
Continuous
370
    -3
390
F
347
46
348
0
  0
LAYER
  5
138
330
2
100
AcDbSymbolTableRecord
100
AcDbLayerTableRecord
  2
Coffee
 70
     0
 62
     7
  6
Continuous
370
    -3
390
F
347
46
348
0
  0
LAYER
  5
147
330
2
100
AcDbSymbolTableRecord
100
AcDbLayerTableRecord
  2
Entrance
 70
     0
 62
     7
  6
Continuous
370
    -3
390
F
347
46
348
0
  0
ENDTAB
  0
TABLE
  2
STYLE
  5
3
330
0
100
AcDbSymbolTable
 70
     1
  0
STYLE
  5
11
330
3
100
AcDbSymbolTableRecord
100
AcDbTextStyleTableRecord
  2
Standard
 70
     0
 40
0.0
 41
1.0
 50
0.0
 71
     0
 42
0.2
  3
txt
  4

  0
ENDTAB
  0
TABLE
  2
VIEW
  5
6
330
0
100
AcDbSymbolTable
 70
     0
  0
ENDTAB
  0
TABLE
  2
UCS
  5
7
330
0
100
AcDbSymbolTable
 70
     0
  0
ENDTAB
  0
TABLE
  2
APPID
  5
9
330
0
100
AcDbSymbolTable
 70
     1
  0
APPID
  5
12
330
9
100
AcDbSymbolTableRecord
100
AcDbRegAppTableRecord
  2
ACAD
 70
     0
  0
ENDTAB
  0
TABLE
  2
DIMSTYLE
  5
A
330
0
100
AcDbSymbolTable
 70
     1
100
AcDbDimStyleTable
  0
DIMSTYLE
105
27
330
A
100
AcDbSymbolTableRecord
100
AcDbDimStyleTableRecord
  2
Standard
 70
     0
178
     0
340
11
  0
ENDTAB
  0
TABLE
  2
BLOCK_RECORD
  5
1
330
0
100
AcDbSymbolTable
 70
     2
  0
BLOCK_RECORD
  5
1F
330
1
100
AcDbSymbolTableRecord
100
AcDbBlockTableRecord
  2
*Model_Space
340
22
 70
     0
280
     1
281
     0
  0
BLOCK_RECORD
  5
1B
330
1
100
AcDbSymbolTableRecord
100
AcDbBlockTableRecord
  2
*Paper_Space
340
1E
 70
     0
280
     1
281
     0
  0
BLOCK_RECORD
  5
23
330
1
100
AcDbSymbolTableRecord
100
AcDbBlockTableRecord
  2
*Paper_Space0
340
26
 70
     0
280
     1
281
     0
  0
BLOCK_RECORD
  5
148
330
1
100
AcDbSymbolTableRecord
100
AcDbBlockTableRecord
  2
Sans Titre _STORY_MARKER
340
0
 70
     0
280
     1
281
     0
  0
ENDTAB
  0
ENDSEC
  0
SECTION
  2
BLOCKS
  0
BLOCK
  5
20
330
1F
100
AcDbEntity
  8
0
100
AcDbBlockBegin
  2
*Model_Space
 70
     0
 10
0.0
 20
0.0
 30
0.0
  3
*Model_Space
  1

  0
ENDBLK
  5
21
330
1F
100
AcDbEntity
  8
0
100
AcDbBlockEnd
  0
BLOCK
  5
1C
330
1B
100
AcDbEntity
 67
     1
  8
0
100
AcDbBlockBegin
  2
*Paper_Space
 70
     0
 10
0.0
 20
0.0
 30
0.0
  3
*Paper_Space
  1

  0
ENDBLK
  5
1D
330
1B
100
AcDbEntity
 67
     1
  8
0
100
AcDbBlockEnd
  0
BLOCK
  5
24
330
23
100
AcDbEntity
  8
0
100
AcDbBlockBegin
  2
*Paper_Space0
 70
     0
 10
0.0
 20
0.0
 30
0.0
  3
*Paper_Space0
  1

  0
ENDBLK
  5
25
330
23
100
AcDbEntity
  8
0
100
AcDbBlockEnd
  0
BLOCK
  5
149
330
148
100
AcDbEntity
  8
0
100
AcDbBlockBegin
  2
Sans Titre _STORY_MARKER
 70
     0
 10
0.0
 20
0.0
 30
0.0
  3
Sans Titre _STORY_MARKER
  1

  0
ENDBLK
  5
14A
330
148
100
AcDbEntity
  8
0
100
AcDbBlockEnd
  0
ENDSEC
  0
SECTION
  2
ENTITIES
  0
LWPOLYLINE
  5
6E
330
1F
100
AcDbEntity
  8
Walls
  6
Continuous
 62
    99
370
    18
100
AcDbPolyline
 90
        4
 70
     1
 43
0.0
 10
-129.986578977821
 20
18541.1476111114
 10
-129.986578977821
 20
12028.72872222252
 10
-79.99796786670998
 20
12028.72872222252
 10
-79.99796786670998
 20
18520.08677777809
  0
LWPOLYLINE
  5
70
330
1F
100
AcDbEntity
  8
Walls
  6
Continuous
 62
    99
370
    18
100
AcDbPolyline
 90
        6
 70
     1
 43
0.0
 10
4594.15236546662
 20
-130.0113888885903
 10
-79.97680120004702
 20
-130.0113888885903
 10
-79.97680120004702
 20
8961.07194444474
 10
-130.0006900889343
 20
8961.07194444474
 10
-130.0006900889343
 20
-179.9999999996942
 10
4594.15236546662
 20
-179.9999999996942
  0
LWPOLYLINE
  5
71
330
1F
100
AcDbEntity
  8
Walls
  6
Continuous
 62
    99
370
    18
100
AcDbPolyline
 90
        6
 70
     1
 43
0.0
 10
4620.025087688845
 20
17449.98125000029
 10
3115.286754355509
 20
17449.98125000029
 10
3115.286754355509
 20
15584.9862500003
 10
2815.284532133291
 20
15584.9862500003
 10
2815.284532133291
 20
17749.98347222254
 10
4620.025087688845
 20
17749.98347222254
  0
LWPOLYLINE
  5
72
330
1F
100
AcDbEntity
  8
Walls
  6
Continuous
 62
    99
370
    18
100
AcDbPolyline
 90
        6
 70
     1
 43
0.0
 10
641.4043654666202
 20
21119.97433333363
 10
-79.9909123111533
 20
21119.97433333363
 10
-79.9909123111533
 20
20058.81877777807
 10
-129.9795234222643
 20
20085.45350000031
 10
-129.9795234222643
 20
21169.96294444476
 10
555.044365466621
 20
21169.96294444476
  0
LWPOLYLINE
  5
73
330
1F
100
AcDbEntity
  8
Walls
  6
Continuous
 62
    99
370
    18
100
AcDbPolyline
 90
        4
 70
     1
 43
0.0
 10
11767.70855991106
 20
-180.0458611108127
 10
24594.99078213329
 20
-180.0458611108127
 10
24594.99078213329
 20
-130.0572499997088
 10
11767.70855991106
 20
-130.0572499997088
  0
LWPOLYLINE
  5
74
330
1F
100
AcDbEntity
  8
Walls
  6
Continuous
 62
    99
370
    18
100
AcDbPolyline
 90
       16
 70
     1
 43
0.0
 10
5669.831782133287
 20
2969.473000000306
 10
5669.831782133287
 20
2919.413833333635
 10
5869.821504355514
 20
2919.413833333635
 10
5869.821504355514
 20
7769.931888889176
 10
4745.024837688845
 20
7769.931888889176
 10
4745.024837688845
 20
7794.943833333633
 10
4595.023726577736
 20
7794.943833333633
 10
4595.023726577736
 20
2894.472444444745
 10
4745.024837688845
 20
2894.472444444745
 10
4745.024837688845
 20
2919.413833333635
 10
5219.82844879996
 20
2919.413833333635
 10
5219.82844879996
 20
2969.473000000306
 10
4745.024837688845
 20
2969.473000000306
 10
4745.024837688845
 20
7719.943277778071
 10
5819.832893244403
 20
7719.943277778071
 10
5819.832893244403
 20
2969.473000000306
  0
LWPOLYLINE
  5
75
330
1F
100
AcDbEntity
  8
Walls
  6
Continuous
 62
    99
370
    18
100
AcDbPolyline
 90
        4
 70
     1
 43
0.0
 10
16946.02772657773
 20
8619.995805555845
 10
16996.01633768884
 20
8619.995805555845
 10
16996.01633768884
 20
6095.024138889186
 10
16946.02772657773
 20
6095.024138889186
  0
LWPOLYLINE
  5
76
330
1F
100
AcDbEntity
  8
Walls
  6
Continuous
 62
    99
370
    18
100
AcDbPolyline
 90
       30
 70
     1
 43
0.0
 10
14745.02247657774
 20
8619.978166666953
 10
14745.02247657774
 20
5594.979277778066
 10
16946.03830991107
 20
5594.979277778066
 10
16946.03830991107
 20
5645.003166666953
 10
16996.02692102218
 20
5645.003166666953
 10
16996.02692102218
 20
5495.002055555859
 10
16946.03830991107
 20
5495.002055555859
 10
16946.03830991107
 20
5544.990666666962
 10
14745.02247657774
 20
5544.990666666962
 10
14745.02247657774
 20
2845.005944444751
 10
16946.03830991107
 20
2845.005944444751
 10
16946.03830991107
 20
5044.928166666978
 10
16996.02692102218
 20
5044.928166666978
 10
16996.02692102218
 20
2744.993444444731
 10
16946.03830991107
 20
2744.993444444731
 10
16946.03830991107
 20
2794.982055555863
 10
14745.02247657774
 20
2794.982055555863
 10
14745.02247657774
 20
-130.0043333330336
 10
14595.02136546662
 20
-130.0043333330336
 10
14595.02136546662
 20
2119.412611111415
 10
14545.03275435551
 20
2119.412611111415
 10
14545.03275435551
 20
2169.401222222518
 10
14595.02136546662
 20
2169.401222222518
 10
14595.02136546662
 20
8519.965666666962
 10
12067.72136546662
 20
8519.965666666962
 10
12067.72136546662
 20
7844.466777778081
 10
12017.69747657773
 20
7844.466777778081
 10
12017.69747657773
 20
8519.965666666962
 10
3957.254421022178
 20
8494.989000000289
 10
3957.254421022178
 20
8619.978166666953
  0
LWPOLYLINE
  5
77
330
1F
100
AcDbEntity
  8
Walls
  6
Continuous
 62
    99
370
    18
100
AcDbPolyline
 90
        4
 70
     1
 43
0.0
 10
36269.99494879995
 20
-130.0572499997088
 10
36370.00744879994
 20
-130.0572499997088
 10
36370.00744879994
 20
8619.925250000308
 10
36269.99494879995
 20
8619.925250000308
  0
LWPOLYLINE
  5
78
330
1F
100
AcDbEntity
  8
Walls
  6
Continuous
 62
    99
370
    18
100
AcDbPolyline
 90
       35
 70
     0
 43
0.0
 10
49144.66228213329
 20
6420.080638889175
 10
49144.66228213329
 20
3834.925083333644
 10
53316.22422657772
 20
3834.925083333644
 10
53316.22422657772
 20
3784.901194444728
 10
53366.24811546661
 20
3784.901194444728
 10
53366.24811546661
 20
5920.19452777808
 10
53316.22422657772
 20
5920.19452777808
 10
53316.22422657772
 20
3884.878416666965
 10
49144.66228213329
 20
3884.878416666965
 10
49144.66228213329
 20
6420.080638889175
 10
53316.22422657772
 20
6420.080638889175
 10
53316.22422657772
 20
6370.197861111421
 10
53366.24811546661
 20
6370.197861111421
 10
53366.24811546661
 20
8619.967583333619
 10
53266.16505991105
 20
8619.967583333619
 10
53266.16505991105
 20
8519.955083333627
 10
53316.22422657772
 20
8519.955083333627
 10
53316.22422657772
 20
6470.069250000307
 10
51958.98228213329
 20
6470.069250000307
 10
51959.05283768885
 20
8519.955083333627
 10
52816.16172657774
 20
8519.955083333627
 10
52816.16172657774
 20
8619.967583333619
 10
51858.96978213331
 20
8619.967583333619
 10
51858.96978213331
 20
8519.955083333627
 10
51909.02894879995
 20
8519.955083333627
 10
51909.02894879995
 20
6470.069250000307
 10
50551.82228213328
 20
6470.069250000307
 10
50551.89283768884
 20
8519.955083333627
 10
51409.0370043555
 20
8519.955083333627
 10
51409.0370043555
 20
8619.967583333619
 10
50451.84505991107
 20
8619.967583333619
 10
50451.84505991107
 20
8519.955083333627
 10
50501.90422657774
 20
8519.955083333627
 10
50501.90422657774
 20
6470.069250000307
 10
49144.59172657774
 20
6470.069250000307
  0
LWPOLYLINE
  5
79
330
1F
100
AcDbEntity
  8
Walls
  6
Continuous
 62
    99
370
    18
100
AcDbPolyline
 90
       18
 70
     0
 43
0.0
 10
49144.55997657773
 20
1520.498250000287
 10
53441.25219879995
 20
1520.357138889182
 10
53441.25219879995
 20
1569.957694444753
 10
53366.2516432444
 20
1569.957694444753
 10
53366.2516432444
 20
3334.940194444755
 10
53316.2277543555
 20
3334.940194444755
 10
53316.2277543555
 20
1569.957694444753
 10
49144.55997657773
 20
1569.957694444753
 10
49144.66580991105
 20
1520.462972222532
 10
49144.66580991105
 20
-130.007861110812
 10
49044.68858768885
 20
-130.007861110812
 10
49044.65330991106
 20
8519.9268611114
 10
48994.62942102217
 20
8519.9268611114
 10
48994.62942102217
 20
8619.939361111421
 10
50001.77469879996
 20
8619.939361111421
 10
50001.77469879996
 20
8519.9268611114
 10
49144.66580991105
 20
8519.9268611114
 10
49144.66580991105
 20
6470.111583333619
  0
LWPOLYLINE
  5
7A
330
1F
100
AcDbEntity
  8
Walls
  6
Continuous
 62
    99
370
    18
100
AcDbPolyline
 90
       15
 70
     1
 43
0.0
 10
54596.0102821333
 20
12369.98125000031
 10
54596.0102821333
 20
16426.81986111143
 10
54746.01139324439
 20
16426.81986111143
 10
54746.01139324439
 20
16351.50180555587
 10
56102.65361546664
 20
16351.50180555587
 10
56102.65361546664
 20
16302.11291666697
 10
54746.39944879997
 20
16302.11291666697
 10
54746.11722657774
 20
13535.38263888919
 10
54796.00000435553
 20
13535.38263888919
 10
54796.00000435553
 20
13485.39402777809
 10
54746.08194879996
 20
13485.39402777809
 10
54746.01139324439
 20
12469.95847222252
 10
54796.00000435553
 20
12469.95847222252
 10
54796.00000435553
 20
12366.41819444475
 10
54796.00000435553
 20
12369.98125000031
  0
LWPOLYLINE
  5
7B
330
1F
100
AcDbEntity
  8
Walls
  6
Continuous
 62
    99
370
    18
100
AcDbPolyline
 90
        8
 70
     1
 43
0.0
 10
61449.92511546662
 20
16876.82319444474
 10
61449.92511546662
 20
16952.10597222251
 10
56802.67761546661
 20
16952.10597222251
 10
56802.67761546661
 20
17001.49486111141
 10
64419.99650435551
 20
17001.49486111141
 10
64419.99650435551
 20
16951.50625000031
 10
61499.84317102217
 20
16952.10597222251
 10
61499.84317102217
 20
16876.82319444474
  0
LWPOLYLINE
  5
7C
330
1F
100
AcDbEntity
  8
Walls
  6
Continuous
 62
    99
370
    18
100
AcDbPolyline
 90
        4
 70
     1
 43
0.0
 10
1732.909393244398
 20
2119.465527778061
 10
-79.98032897782537
 20
2119.465527778061
 10
-79.98032897782537
 20
2169.454138889193
 10
1732.909393244398
 20
2169.454138889193
  0
LWPOLYLINE
  5
7D
330
1F
100
AcDbEntity
  8
Walls
  6
Continuous
 62
    99
370
    18
100
AcDbPolyline
 90
        8
 70
     1
 43
0.0
 10
2182.912726577733
 20
2119.462000000283
 10
2232.901337688844
 20
2119.462000000283
 10
2232.901337688844
 20
-130.0607777774871
 10
2282.67828213329
 20
-130.0607777774871
 10
2282.889948799955
 20
2119.462000000283
 10
2332.913837688842
 20
2119.462000000283
 10
2332.913837688842
 20
2169.450611111415
 10
2182.912726577733
 20
2169.450611111415
  0
LWPOLYLINE
  5
7E
330
1F
100
AcDbEntity
  8
Walls
  6
Continuous
 62
    99
370
    18
100
AcDbPolyline
 90
        4
 70
     1
 43
0.0
 10
2826.485226577731
 20
8619.995805555845
 10
826.4821710221781
 20
8619.995805555845
 10
826.4821710221781
 20
8495.00663888918
 10
2826.485226577731
 20
8495.00663888918
  0
LWPOLYLINE
  5
7F
330
1F
100
AcDbEntity
  8
Walls
  6
Continuous
 62
    99
370
    18
100
AcDbPolyline
 90
       12
 70
     1
 43
0.0
 10
4795.016976577735
 20
2169.450611111415
 10
4745.028365466624
 20
2169.450611111415
 10
4745.028365466624
 20
2194.462555555845
 10
4595.027254355507
 20
2194.462555555845
 10
4595.027254355507
 20
2169.450611111415
 10
2782.913643244399
 20
2169.450611111415
 10
2782.913643244399
 20
2119.462000000283
 10
4595.027254355507
 20
2119.462000000283
 10
4595.027254355507
 20
720.6628333336198
 10
4745.028365466624
 20
720.6628333336198
 10
4745.028365466624
 20
2119.462000000283
 10
4795.016976577735
 20
2119.462000000283
  0
LWPOLYLINE
  5
80
330
1F
100
AcDbEntity
  8
Walls
  6
Continuous
 62
    99
370
    18
100
AcDbPolyline
 90
        8
 70
     1
 43
0.0
 10
5245.016782133291
 20
2119.462000000283
 10
11217.72094879996
 20
2119.462000000283
 10
11217.72094879996
 20
719.9572777780645
 10
11267.70955991107
 20
719.9572777780645
 10
11267.70955991107
 20
2119.462000000283
 10
11317.69817102218
 20
2119.462000000283
 10
11317.69817102218
 20
2169.450611111415
 10
5245.016782133291
 20
2169.450611111415
  0
LWPOLYLINE
  5
81
330
1F
100
AcDbEntity
  8
Walls
  6
Continuous
 62
    99
370
    18
100
AcDbPolyline
 90
        4
 70
     1
 43
0.0
 10
12931.34605991106
 20
-130.0572499997088
 10
12981.33467102218
 20
-130.0572499997088
 10
12981.33467102218
 20
1619.43830555586
 10
12931.34605991106
 20
1619.43830555586
  0
LWPOLYLINE
  5
82
330
1F
100
AcDbEntity
  8
Walls
  6
Continuous
 62
    99
370
    18
100
AcDbPolyline
 90
       12
 70
     1
 43
0.0
 10
14095.01883768885
 20
2169.450611111415
 10
12067.71078213329
 20
2169.450611111415
 10
12067.71078213329
 20
2844.949500000297
 10
12017.72217102218
 20
2844.949500000297
 10
12017.72217102218
 20
2169.450611111415
 10
11767.70855991106
 20
2169.450611111415
 10
11767.70855991106
 20
2119.462000000283
 10
12931.38133768884
 20
2119.462000000283
 10
12931.38133768884
 20
2069.438111111395
 10
12981.36994879996
 20
2069.438111111395
 10
12981.36994879996
 20
2119.462000000283
 10
14095.01883768885
 20
2119.462000000283
  0
LWPOLYLINE
  5
83
330
1F
100
AcDbEntity
  8
Walls
  6
Continuous
 62
    99
370
    18
100
AcDbPolyline
 90
        4
 70
     1
 43
0.0
 10
39645.01994879995
 20
-130.0572499997088
 10
39695.00855991105
 20
-130.0572499997088
 10
39695.00855991105
 20
8619.960527778061
 10
39645.01994879995
 20
8619.960527778061
  0
LWPOLYLINE
  5
84
330
1F
100
AcDbEntity
  8
Walls
  6
Continuous
 62
    99
370
    18
100
AcDbPolyline
 90
        6
 70
     1
 43
0.0
 10
44595.00017102217
 20
8620.013444444738
 10
44595.00017102217
 20
-130.0043333330336
 10
44745.00128213329
 20
-130.0043333330336
 10
44745.00128213329
 20
8519.965666666962
 10
44794.9898932444
 20
8519.965666666962
 10
44794.9898932444
 20
8620.013444444738
  0
LWPOLYLINE
  5
85
330
1F
100
AcDbEntity
  8
Walls
  6
Continuous
 62
    99
370
    18
100
AcDbPolyline
 90
        5
 70
     1
 43
0.0
 10
6682.515671022182
 20
21069.95044444474
 10
6682.515671022182
 20
21119.97433333363
 10
6632.527059911063
 20
21119.97433333363
 10
6632.527059911063
 20
19394.99683333364
 10
6682.515671022182
 20
19394.99683333364
  0
LWPOLYLINE
  5
86
330
1F
100
AcDbEntity
  8
Walls
  6
Continuous
 62
    99
370
    18
100
AcDbPolyline
 90
       17
 70
     1
 43
0.0
 10
2865.283726577738
 20
12469.95847222252
 10
2865.283726577738
 20
13727.4701388892
 10
4620.000393244403
 20
13727.4701388892
 10
4620.000393244403
 20
13677.48152777807
 10
4670.02428213329
 20
13677.48152777807
 10
4670.02428213329
 20
13777.45875000031
 10
4620.035671022179
 20
13777.45875000031
 10
2865.283726577738
 20
13777.45875000031
 10
2865.283726577738
 20
15034.97041666697
 10
4620.035671022179
 20
15034.97041666697
 10
4670.02428213329
 20
15034.97041666697
 10
4670.02428213329
 20
15134.98291666696
 10
4620.035671022179
 20
15134.98291666696
 10
4620.035671022179
 20
15084.99430555585
 10
2815.295115466618
 20
15084.99430555585
 10
2815.295115466618
 20
12369.98125000031
 10
2865.283726577738
 20
12369.98125000031
  0
LWPOLYLINE
  5
87
330
1F
100
AcDbEntity
  8
Walls
  6
Continuous
 62
    99
370
    18
100
AcDbPolyline
 90
        5
 70
     1
 43
0.0
 10
4670.013698799956
 20
13227.46761111142
 10
4620.025087688845
 20
13227.46761111142
 10
4620.025087688845
 20
12469.94788888918
 10
4620.025087688845
 20
12369.97066666697
 10
4670.013698799956
 20
12369.97066666697
  0
LWPOLYLINE
  5
88
330
1F
100
AcDbEntity
  8
Walls
  6
Continuous
 62
    99
370
    18
100
AcDbPolyline
 90
        4
 70
     1
 43
0.0
 10
4620.007448799953
 20
15584.99330555586
 10
4669.996059911064
 20
15584.99330555586
 10
4669.996059911064
 20
21119.97080555585
 10
4620.007448799953
 20
21119.97080555585
  0
LWPOLYLINE
  5
89
330
1F
100
AcDbEntity
  8
Walls
  6
Continuous
 62
    99
370
    18
100
AcDbPolyline
 90
        4
 70
     1
 43
0.0
 10
5270.035782133293
 20
21120.00608333364
 10
5320.024393244403
 20
21120.00608333364
 10
5320.024393244403
 20
19395.02858333364
 10
5270.035782133293
 20
19395.02858333364
  0
LWPOLYLINE
  5
8A
330
1F
100
AcDbEntity
  8
Walls
  6
Continuous
 62
    99
370
    18
100
AcDbPolyline
 90
       58
 70
     1
 43
0.0
 10
8095.023782133289
 20
12369.98125000031
 10
5270.014615466623
 20
12369.98125000031
 10
5270.014615466623
 20
13227.47819444476
 10
5320.003226577733
 20
13227.47819444476
 10
5320.003226577733
 20
12469.95847222252
 10
7995.01128213329
 20
12469.95847222252
 10
7995.01128213329
 20
13844.98041666697
 10
5320.003226577733
 20
13844.98041666697
 10
5320.003226577733
 20
13677.48152777807
 10
5270.014615466623
 20
13677.48152777807
 10
5270.014615466623
 20
14894.95291666697
 10
5320.003226577733
 20
14894.95291666697
 10
5320.003226577733
 20
13894.96902777808
 10
7041.699893244398
 20
13894.96902777808
 10
7041.699893244398
 20
14894.95291666697
 10
7091.688504355509
 20
14894.95291666697
 10
7091.688504355509
 20
13894.96902777808
 10
7995.01128213329
 20
13894.96902777808
 10
7995.01128213329
 20
15394.9801388892
 10
7091.688504355509
 20
15394.9801388892
 10
7091.688504355509
 20
15344.95625000031
 10
7041.699893244398
 20
15344.95625000031
 10
7041.699893244398
 20
15394.9801388892
 10
5320.003226577733
 20
15394.9801388892
 10
5320.003226577733
 20
15344.95625000031
 10
5270.014615466623
 20
15344.95625000031
 10
5270.014615466623
 20
16344.97541666696
 10
5320.003226577733
 20
16344.97541666696
 10
5320.003226577733
 20
15444.9687500003
 10
7995.01128213329
 20
15444.9687500003
 10
7995.01128213329
 20
16844.9673611114
 10
5320.003226577733
 20
16844.9673611114
 10
5320.003226577733
 20
16794.9787500003
 10
5270.014615466623
 20
16794.9787500003
 10
5270.014615466623
 20
18344.97847222252
 10
5320.003226577733
 20
18344.97847222252
 10
5320.003226577733
 20
16894.99125000032
 10
7995.01128213329
 20
16894.99125000032
 10
7995.01128213329
 20
18844.97041666697
 10
5320.003226577733
 20
18844.97041666697
 10
5320.003226577733
 20
18794.98180555586
 10
5270.014615466623
 20
18794.98180555586
 10
5270.014615466623
 20
18944.98291666696
 10
5320.003226577733
 20
18944.98291666696
 10
5320.003226577733
 20
18894.95902777807
 10
6632.512948799957
 20
18894.95902777807
 10
6632.512948799957
 20
18944.98291666696
 10
6682.501559911067
 20
18944.98291666696
 10
6682.501559911067
 20
18894.95902777807
 10
7995.01128213329
 20
18894.95902777807
 10
7995.01128213329
 20
21119.96375000029
 10
8045.035171022178
 20
21119.96375000029
 10
8045.035171022178
 20
15444.9687500003
 10
8095.023782133289
 20
15444.9687500003
 10
8095.023782133289
 20
15394.9801388892
 10
8045.035171022178
 20
15394.9801388892
 10
8045.035171022178
 20
12469.95847222252
 10
8095.023782133289
 20
12469.95847222252
  0
LWPOLYLINE
  5
8B
330
1F
100
AcDbEntity
  8
Walls
  6
Continuous
 62
    99
370
    18
100
AcDbPolyline
 90
       42
 70
     1
 43
0.0
 10
11010.17825435551
 20
18196.5366388892
 10
11010.17825435551
 20
18146.54802777807
 10
11010.17825435551
 20
18096.55941666696
 10
9745.011309911064
 20
18096.55941666696
 10
9745.011309911064
 20
15444.97580555586
 10
16946.0171432444
 20
15444.97580555586
 10
16946.0171432444
 20
16420.7591388892
 10
16996.00575435551
 20
16420.7591388892
 10
16996.00575435551
 20
15444.97580555586
 10
16996.00575435551
 20
12369.98830555586
 10
16946.0171432444
 20
12369.98830555586
 10
16946.0171432444
 20
12469.96552777807
 10
16946.0171432444
 20
15394.98719444475
 10
14003.1096432444
 20
15394.98719444475
 10
14003.1096432444
 20
12469.96552777807
 10
14003.1096432444
 20
12369.98830555586
 10
13953.08575435551
 20
12369.98830555586
 10
13953.08575435551
 20
12469.96552777807
 10
13953.08575435551
 20
15394.98719444475
 10
11010.17825435551
 20
15394.98719444475
 10
11010.17825435551
 20
12469.96552777807
 10
11010.17825435551
 20
12369.98830555586
 10
10245.03853213329
 20
12369.98830555586
 10
10245.03853213329
 20
12469.96552777807
 10
10960.1896432444
 20
12469.96552777807
 10
10960.1896432444
 20
15394.98719444475
 10
9745.011309911064
 20
15394.98719444475
 10
9745.011309911064
 20
12469.96552777807
 10
9795.035198799958
 20
12469.96552777807
 10
9795.035198799958
 20
12369.98830555586
 10
8545.037698799952
 20
12369.98830555586
 10
8545.037698799952
 20
12469.96552777807
 10
9595.010198799955
 20
12469.96552777807
 10
9595.010198799955
 20
15394.98719444475
 10
8545.037698799952
 20
15394.98719444475
 10
8545.037698799952
 20
15444.97580555586
 10
9595.010198799955
 20
15444.97580555586
 10
9595.010198799955
 20
21119.97080555585
 10
9745.011309911064
 20
21119.97080555585
 10
9745.011309911064
 20
18146.54802777807
 10
10960.1896432444
 20
18146.54802777807
 10
10960.1896432444
 20
18196.5366388892
  0
LWPOLYLINE
  5
8C
330
1F
100
AcDbEntity
  8
Walls
  6
Continuous
 62
    99
370
    18
100
AcDbPolyline
 90
        4
 70
     1
 43
0.0
 10
22920.03717102217
 20
-130.0572499997088
 10
22970.02578213329
 20
-130.0572499997088
 10
22970.02578213329
 20
2169.454138889193
 10
22920.03717102217
 20
2169.454138889193
  0
LWPOLYLINE
  5
8D
330
1F
100
AcDbEntity
  8
Walls
  6
Continuous
 62
    99
370
    18
100
AcDbPolyline
 90
        4
 70
     1
 43
0.0
 10
16996.01633768884
 20
2295.007750000309
 10
16946.02772657773
 20
2295.007750000309
 10
16946.02772657773
 20
-129.9866944441419
 10
16996.01633768884
 20
-129.9866944441419
  0
LWPOLYLINE
  5
8E
330
1F
100
AcDbEntity
  8
Walls
  6
Continuous
 62
    99
370
    18
100
AcDbPolyline
 90
        4
 70
     1
 43
0.0
 10
18564.50161546663
 20
-130.0572499997088
 10
18614.49022657773
 20
-130.0572499997088
 10
18614.49022657773
 20
2169.454138889193
 10
18564.50161546663
 20
2169.454138889193
  0
LWPOLYLINE
  5
8F
330
1F
100
AcDbEntity
  8
Walls
  6
Continuous
 62
    99
370
    18
100
AcDbPolyline
 90
        4
 70
     1
 43
0.0
 10
21551.50633768884
 20
-130.0572499997088
 10
21601.49494879996
 20
-130.0572499997088
 10
21601.49494879996
 20
2169.454138889193
 10
21551.50633768884
 20
2169.454138889193
  0
LWPOLYLINE
  5
90
330
1F
100
AcDbEntity
  8
Walls
  6
Continuous
 62
    99
370
    18
100
AcDbPolyline
 90
        6
 70
     1
 43
0.0
 10
12546.98408768884
 20
18721.53347222252
 10
12546.98408768884
 20
18771.55736111141
 10
12546.98408768884
 20
21119.96375000029
 10
12496.99547657773
 20
21119.96375000029
 10
12496.99547657773
 20
18771.55736111141
 10
12496.99547657773
 20
18721.53347222252
  0
LWPOLYLINE
  5
91
330
1F
100
AcDbEntity
  8
Walls
  6
Continuous
 62
    99
370
    18
100
AcDbPolyline
 90
        6
 70
     1
 43
0.0
 10
11010.17825435551
 20
18721.53347222252
 10
11010.17825435551
 20
18646.53291666695
 10
10960.1896432444
 20
18646.53291666695
 10
10960.1896432444
 20
21119.96375000029
 10
11010.17825435551
 20
21119.96375000029
 10
11010.17825435551
 20
18771.55736111141
  0
LWPOLYLINE
  5
92
330
1F
100
AcDbEntity
  8
Walls
  6
Continuous
 62
    99
370
    18
100
AcDbPolyline
 90
        4
 70
     1
 43
0.0
 10
17646.0093932444
 20
8619.995805555845
 10
17596.02078213329
 20
8619.995805555845
 10
17596.02078213329
 20
7407.49858333362
 10
17646.0093932444
 20
7407.49858333362
  0
LWPOLYLINE
  5
93
330
1F
100
AcDbEntity
  8
Walls
  6
Continuous
 62
    99
370
    18
100
AcDbPolyline
 90
       38
 70
     1
 43
0.0
 10
19322.33178213329
 20
2769.448000000295
 10
19322.33178213329
 20
5544.997722222519
 10
22920.03011546662
 20
5544.997722222519
 10
22920.03011546662
 20
2769.448000000295
 10
22970.01872657773
 20
2769.448000000295
 10
22970.01872657773
 20
3986.496055555847
 10
24595.01900435551
 20
3986.496055555847
 10
24595.01900435551
 20
-129.9972777774769
 10
24745.02011546662
 20
-129.9972777774769
 10
24745.02011546662
 20
6420.063000000283
 10
26370.02039324439
 20
6420.063000000283
 10
26370.02039324439
 20
6470.051611111416
 10
24745.02011546662
 20
6470.051611111416
 10
24745.02011546662
 20
8519.97272222252
 10
24795.00872657773
 20
8519.97272222252
 10
24795.00872657773
 20
8619.98522222251
 10
24545.0303932444
 20
8619.98522222251
 10
24545.0303932444
 20
8519.97272222252
 10
24595.01900435551
 20
8519.97272222252
 10
24595.01900435551
 20
4036.519944444734
 10
22970.01872657773
 20
4036.519944444734
 10
22970.01872657773
 20
8519.97272222252
 10
24095.02705991107
 20
8519.97272222252
 10
24095.02705991107
 20
8619.98522222251
 10
22920.03011546662
 20
8619.98522222251
 10
22920.03011546662
 20
5594.986333333622
 10
17646.00233768884
 20
5594.986333333622
 10
17646.00233768884
 20
6707.471055555857
 10
17596.01372657773
 20
6707.471055555857
 10
17596.01372657773
 20
5495.009111111414
 10
17646.00233768884
 20
5495.009111111414
 10
17646.00233768884
 20
5544.997722222519
 10
19272.34317102218
 20
5544.997722222519
 10
19272.34317102218
 20
2819.471888889183
 10
17646.00233768884
 20
2819.471888889183
 10
17646.00233768884
 20
5044.97050000029
 10
17596.01372657773
 20
5044.97050000029
 10
17596.01372657773
 20
2769.448000000295
  0
LWPOLYLINE
  5
94
330
1F
100
AcDbEntity
  8
Walls
  6
Continuous
 62
    99
370
    18
100
AcDbPolyline
 90
        4
 70
     1
 43
0.0
 10
26369.99217102217
 20
8619.995805555845
 10
25244.98383768884
 20
8619.995805555845
 10
25244.98383768884
 20
8519.983305555854
 10
26369.99217102217
 20
8519.983305555854
  0
LWPOLYLINE
  5
95
330
1F
100
AcDbEntity
  8
Walls
  6
Continuous
 62
    99
370
    18
100
AcDbPolyline
 90
        4
 70
     1
 43
0.0
 10
54596.0243932444
 20
19411.04469444474
 10
54746.02550435551
 20
19411.04469444474
 10
54746.02550435551
 20
21119.97080555585
 10
54596.0243932444
 20
21119.97080555585
  0
LWPOLYLINE
  5
96
330
1F
100
AcDbEntity
  8
Walls
  6
Continuous
 62
    99
370
    18
100
AcDbPolyline
 90
        8
 70
     1
 43
0.0
 10
54596.0102821333
 20
18711.02422222254
 10
54596.0102821333
 20
16876.82672222252
 10
54746.01139324439
 20
16876.82672222252
 10
54746.01139324439
 20
16952.10950000029
 10
56102.65361546664
 20
16952.10950000029
 10
56102.65361546664
 20
17001.49838888919
 10
54746.01139324439
 20
17001.49838888919
 10
54746.01139324439
 20
18711.02422222254
  0
LWPOLYLINE
  5
97
330
1F
100
AcDbEntity
  8
Walls
  6
Continuous
 62
    99
370
    18
100
AcDbPolyline
 90
       34
 70
     1
 43
0.0
 10
59595.32647657773
 20
16351.51591666695
 10
60949.92258768884
 20
16351.51591666695
 10
60949.92258768884
 20
16301.52730555585
 10
59694.98619879996
 20
16301.52730555585
 10
59694.98619879996
 20
12469.97258333363
 10
61449.91453213327
 20
12469.97258333363
 10
61449.91453213327
 20
16301.52730555585
 10
61399.92592102216
 20
16301.52730555585
 10
61399.92592102216
 20
16351.51591666695
 10
61449.91453213327
 20
16351.51591666695
 10
61449.91453213327
 20
16426.83397222251
 10
61499.83258768883
 20
16426.83397222251
 10
61499.83258768883
 20
12469.97258333363
 10
64420.05647657774
 20
12469.97258333363
 10
64420.05647657774
 20
12369.99536111142
 10
55245.99980991106
 20
12369.99536111142
 10
55245.99980991106
 20
12469.97258333363
 10
56052.62619879995
 20
12469.97258333363
 10
56052.62619879995
 20
13485.4081388892
 10
55245.99980991106
 20
13485.4081388892
 10
55245.99980991106
 20
13535.3967500003
 10
56102.65008768884
 20
13535.3967500003
 10
56102.65008768884
 20
12469.97258333363
 10
58159.30925435551
 20
12469.97258333363
 10
58159.30925435551
 20
16302.12702777808
 10
56802.63175435552
 20
16302.12702777808
 10
56802.63175435552
 20
16351.51591666695
 10
59145.32314324439
 20
16351.51591666695
 10
59145.32314324439
 20
16301.73897222252
 10
58209.33314324441
 20
16301.91536111141
 10
58209.33314324441
 20
12469.97258333363
 10
59644.99758768883
 20
12469.97258333363
 10
59645.35036546661
 20
16301.66841666696
 10
59595.32647657773
 20
16301.70369444474
  0
LWPOLYLINE
  5
98
330
1F
100
AcDbEntity
  8
Walls
  6
Continuous
 62
    99
370
    18
100
AcDbPolyline
 90
        4
 70
     1
 43
0.0
 10
63611.1193932444
 20
8519.983305555854
 10
64420.03883768885
 20
8519.983305555854
 10
64420.03883768885
 20
8619.995805555845
 10
63611.1193932444
 20
8619.995805555845
  0
LWPOLYLINE
  5
99
330
1F
100
AcDbEntity
  8
Walls
  6
Continuous
 62
    99
370
    18
100
AcDbPolyline
 90
        8
 70
     1
 43
0.0
 10
53966.24550435551
 20
2995.000000000289
 10
53966.24550435551
 20
1569.954166666975
 10
53891.24494879995
 20
1569.954166666975
 10
53891.24494879995
 20
1520.31833333362
 10
53966.31605991106
 20
1520.31833333362
 10
53966.31605991106
 20
-130.0113888885903
 10
54016.23411546662
 20
-130.0113888885903
 10
54016.23411546662
 20
2995.000000000289
  0
LWPOLYLINE
  5
9A
330
1F
100
AcDbEntity
  8
Walls
  6
Continuous
 62
    99
370
    18
100
AcDbPolyline
 90
       26
 70
     1
 43
0.0
 10
60395.0031432444
 20
6370.229611111398
 10
60395.0031432444
 20
6420.11238888918
 10
64420.05647657774
 20
6420.11238888918
 10
64420.05647657774
 20
6470.101000000284
 10
63111.10980991106
 20
6470.101000000284
 10
63111.10980991106
 20
8519.986833333633
 10
63161.09842102218
 20
8519.986833333633
 10
63161.09842102218
 20
8619.928777778085
 10
62253.36592102217
 20
8619.928777778085
 10
62253.36592102217
 20
8519.986833333633
 10
63061.72092102218
 20
8519.986833333633
 10
63061.72092102218
 20
6470.101000000284
 10
61753.33869879994
 20
6470.101000000284
 10
61753.33869879994
 20
8519.986833333633
 10
61803.32730991107
 20
8519.986833333633
 10
61803.32730991107
 20
8619.928777778085
 10
60895.03036546663
 20
8619.928777778085
 10
60895.03036546663
 20
8519.986833333633
 10
61703.35008768885
 20
8519.986833333633
 10
61703.35008768885
 20
6470.101000000284
 10
60394.93258768885
 20
6470.171555555851
 10
60395.0031432444
 20
8519.986833333633
 10
60444.99175435551
 20
8519.986833333633
 10
60444.99175435551
 20
8619.928777778085
 10
60345.01453213328
 20
8619.928777778085
 10
60345.01453213328
 20
6370.229611111398
  0
LWPOLYLINE
  5
9B
330
1F
100
AcDbEntity
  8
Walls
  6
Continuous
 62
    99
370
    18
100
AcDbPolyline
 90
        8
 70
     1
 43
0.0
 10
60395.0031432444
 20
4281.778111111407
 10
60345.01453213328
 20
4281.778111111407
 10
60345.01453213328
 20
1570.0106111114
 10
60270.01397657773
 20
1570.0106111114
 10
60270.01397657773
 20
1520.022000000296
 10
64420.05647657774
 20
1520.022000000296
 10
64420.05647657774
 20
1570.0106111114
 10
60395.0031432444
 20
1570.0106111114
  0
LWPOLYLINE
  5
9C
330
1F
100
AcDbEntity
  8
Walls
  6
Continuous
 62
    99
370
    18
100
AcDbPolyline
 90
        8
 70
     1
 43
0.0
 10
59820.01417102219
 20
1520.014944444739
 10
59820.01417102219
 20
1570.003555555843
 10
59745.01361546663
 20
1570.003555555843
 10
59745.01361546663
 20
2995.014111111402
 10
59595.01250435552
 20
2995.014111111402
 10
59595.01250435552
 20
-129.9972777774769
 10
59745.01361546663
 20
-129.9972777774769
 10
59745.01361546663
 20
1520.014944444739
  0
LWPOLYLINE
  5
9D
330
1F
100
AcDbEntity
  8
Walls
  6
Continuous
 62
    99
370
    18
100
AcDbPolyline
 90
        8
 70
     1
 43
0.0
 10
60395.0031432444
 20
5920.229805555863
 10
60395.0031432444
 20
4831.66341666697
 10
64420.05647657774
 20
4831.66341666697
 10
64420.05647657774
 20
4781.674805555866
 10
60395.0031432444
 20
4781.674805555866
 10
60395.0031432444
 20
4731.792027778084
 10
60345.01453213328
 20
4731.792027778084
 10
60345.01453213328
 20
5920.229805555863
  0
LWPOLYLINE
  5
9E
330
1F
100
AcDbEntity
  8
Walls
  6
Continuous
 62
    99
370
    18
100
AcDbPolyline
 90
        4
 70
     1
 43
0.0
 10
20183.01078213329
 20
2169.454138889193
 10
20232.99939324439
 20
2169.454138889193
 10
20232.99939324439
 20
-130.0572499997088
 10
20183.01078213329
 20
-130.0572499997088
  0
LWPOLYLINE
  5
9F
330
1F
100
AcDbEntity
  8
Walls
  6
Continuous
 62
    99
370
    18
100
AcDbPolyline
 90
        7
 70
     1
 43
0.0
 10
19595.02900435552
 20
18771.55736111141
 10
19595.02900435552
 20
18721.53347222252
 10
17646.00233768885
 20
18721.53347222252
 10
17646.00233768885
 20
15944.96069444475
 10
17596.01372657774
 20
15944.96069444475
 10
17596.01372657774
 20
18721.53347222252
 10
17596.01372657774
 20
18771.55736111141
  0
LWPOLYLINE
  5
A0
330
1F
100
AcDbEntity
  8
Walls
  6
Continuous
 62
    99
370
    18
100
AcDbPolyline
 90
        8
 70
     1
 43
0.0
 10
19595.02900435552
 20
15444.97227777808
 10
19595.02900435552
 20
15394.98366666697
 10
17646.00233768885
 20
15394.98366666697
 10
17646.00233768885
 20
15344.95977777809
 10
17596.01372657774
 20
15344.95977777809
 10
17596.01372657774
 20
15494.96088888918
 10
17646.00233768885
 20
15494.96088888918
 10
17646.00233768885
 20
15444.97227777808
  0
LWPOLYLINE
  5
A1
330
1F
100
AcDbEntity
  8
Walls
  6
Continuous
 62
    99
370
    18
100
AcDbPolyline
 90
        5
 70
     1
 43
0.0
 10
17646.01644879995
 20
12369.98125000031
 10
17596.02783768885
 20
12369.98125000031
 10
17596.02783768885
 20
14894.95291666697
 10
17646.01644879995
 20
14894.95291666697
 10
17646.01644879995
 20
12469.95847222252
  0
LWPOLYLINE
  5
A2
330
1F
100
AcDbEntity
  8
Walls
  6
Continuous
 62
    99
370
    18
100
AcDbPolyline
 90
        4
 70
     1
 43
0.0
 10
28993.49467102218
 20
6420.108861111402
 10
29043.48328213329
 20
6420.108861111402
 10
29043.48328213329
 20
8619.925250000308
 10
28993.49467102218
 20
8619.925250000308
  0
LWPOLYLINE
  5
A3
330
1F
100
AcDbEntity
  8
Walls
  6
Continuous
 62
    99
370
    18
100
AcDbPolyline
 90
        4
 70
     1
 43
0.0
 10
30768.46078213328
 20
6420.108861111402
 10
30818.4493932444
 20
6420.108861111402
 10
30818.4493932444
 20
8619.925250000308
 10
30768.46078213328
 20
8619.925250000308
  0
LWPOLYLINE
  5
A4
330
1F
100
AcDbEntity
  8
Walls
  6
Continuous
 62
    99
370
    18
100
AcDbPolyline
 90
        4
 70
     1
 43
0.0
 10
32170.01161546661
 20
6420.108861111402
 10
32220.00022657773
 20
6420.108861111402
 10
32220.00022657773
 20
8619.925250000308
 10
32170.01161546661
 20
8619.925250000308
  0
LWPOLYLINE
  5
A5
330
1F
100
AcDbEntity
  8
Walls
  6
Continuous
 62
    99
370
    18
100
AcDbPolyline
 90
        4
 70
     1
 43
0.0
 10
33540.02411546661
 20
6420.108861111402
 10
33590.01272657773
 20
6420.108861111402
 10
33590.01272657773
 20
8619.925250000308
 10
33540.02411546661
 20
8619.925250000308
  0
LWPOLYLINE
  5
A6
330
1F
100
AcDbEntity
  8
Walls
  6
Continuous
 62
    99
370
    18
100
AcDbPolyline
 90
        4
 70
     1
 43
0.0
 10
34900.01772657774
 20
6420.108861111402
 10
34950.00633768884
 20
6420.108861111402
 10
34950.00633768884
 20
8619.925250000308
 10
34900.01772657774
 20
8619.925250000308
  0
LWPOLYLINE
  5
A7
330
1F
100
AcDbEntity
  8
Walls
  6
Continuous
 62
    99
370
    18
100
AcDbPolyline
 90
        4
 70
     1
 43
0.0
 10
35028.35828213329
 20
-130.0572499997088
 10
35078.34689324439
 20
-130.0572499997088
 10
35078.34689324439
 20
2169.454138889193
 10
35028.35828213329
 20
2169.454138889193
  0
LWPOLYLINE
  5
A8
330
1F
100
AcDbEntity
  8
Walls
  6
Continuous
 62
    99
370
    18
100
AcDbPolyline
 90
        4
 70
     1
 43
0.0
 10
33786.72161546662
 20
-130.0572499997088
 10
33836.71022657773
 20
-130.0572499997088
 10
33836.71022657773
 20
2169.454138889193
 10
33786.72161546662
 20
2169.454138889193
  0
LWPOLYLINE
  5
A9
330
1F
100
AcDbEntity
  8
Walls
  6
Continuous
 62
    99
370
    18
100
AcDbPolyline
 90
        4
 70
     1
 43
0.0
 10
32545.08494879996
 20
-130.0572499997088
 10
32595.07355991106
 20
-130.0572499997088
 10
32595.07355991106
 20
2169.454138889193
 10
32545.08494879996
 20
2169.454138889193
  0
LWPOLYLINE
  5
AA
330
1F
100
AcDbEntity
  8
Walls
  6
Continuous
 62
    99
370
    18
100
AcDbPolyline
 90
        4
 70
     1
 43
0.0
 10
31303.4482821333
 20
-130.0572499997088
 10
31353.4368932444
 20
-130.0572499997088
 10
31353.4368932444
 20
2169.454138889193
 10
31303.4482821333
 20
2169.454138889193
  0
LWPOLYLINE
  5
AB
330
1F
100
AcDbEntity
  8
Walls
  6
Continuous
 62
    99
370
    18
100
AcDbPolyline
 90
        4
 70
     1
 43
0.0
 10
30061.81161546662
 20
-130.0572499997088
 10
30111.80022657774
 20
-130.0572499997088
 10
30111.80022657774
 20
2169.454138889193
 10
30061.81161546662
 20
2169.454138889193
  0
LWPOLYLINE
  5
AC
330
1F
100
AcDbEntity
  8
Walls
  6
Continuous
 62
    99
370
    18
100
AcDbPolyline
 90
        4
 70
     1
 43
0.0
 10
28820.17494879995
 20
-130.0572499997088
 10
28870.16355991107
 20
-130.0572499997088
 10
28870.16355991107
 20
2169.454138889193
 10
28820.17494879995
 20
2169.454138889193
  0
LWPOLYLINE
  5
AD
330
1F
100
AcDbEntity
  8
Walls
  6
Continuous
 62
    99
370
    18
100
AcDbPolyline
 90
        4
 70
     1
 43
0.0
 10
48294.67244879995
 20
8619.995805555845
 10
45495.02800435551
 20
8619.995805555845
 10
45495.02800435551
 20
8519.983305555854
 10
48294.67244879995
 20
8519.983305555854
  0
LWPOLYLINE
  5
AE
330
1F
100
AcDbEntity
  8
Walls
  6
Continuous
 62
    99
370
    18
100
AcDbPolyline
 90
        6
 70
     1
 43
0.0
 10
14083.77228213329
 20
18721.53347222252
 10
14083.77228213329
 20
18771.55736111141
 10
14083.77228213329
 20
21119.96375000029
 10
14033.78367102218
 20
21119.96375000029
 10
14033.78367102218
 20
18771.55736111141
 10
14033.78367102218
 20
18721.53347222252
  0
LWPOLYLINE
  5
AF
330
1F
100
AcDbEntity
  8
Walls
  6
Continuous
 62
    99
370
    18
100
AcDbPolyline
 90
        6
 70
     1
 43
0.0
 10
15620.57458768884
 20
18721.53347222252
 10
15620.57458768884
 20
18771.55736111141
 10
15620.57458768884
 20
21119.96375000029
 10
15570.58597657773
 20
21119.96375000029
 10
15570.58597657773
 20
18771.55736111141
 10
15570.58597657773
 20
18721.53347222252
  0
LWPOLYLINE
  5
B0
330
1F
100
AcDbEntity
  8
Walls
  6
Continuous
 62
    99
370
    18
100
AcDbPolyline
 90
        6
 70
     1
 43
0.0
 10
17121.01961546662
 20
18721.53347222252
 10
17121.01961546662
 20
18771.55736111141
 10
17121.01961546662
 20
21119.96375000029
 10
17071.03100435551
 20
21119.96375000029
 10
17071.03100435551
 20
18771.55736111141
 10
17071.03100435551
 20
18721.53347222252
  0
LWPOLYLINE
  5
B1
330
1F
100
AcDbEntity
  8
Walls
  6
Continuous
 62
    99
370
    18
100
AcDbPolyline
 90
        4
 70
     1
 43
0.0
 10
16946.02772657773
 20
17120.77608333363
 10
16996.01633768884
 20
17120.77608333363
 10
16996.01633768884
 20
18146.54802777807
 10
16946.02772657773
 20
18146.54802777807
  0
LWPOLYLINE
  5
B2
330
1F
100
AcDbEntity
  8
Walls
  6
Continuous
 62
    99
370
    18
100
AcDbPolyline
 90
       12
 70
     1
 43
0.0
 10
11267.71661546662
 20
-255.0005555552559
 10
11267.71661546662
 20
720.0066666669613
 10
4594.148837688843
 20
720.6063888891947
 10
4594.148837688843
 20
-255.0005555552559
 10
9893.753004355513
 20
-255.0005555552559
 10
9893.753004355513
 20
-130.0113888885903
 10
4719.138004355507
 20
-130.0113888885903
 10
4719.138004355507
 20
620.5938888891751
 10
11167.70411546662
 20
619.9941666669702
 10
11167.70411546662
 20
-130.0113888885903
 10
10593.76994879995
 20
-130.0113888885903
 10
10593.76994879995
 20
-255.0005555552559
  0
LWPOLYLINE
  5
B3
330
1F
100
AcDbEntity
  8
Walls
  6
Continuous
 62
    99
370
    18
100
AcDbPolyline
 90
        4
 70
     1
 43
0.0
 10
24595.02605991106
 20
-255.0464166663744
 10
24795.01578213328
 20
-255.0464166663744
 10
24795.01578213328
 20
-130.0572499997088
 10
24595.02605991106
 20
-130.0572499997088
  0
LWPOLYLINE
  5
B4
330
1F
100
AcDbEntity
  8
Walls
  6
Continuous
 62
    99
370
    18
100
AcDbPolyline
 90
       16
 70
     1
 43
0.0
 10
35028.38297657774
 20
-380.0214722219266
 10
64670.00658768885
 20
-380.0214722219266
 10
64670.00658768885
 20
8369.925750000306
 10
70070.01130991107
 20
8369.925750000306
 10
70070.01130991107
 20
12619.94547222253
 10
64670.00658768885
 20
12619.94547222253
 10
64670.00658768885
 20
21369.99852777808
 10
20445.00825435551
 20
21369.99852777808
 10
20445.00825435551
 20
21119.98491666697
 10
64419.99297657773
 20
21119.98491666697
 10
64419.99297657773
 20
12369.96713888919
 10
69819.99769879997
 20
12369.96713888919
 10
69819.99769879997
 20
8619.939361111421
 10
64419.99297657773
 20
8619.939361111421
 10
64419.99297657773
 20
-130.007861110812
 10
35028.38297657774
 20
-130.007861110812
  0
LWPOLYLINE
  5
B5
330
1F
100
AcDbEntity
  8
Walls
  6
Continuous
 62
    99
370
    18
100
AcDbPolyline
 90
        4
 70
     1
 43
0.0
 10
27270.03411546662
 20
2219.478027778081
 10
27170.02161546662
 20
2219.478027778081
 10
27170.02161546662
 20
-255.0464166663744
 10
27270.03411546662
 20
-255.0464166663744
  0
LWPOLYLINE
  5
B6
330
1F
100
AcDbEntity
  8
Walls
  6
Continuous
 62
    99
370
    18
100
AcDbPolyline
 90
        4
 70
     1
 43
0.0
 10
20544.99605991106
 20
21119.97080555585
 10
20445.01883768885
 20
21119.97080555585
 10
20445.01883768885
 20
12370.02358333365
 10
20544.99605991106
 20
12370.02358333365
  0
LWPOLYLINE
  5
B7
330
1F
100
AcDbEntity
  8
Walls
  6
Continuous
 62
    99
370
    18
100
AcDbPolyline
 90
        4
 70
     1
 43
0.0
 10
19595.03605991108
 20
12369.98830555586
 10
19745.03717102218
 20
12369.98830555586
 10
19745.03717102218
 20
21244.95997222252
 10
19595.03605991108
 20
21244.95997222252
  0
LWPOLYLINE
  5
B8
330
1F
100
AcDbEntity
  8
Walls
  6
Continuous
 62
    99
370
    18
100
AcDbPolyline
 90
        4
 70
     1
 43
0.0
 10
26369.99217102217
 20
-255.0464166663744
 10
26470.00467102218
 20
-255.0464166663744
 10
26470.00467102218
 20
5920.081638889173
 10
26369.99217102217
 20
5920.081638889173
  0
LWPOLYLINE
  5
B9
330
1F
100
AcDbEntity
  8
Walls
  6
Continuous
 62
    99
370
    18
100
AcDbPolyline
 90
        4
 70
     1
 43
0.0
 10
26470.00467102218
 20
8619.995805555845
 10
26369.99217102217
 20
8619.995805555845
 10
26369.99217102217
 20
6370.155527778081
 10
26470.00467102218
 20
6370.155527778081
  0
LWPOLYLINE
  5
BA
330
1F
100
AcDbEntity
  8
Walls
  6
Continuous
 62
    99
370
    18
100
AcDbPolyline
 90
        4
 70
     1
 43
0.0
 10
27170.02161546662
 20
5670.068027778087
 10
27270.03411546662
 20
5670.068027778087
 10
27270.03411546662
 20
2919.389138889187
 10
27170.02161546662
 20
2919.389138889187
  0
LWPOLYLINE
  5
BB
330
1F
100
AcDbEntity
  8
Walls
  6
Continuous
 62
    99
370
    18
100
AcDbPolyline
 90
        4
 70
     1
 43
0.0
 10
27170.02161546662
 20
8619.995805555845
 10
27270.03411546662
 20
8619.995805555845
 10
27270.03411546662
 20
6370.155527778081
 10
27170.02161546662
 20
6370.155527778081
  0
LWPOLYLINE
  5
BC
330
1F
100
AcDbEntity
  8
Walls
  6
Continuous
 62
    99
370
    18
100
AcDbPolyline
 90
        4
 70
     1
 43
0.0
 10
44594.98605991107
 20
13619.28025000029
 10
42295.08661546662
 20
13619.28025000029
 10
42295.08661546662
 20
12469.93025000029
 10
44594.98605991107
 20
12469.93025000029
  0
LWPOLYLINE
  5
BD
330
1F
100
AcDbEntity
  8
Walls
  6
Continuous
 62
    99
370
    18
100
AcDbPolyline
 90
        4
 70
     1
 43
0.0
 10
35028.35828213329
 20
-130.0572499997088
 10
27270.03411546662
 20
-130.0572499997088
 10
27270.03411546662
 20
-180.0458611108127
 10
35028.35828213329
 20
-180.0458611108127
  0
LWPOLYLINE
  5
BE
330
1F
100
AcDbEntity
  8
Walls
  6
Continuous
 62
    99
370
    18
100
AcDbPolyline
 90
        4
 70
     0
 43
0.0
 10
36269.99847657773
 20
2771.035500000295
 10
34644.99819879995
 20
2771.035500000295
 10
34644.99819879995
 20
5820.129111111413
 10
36269.99847657773
 20
5820.129111111413
  0
LWPOLYLINE
  5
BF
330
1F
100
AcDbEntity
  8
Walls
  6
Continuous
 62
    99
370
    18
100
AcDbPolyline
 90
        4
 70
     0
 43
0.0
 10
19595.02900435552
 20
21169.96294444473
 10
8620.006504355515
 20
21169.96294444473
 10
8620.006504355515
 20
21119.97433333363
 10
19595.02900435552
 20
21119.97433333363
  0
LWPOLYLINE
  5
C0
330
1F
100
AcDbEntity
  8
Walls
  6
Continuous
 62
    99
370
    18
100
AcDbPolyline
 90
        4
 70
     0
 43
0.0
 10
1623.703504355511
 20
21120.32005555585
 10
7295.029615466625
 20
21120.32005555585
 10
7295.029615466625
 20
21169.95588888921
 10
1707.735171022179
 20
21169.95588888921
  0
LWPOLYLINE
  5
C1
330
1F
100
AcDbEntity
  8
Walls
  6
Continuous
 62
    99
370
    18
100
AcDbPolyline
 90
        4
 70
     1
 43
0.0
 10
25245.01911546662
 20
-180.0458611108127
 10
26370.02744879995
 20
-180.0458611108127
 10
26370.02744879995
 20
-130.0572499997088
 10
25245.01911546662
 20
-130.0572499997088
  0
LWPOLYLINE
  5
C2
330
1F
100
AcDbEntity
  8
Walls
  6
Continuous
 62
    99
370
    18
100
AcDbPolyline
 90
        4
 70
     1
 43
0.0
 10
8170.010226577738
 20
21169.99469444474
 10
7745.018837688846
 20
21169.99469444474
 10
7745.018837688846
 20
21120.35886111141
 10
8170.010226577738
 20
21120.35886111141
  0
LWPOLYLINE
  5
C3
330
1F
100
AcDbEntity
  8
Walls
  6
Continuous
 62
    99
370
    18
100
AcDbPolyline
 90
        4
 70
     1
 43
0.0
 10
557.2421710221818
 20
8619.995805555845
 10
-79.98032897781826
 20
8619.995805555845
 10
-79.98032897781826
 20
8495.00663888918
 10
557.2421710221818
 20
8495.00663888918
  0
LWPOLYLINE
  5
C4
330
1F
100
AcDbEntity
  8
Walls
  6
Continuous
 62
    99
370
    18
100
AcDbPolyline
 90
        4
 70
     1
 43
0.0
 10
60344.99689324441
 20
8619.995805555845
 10
53966.24550435551
 20
8619.995805555845
 10
53966.24550435551
 20
8519.983305555854
 10
60344.99689324441
 20
8519.983305555854
  0
LWPOLYLINE
  5
C5
330
1F
100
AcDbEntity
  8
Walls
  6
Continuous
 62
    99
370
    18
100
AcDbPolyline
 90
        4
 70
     1
 43
0.0
 10
64420.35633768884
 20
11698.05247222251
 10
64570.35744879995
 20
11698.05247222251
 10
64570.35744879995
 20
12366.4252500003
 10
64420.35633768884
 20
12366.4252500003
  0
LWPOLYLINE
  5
C6
330
1F
100
AcDbEntity
  8
Walls
  6
Continuous
 62
    99
370
    18
100
AcDbPolyline
 90
        4
 70
     1
 43
0.0
 10
64420.35633768884
 20
10189.57469444473
 10
64570.35744879995
 20
10189.57469444473
 10
64570.35744879995
 20
10798.08108333364
 10
64420.35633768884
 20
10798.08108333364
  0
LWPOLYLINE
  5
C7
330
1F
100
AcDbEntity
  8
Walls
  6
Continuous
 62
    99
370
    18
100
AcDbPolyline
 90
        4
 70
     1
 43
0.0
 10
64420.35633768884
 20
8619.184416666969
 10
64570.35744879995
 20
8619.184416666969
 10
64570.35744879995
 20
9289.568027778074
 10
64420.35633768884
 20
9289.568027778074
  0
LWPOLYLINE
  5
C8
330
1F
100
AcDbEntity
  8
Walls
  6
Continuous
 62
    99
370
    18
100
AcDbPolyline
 90
        4
 70
     1
 43
0.0
 10
13953.09633768884
 20
12494.97747222253
 10
11010.18883768884
 20
12494.97747222253
 10
11010.18883768884
 20
12369.98830555586
 10
13953.09633768884
 20
12369.98830555586
  0
LWPOLYLINE
  5
C9
330
1F
100
AcDbEntity
  8
Walls
  6
Continuous
 62
    99
370
    18
100
AcDbPolyline
 90
        4
 70
     1
 43
0.0
 10
16945.99244879996
 20
12494.97747222253
 10
14003.08494879996
 20
12494.97747222253
 10
14003.08494879996
 20
12369.98830555586
 10
16945.99244879996
 20
12369.98830555586
  0
LWPOLYLINE
  5
CA
330
1F
100
AcDbEntity
  8
Walls
  6
Continuous
 62
    99
370
    18
100
AcDbPolyline
 90
        4
 70
     1
 43
0.0
 10
19595.03605991108
 20
12494.97747222253
 10
17646.00939324441
 20
12494.97747222253
 10
17646.00939324441
 20
12369.98830555586
 10
19595.03605991108
 20
12369.98830555586
  0
LWPOLYLINE
  5
CB
330
1F
100
AcDbEntity
  8
Walls
  6
Continuous
 62
    99
370
    18
100
AcDbPolyline
 90
        4
 70
     1
 43
0.0
 10
42195.1093932444
 20
12494.97747222253
 10
20544.99605991106
 20
12494.97747222253
 10
20544.99605991106
 20
12369.98830555586
 10
42195.1093932444
 20
12369.98830555586
  0
LWPOLYLINE
  5
CC
330
1F
100
AcDbEntity
  8
Walls
  6
Continuous
 62
    99
370
    18
100
AcDbPolyline
 90
        4
 70
     1
 43
0.0
 10
54596.0243932444
 20
12494.97747222253
 10
44745.05772657773
 20
12494.97747222253
 10
44745.05772657773
 20
12369.98830555586
 10
54596.0243932444
 20
12369.98830555586
  0
LWPOLYLINE
  5
CD
330
1F
100
AcDbEntity
  8
Walls
  6
Continuous
 62
    99
370
    18
100
AcDbPolyline
 90
        4
 70
     1
 43
0.0
 10
28993.49467102218
 20
8619.995805555845
 10
27270.03411546662
 20
8619.995805555845
 10
27270.03411546662
 20
8519.983305555854
 10
28993.49467102218
 20
8519.983305555854
  0
LWPOLYLINE
  5
CE
330
1F
100
AcDbEntity
  8
Walls
  6
Continuous
 62
    99
370
    18
100
AcDbPolyline
 90
        4
 70
     1
 43
0.0
 10
30767.68467102217
 20
8617.03247222252
 10
29044.22411546662
 20
8617.03247222252
 10
29044.22411546662
 20
8516.984694444744
 10
30767.68467102217
 20
8516.984694444744
  0
LWPOLYLINE
  5
CF
330
1F
100
AcDbEntity
  8
Walls
  6
Continuous
 62
    99
370
    18
100
AcDbPolyline
 90
        4
 70
     1
 43
0.0
 10
32170.0468932444
 20
8621.477472222523
 10
30818.4493932444
 20
8621.477472222523
 10
30818.4493932444
 20
8521.464972222531
 10
32170.0468932444
 20
8521.464972222531
  0
LWPOLYLINE
  5
D0
330
1F
100
AcDbEntity
  8
Walls
  6
Continuous
 62
    99
370
    18
100
AcDbPolyline
 90
        4
 70
     1
 43
0.0
 10
33539.98883768886
 20
8618.514138889197
 10
32220.00022657773
 20
8618.514138889197
 10
32220.00022657773
 20
8518.501638889176
 10
33539.98883768886
 20
8518.501638889176
  0
LWPOLYLINE
  5
D1
330
1F
100
AcDbEntity
  8
Walls
  6
Continuous
 62
    99
370
    18
100
AcDbPolyline
 90
        4
 70
     1
 43
0.0
 10
34900.01772657774
 20
8622.9591388892
 10
33590.01272657773
 20
8622.9591388892
 10
33590.01272657773
 20
8522.946638889181
 10
34900.01772657774
 20
8522.946638889181
  0
LWPOLYLINE
  5
D2
330
1F
100
AcDbEntity
  8
Walls
  6
Continuous
 62
    99
370
    18
100
AcDbPolyline
 90
        4
 70
     1
 43
0.0
 10
36269.99494879995
 20
8619.995805555845
 10
34950.00633768884
 20
8619.995805555845
 10
34950.00633768884
 20
8519.983305555854
 10
36269.99494879995
 20
8519.983305555854
  0
LWPOLYLINE
  5
D3
330
1F
100
AcDbEntity
  8
Walls
  6
Continuous
 62
    99
370
    18
100
AcDbPolyline
 90
        4
 70
     1
 43
0.0
 10
28993.4593932444
 20
6523.084694444748
 10
27269.99883768884
 20
6523.084694444748
 10
27269.99883768884
 20
6423.072194444729
 10
28993.4593932444
 20
6423.072194444729
  0
LWPOLYLINE
  5
D4
330
1F
100
AcDbEntity
  8
Walls
  6
Continuous
 62
    99
370
    18
100
AcDbPolyline
 90
        4
 70
     1
 43
0.0
 10
30767.64939324441
 20
6520.121361111422
 10
29044.18883768884
 20
6520.121361111422
 10
29044.18883768884
 20
6420.108861111402
 10
30767.64939324441
 20
6420.108861111402
  0
LWPOLYLINE
  5
D5
330
1F
100
AcDbEntity
  8
Walls
  6
Continuous
 62
    99
370
    18
100
AcDbPolyline
 90
        4
 70
     1
 43
0.0
 10
32170.01161546661
 20
6524.566361111397
 10
30818.41411546662
 20
6524.566361111397
 10
30818.41411546662
 20
6424.553861111406
 10
32170.01161546661
 20
6424.553861111406
  0
LWPOLYLINE
  5
D6
330
1F
100
AcDbEntity
  8
Walls
  6
Continuous
 62
    99
370
    18
100
AcDbPolyline
 90
        4
 70
     1
 43
0.0
 10
33539.95355991107
 20
6521.60302777807
 10
32219.96494879996
 20
6521.60302777807
 10
32219.96494879996
 20
6421.590527778079
 10
33539.95355991107
 20
6421.590527778079
  0
LWPOLYLINE
  5
D7
330
1F
100
AcDbEntity
  8
Walls
  6
Continuous
 62
    99
370
    18
100
AcDbPolyline
 90
        4
 70
     1
 43
0.0
 10
34899.98244879995
 20
6526.083305555858
 10
33589.94217102218
 20
6526.083305555858
 10
33589.94217102218
 20
6426.070805555866
 10
34899.98244879995
 20
6426.070805555866
  0
LWPOLYLINE
  5
D8
330
1F
100
AcDbEntity
  8
Walls
  6
Continuous
 62
    99
370
    18
100
AcDbPolyline
 90
        4
 70
     1
 43
0.0
 10
36269.95967102217
 20
6523.084694444748
 10
34949.97105991105
 20
6523.084694444748
 10
34949.97105991105
 20
6423.072194444729
 10
36269.95967102217
 20
6423.072194444729
  0
LWPOLYLINE
  5
D9
330
1F
100
AcDbEntity
  8
Walls
  6
Continuous
 62
    99
370
    18
100
AcDbPolyline
 90
        4
 70
     1
 43
0.0
 10
28820.17494879995
 20
2166.455527778084
 10
27270.03411546662
 20
2166.455527778084
 10
27270.03411546662
 20
2066.443027778064
 10
28820.17494879995
 20
2066.443027778064
  0
LWPOLYLINE
  5
DA
330
1F
100
AcDbEntity
  8
Walls
  6
Continuous
 62
    99
370
    18
100
AcDbPolyline
 90
        4
 70
     1
 43
0.0
 10
30061.81161546662
 20
2163.456916666973
 10
28870.16355991107
 20
2163.456916666973
 10
28870.16355991107
 20
2063.444416666954
 10
30061.81161546662
 20
2063.444416666954
  0
LWPOLYLINE
  5
DB
330
1F
100
AcDbEntity
  8
Walls
  6
Continuous
 62
    99
370
    18
100
AcDbPolyline
 90
        4
 70
     1
 43
0.0
 10
31303.4482821333
 20
2167.937194444733
 10
30111.80022657774
 20
2167.937194444733
 10
30111.80022657774
 20
2067.924694444741
 10
31303.4482821333
 20
2067.924694444741
  0
LWPOLYLINE
  5
DC
330
1F
100
AcDbEntity
  8
Walls
  6
Continuous
 62
    99
370
    18
100
AcDbPolyline
 90
        4
 70
     1
 43
0.0
 10
32545.08494879996
 20
2164.973861111406
 10
31353.4368932444
 20
2164.973861111406
 10
31353.4368932444
 20
2064.961361111415
 10
32545.08494879996
 20
2064.961361111415
  0
LWPOLYLINE
  5
DD
330
1F
100
AcDbEntity
  8
Walls
  6
Continuous
 62
    99
370
    18
100
AcDbPolyline
 90
        4
 70
     1
 43
0.0
 10
33786.72161546662
 20
2169.454138889193
 10
32595.07355991106
 20
2169.454138889193
 10
32595.07355991106
 20
2069.441638889174
 10
33786.72161546662
 20
2069.441638889174
  0
LWPOLYLINE
  5
DE
330
1F
100
AcDbEntity
  8
Walls
  6
Continuous
 62
    99
370
    18
100
AcDbPolyline
 90
        4
 70
     1
 43
0.0
 10
36269.99494879995
 20
2166.455527778084
 10
35078.38217102217
 20
2166.455527778084
 10
35078.38217102217
 20
2066.443027778064
 10
36269.99494879995
 20
2066.443027778064
  0
LWPOLYLINE
  5
DF
330
1F
100
AcDbEntity
  8
Walls
  6
Continuous
 62
    99
370
    18
100
AcDbPolyline
 90
        4
 70
     1
 43
0.0
 10
35028.39355991107
 20
2166.455527778084
 10
33836.74550435551
 20
2166.455527778084
 10
33836.74550435551
 20
2066.443027778064
 10
35028.39355991107
 20
2066.443027778064
  0
LWPOLYLINE
  5
E0
330
1F
100
AcDbEntity
  8
Walls
  6
Continuous
 62
    99
370
    18
100
AcDbPolyline
 90
        4
 70
     1
 43
0.0
 10
22920.03717102217
 20
2869.471083333622
 10
19322.33883768884
 20
2869.471083333622
 10
19322.33883768884
 20
2769.45858333363
 10
22920.03717102217
 20
2769.45858333363
  0
LWPOLYLINE
  5
E1
330
1F
100
AcDbEntity
  8
Walls
  6
Continuous
 62
    99
370
    18
100
AcDbPolyline
 90
        4
 70
     1
 43
0.0
 10
44744.98717102218
 20
13769.66941666697
 10
42195.10939324438
 20
13769.66941666697
 10
42195.10939324438
 20
12369.98830555586
 10
44744.98717102218
 20
12369.98830555586
  0
LWPOLYLINE
  5
E2
330
1F
100
AcDbEntity
  8
Offices
  6
Continuous
 62
     5
370
    18
100
AcDbPolyline
 90
        4
 70
     1
 43
0.0
 10
-79.95916231115352
 20
2119.119805555854
 10
2232.922504355514
 20
2119.119805555854
 10
2232.922504355514
 20
-130.3676944441463
 10
-79.95916231115352
 20
-130.3676944441463
  0
LWPOLYLINE
  5
E4
330
1F
100
AcDbEntity
  8
Offices
  6
Continuous
 62
     5
370
    18
100
AcDbPolyline
 90
        4
 70
     1
 43
0.0
 10
2282.699448799958
 20
-130.3676944441463
 10
4595.01667102218
 20
-130.3676944441463
 10
4595.01667102218
 20
2119.119805555854
 10
2282.699448799958
 20
2119.119805555854
  0
LWPOLYLINE
  5
E5
330
1F
100
AcDbEntity
  8
Offices
  6
Continuous
 62
     5
370
    18
100
AcDbPolyline
 90
        4
 70
     1
 43
0.0
 10
4745.017782133292
 20
2119.119805555854
 10
11217.7138932444
 20
2119.119805555854
 10
11217.7138932444
 20
719.6503611114124
 10
4745.017782133292
 20
719.6503611114124
  0
LWPOLYLINE
  5
E6
330
1F
100
AcDbEntity
  8
Offices
  6
Continuous
 62
     5
370
    18
100
AcDbPolyline
 90
        4
 70
     1
 43
0.0
 10
11267.73778213329
 20
2119.119805555854
 10
12931.40250435552
 20
2119.119805555854
 10
12931.40250435552
 20
-130.3676944441463
 10
11267.73778213329
 20
-130.3676944441463
  0
LWPOLYLINE
  5
E7
330
1F
100
AcDbEntity
  8
Offices
  6
Continuous
 62
     5
370
    18
100
AcDbPolyline
 90
        4
 70
     1
 43
0.0
 10
12981.32055991107
 20
2119.119805555854
 10
14594.99667102218
 20
2119.119805555854
 10
14594.99667102218
 20
-130.3676944441463
 10
12981.32055991107
 20
-130.3676944441463
  0
LWPOLYLINE
  5
E8
330
1F
100
AcDbEntity
  8
Offices
  6
Continuous
 62
     5
370
    18
100
AcDbPolyline
 90
        4
 70
     1
 43
0.0
 10
14745.03305991107
 20
2794.618694444743
 10
16946.0488932444
 20
2794.618694444743
 10
16946.0488932444
 20
-130.3676944441463
 10
14745.03305991107
 20
-130.3676944441463
  0
LWPOLYLINE
  5
E9
330
1F
100
AcDbEntity
  8
Offices
  6
Continuous
 62
     5
370
    18
100
AcDbPolyline
 90
        4
 70
     1
 43
0.0
 10
14745.03305991107
 20
5544.627305555858
 10
16946.0488932444
 20
5544.627305555858
 10
16946.0488932444
 20
2844.677861111414
 10
14745.03305991107
 20
2844.677861111414
  0
LWPOLYLINE
  5
EA
330
1F
100
AcDbEntity
  8
Offices
  6
Continuous
 62
     5
370
    18
100
AcDbPolyline
 90
        4
 70
     1
 43
0.0
 10
14745.03305991107
 20
8619.650083333632
 10
16946.0488932444
 20
8619.650083333632
 10
16946.0488932444
 20
5594.651194444744
 10
14745.03305991107
 20
5594.651194444744
  0
LWPOLYLINE
  5
EB
330
1F
100
AcDbEntity
  8
Offices
  6
Continuous
 62
     5
370
    18
100
AcDbPolyline
 90
        4
 70
     1
 43
0.0
 10
17646.03055991108
 20
8619.650083333632
 10
22920.05833768885
 20
8619.650083333632
 10
22920.05833768885
 20
5594.651194444744
 10
17646.03055991108
 20
5594.651194444744
  0
LWPOLYLINE
  5
EC
330
1F
100
AcDbEntity
  8
Offices
  6
Continuous
 62
     5
370
    18
100
AcDbPolyline
 90
        4
 70
     1
 43
0.0
 10
17646.03055991108
 20
5544.627305555858
 10
19272.33611546663
 20
5544.627305555858
 10
19272.33611546663
 20
2819.10147222252
 10
17646.03055991108
 20
2819.10147222252
  0
LWPOLYLINE
  5
ED
330
1F
100
AcDbEntity
  8
Offices
  6
Continuous
 62
     5
370
    18
100
AcDbPolyline
 90
        4
 70
     1
 43
0.0
 10
19322.32472657773
 20
2769.11286111141
 10
22920.02305991107
 20
2769.11286111141
 10
22920.02305991107
 20
5544.662583333633
 10
19322.32472657773
 20
5544.662583333633
  0
LWPOLYLINE
  5
EE
330
1F
100
AcDbEntity
  8
Offices
  6
Continuous
 62
     5
370
    18
100
AcDbPolyline
 90
        4
 70
     1
 43
0.0
 10
22970.04694879995
 20
4036.184805555855
 10
24595.04722657774
 20
4036.184805555855
 10
24595.04722657774
 20
8519.637583333633
 10
22970.04694879995
 20
8519.637583333633
  0
LWPOLYLINE
  5
EF
330
1F
100
AcDbEntity
  8
Offices
  6
Continuous
 62
     5
370
    18
100
AcDbPolyline
 90
        4
 70
     1
 43
0.0
 10
24744.9777821333
 20
8519.637583333633
 10
26369.97805991107
 20
8519.637583333633
 10
26369.97805991107
 20
6469.822305555858
 10
24744.9777821333
 20
6469.822305555858
  0
LWPOLYLINE
  5
F0
330
1F
100
AcDbEntity
  8
Offices
  6
Continuous
 62
     5
370
    18
100
AcDbPolyline
 90
        4
 70
     1
 43
0.0
 10
24744.9777821333
 20
6419.763138889188
 10
26369.97805991107
 20
6419.763138889188
 10
26369.97805991107
 20
-130.3676944441392
 10
24744.9777821333
 20
-130.3676944441392
  0
LWPOLYLINE
  5
F1
330
1F
100
AcDbEntity
  8
Offices
  6
Continuous
 62
     5
370
    18
100
AcDbPolyline
 90
        4
 70
     1
 43
0.0
 10
24595.04722657774
 20
-130.3676944441463
 10
22970.04694879996
 20
-130.3676944441463
 10
22970.04694879996
 20
3986.125638889192
 10
24595.04722657774
 20
3986.125638889192
  0
LWPOLYLINE
  5
F2
330
1F
100
AcDbEntity
  8
Offices
  6
Continuous
 62
     5
370
    18
100
AcDbPolyline
 90
        4
 70
     1
 43
0.0
 10
22920.05833768885
 20
2169.108416666965
 10
21601.55139324441
 20
2169.108416666965
 10
21601.55139324441
 20
-130.3676944441463
 10
22920.05833768885
 20
-130.3676944441463
  0
LWPOLYLINE
  5
F3
330
1F
100
AcDbEntity
  8
Offices
  6
Continuous
 62
     5
370
    18
100
AcDbPolyline
 90
        4
 70
     1
 43
0.0
 10
21551.52750435551
 20
-130.3676944441463
 10
20233.02055991107
 20
-130.3676944441463
 10
20233.02055991107
 20
2169.108416666965
 10
21551.52750435551
 20
2169.108416666965
  0
LWPOLYLINE
  5
F4
330
1F
100
AcDbEntity
  8
Offices
  6
Continuous
 62
     5
370
    18
100
AcDbPolyline
 90
        4
 70
     1
 43
0.0
 10
20183.03194879996
 20
2169.108416666965
 10
18614.54667102218
 20
2169.108416666965
 10
18614.54667102218
 20
-130.3676944441463
 10
20183.03194879996
 20
-130.3676944441463
  0
LWPOLYLINE
  5
F5
330
1F
100
AcDbEntity
  8
Offices
  6
Continuous
 62
     5
370
    18
100
AcDbPolyline
 90
        4
 70
     1
 43
0.0
 10
18564.45222657774
 20
2169.108416666965
 10
16995.96694879996
 20
2169.108416666965
 10
16995.96694879996
 20
-130.3676944441463
 10
18564.45222657774
 20
-130.3676944441463
  0
LWPOLYLINE
  5
F6
330
1F
100
AcDbEntity
  8
Offices
  6
Continuous
 62
     5
370
    18
100
AcDbPolyline
 90
        4
 70
     1
 43
0.0
 10
60395.00667102219
 20
1569.668416666964
 10
64420.02472657778
 20
1569.668416666964
 10
64420.02472657778
 20
4781.322027778081
 10
60395.00667102219
 20
4781.322027778081
  0
LWPOLYLINE
  5
F7
330
1F
100
AcDbEntity
  8
Offices
  6
Continuous
 62
     5
370
    18
100
AcDbPolyline
 90
        4
 70
     1
 43
0.0
 10
64420.02472657775
 20
4831.310638889192
 10
60394.97139324441
 20
4831.310638889192
 10
60394.97139324441
 20
6419.763138889188
 10
64420.02472657775
 20
6419.763138889188
  0
LWPOLYLINE
  5
F8
330
1F
100
AcDbEntity
  8
Offices
  6
Continuous
 62
     5
370
    18
100
AcDbPolyline
 90
        4
 70
     1
 43
0.0
 10
61753.30694879997
 20
8519.637583333633
 10
63061.6538932444
 20
8519.637583333633
 10
63061.6538932444
 20
6469.822305555858
 10
61753.30694879997
 20
6469.822305555858
  0
LWPOLYLINE
  5
F9
330
1F
100
AcDbEntity
  8
Offices
  6
Continuous
 62
     5
370
    18
100
AcDbPolyline
 90
        4
 70
     1
 43
0.0
 10
63111.14861546665
 20
6469.751750000299
 10
64420.06000435553
 20
6469.751750000299
 10
64420.06000435553
 20
8519.567027778074
 10
63111.14861546665
 20
8519.567027778074
  0
LWPOLYLINE
  5
FA
330
1F
100
AcDbEntity
  8
Offices
  6
Continuous
 62
     5
370
    18
100
AcDbPolyline
 90
        4
 70
     1
 43
0.0
 10
64420.02472657775
 20
12469.61980555586
 10
61499.87139324441
 20
12469.61980555586
 10
61499.87139324441
 20
16951.76730555586
 10
64420.02472657775
 20
16951.76730555586
  0
LWPOLYLINE
  5
FB
330
1F
100
AcDbEntity
  8
Offices
  6
Continuous
 62
     5
370
    18
100
AcDbPolyline
 90
        4
 70
     1
 43
0.0
 10
61449.95333768884
 20
16301.20980555586
 10
59695.02500435551
 20
16301.20980555586
 10
59695.02500435551
 20
12469.65508333364
 10
61449.95333768884
 20
12469.65508333364
  0
LWPOLYLINE
  5
FC
330
1F
100
AcDbEntity
  8
Offices
  6
Continuous
 62
     5
370
    18
100
AcDbPolyline
 90
        4
 70
     1
 43
0.0
 10
59645.0363932444
 20
12469.61980555586
 10
58209.37194879996
 20
12469.61980555586
 10
58209.37194879996
 20
16301.56258333363
 10
59645.0363932444
 20
16301.56258333363
  0
LWPOLYLINE
  5
FD
330
1F
100
AcDbEntity
  8
Offices
  6
Continuous
 62
     5
370
    18
100
AcDbPolyline
 90
        7
 70
     1
 43
0.0
 10
58159.29514324442
 20
16301.56258333363
 10
56102.63597657774
 20
16301.56258333363
 10
54746.34653213329
 20
16301.7742500003
 10
54746.09958768887
 20
13535.04397222252
 10
56102.63597657774
 20
13535.04397222252
 10
56102.63597657774
 20
12469.61980555586
 10
58159.29514324442
 20
12469.61980555586
  0
LWPOLYLINE
  5
FE
330
1F
100
AcDbEntity
  8
Offices
  6
Continuous
 62
     5
370
    18
100
AcDbPolyline
 90
        4
 70
     1
 43
0.0
 10
54746.08194879996
 20
13485.05536111141
 10
56052.62972657774
 20
13485.05536111141
 10
56052.62972657774
 20
12469.61980555586
 10
54746.08194879996
 20
12469.61980555586
  0
LWPOLYLINE
  5
FF
330
1F
100
AcDbEntity
  8
Offices
  6
Continuous
 62
     5
370
    18
100
AcDbPolyline
 90
        4
 70
     1
 43
0.0
 10
54746.04667102221
 20
16951.76730555586
 10
61449.95333768884
 20
16951.76730555586
 10
61449.95333768884
 20
16351.19841666696
 10
54746.04667102221
 20
16351.19841666696
  0
LWPOLYLINE
  5
100
330
1F
100
AcDbEntity
  8
Offices
  6
Continuous
 62
     5
370
    18
100
AcDbPolyline
 90
        4
 70
     1
 43
0.0
 10
64420.02472657775
 20
17001.15619444474
 10
54745.97611546663
 20
17001.15619444474
 10
54745.97611546663
 20
21119.62508333363
 10
64420.02472657775
 20
21119.62508333363
  0
LWPOLYLINE
  5
101
330
1F
100
AcDbEntity
  8
Offices
  6
Continuous
 62
     5
370
    18
100
AcDbPolyline
 90
        4
 70
     1
 43
0.0
 10
19595.05722657774
 20
15394.64147222252
 10
17646.03055991108
 20
15394.64147222252
 10
17646.03055991108
 20
12369.64258333364
 10
19595.05722657774
 20
12369.64258333364
  0
LWPOLYLINE
  5
102
330
1F
100
AcDbEntity
  8
Offices
  6
Continuous
 62
     5
370
    18
100
AcDbPolyline
 90
        4
 70
     1
 43
0.0
 10
19595.05722657774
 20
15444.63008333364
 10
17646.03055991108
 20
15444.63008333364
 10
17646.03055991108
 20
18721.19480555585
 10
19595.05722657774
 20
18721.19480555585
  0
LWPOLYLINE
  5
103
330
1F
100
AcDbEntity
  8
Offices
  6
Continuous
 62
     5
370
    18
100
AcDbPolyline
 90
        4
 70
     1
 43
0.0
 10
19595.05722657774
 20
18771.21869444474
 10
17121.06194879996
 20
18771.21869444474
 10
17121.06194879996
 20
21119.62508333363
 10
19595.05722657774
 20
21119.62508333363
  0
LWPOLYLINE
  5
104
330
1F
100
AcDbEntity
  8
Offices
  6
Continuous
 62
     5
370
    18
100
AcDbPolyline
 90
        4
 70
     1
 43
0.0
 10
17071.00278213329
 20
21119.66036111141
 10
15620.55694879996
 20
21119.66036111141
 10
15620.55694879996
 20
18721.23008333363
 10
17071.00278213329
 20
18721.23008333363
  0
LWPOLYLINE
  5
105
330
1F
100
AcDbEntity
  8
Offices
  6
Continuous
 62
     5
370
    18
100
AcDbPolyline
 90
        4
 70
     1
 43
0.0
 10
15570.56833768885
 20
18721.19480555585
 10
14083.75111546663
 20
18721.19480555585
 10
14083.75111546663
 20
21119.62508333363
 10
15570.56833768885
 20
21119.62508333363
  0
LWPOLYLINE
  5
106
330
1F
100
AcDbEntity
  8
Offices
  6
Continuous
 62
     5
370
    18
100
AcDbPolyline
 90
        4
 70
     1
 43
0.0
 10
14033.76250435551
 20
21119.66036111141
 10
12546.94528213329
 20
21119.66036111141
 10
12546.94528213329
 20
18721.23008333363
 10
14033.76250435551
 20
18721.23008333363
  0
LWPOLYLINE
  5
107
330
1F
100
AcDbEntity
  8
Offices
  6
Continuous
 62
     5
370
    18
100
AcDbPolyline
 90
        4
 70
     1
 43
0.0
 10
12496.99194879996
 20
18721.19480555585
 10
11010.17472657774
 20
18721.19480555585
 10
11010.17472657774
 20
21119.62508333363
 10
12496.99194879996
 20
21119.62508333363
  0
LWPOLYLINE
  5
108
330
1F
100
AcDbEntity
  8
Offices
  6
Continuous
 62
     5
370
    18
100
AcDbPolyline
 90
        4
 70
     1
 43
0.0
 10
10960.18611546663
 20
21119.66036111141
 10
9745.00778213329
 20
21119.66036111141
 10
9745.00778213329
 20
18146.23758333363
 10
10960.18611546663
 20
18146.23758333363
  0
LWPOLYLINE
  5
109
330
1F
100
AcDbEntity
  8
Offices
  6
Continuous
 62
     5
370
    18
100
AcDbPolyline
 90
        6
 70
     1
 43
0.0
 10
16946.01361546663
 20
18146.20230555585
 10
11010.17472657774
 20
18146.20230555585
 10
11010.17472657774
 20
18096.21369444474
 10
9745.007782133294
 20
18096.21369444474
 10
9745.007782133294
 20
15444.63008333364
 10
16946.01361546663
 20
15444.63008333364
  0
LWPOLYLINE
  5
10A
330
1F
100
AcDbEntity
  8
Offices
  6
Continuous
 62
     5
370
    18
100
AcDbPolyline
 90
        4
 70
     1
 43
0.0
 10
16946.01361546663
 20
15394.64147222252
 10
14003.10611546663
 20
15394.64147222252
 10
14003.10611546663
 20
12369.64258333364
 10
16946.01361546663
 20
12369.64258333364
  0
LWPOLYLINE
  5
10B
330
1F
100
AcDbEntity
  8
Offices
  6
Continuous
 62
     5
370
    18
100
AcDbPolyline
 90
        4
 70
     1
 43
0.0
 10
13953.11750435551
 20
12369.64258333364
 10
11010.21000435552
 20
12369.64258333364
 10
11010.21000435552
 20
15394.64147222252
 10
13953.11750435551
 20
15394.64147222252
  0
LWPOLYLINE
  5
10C
330
1F
100
AcDbEntity
  8
Offices
  6
Continuous
 62
     5
370
    18
100
AcDbPolyline
 90
        4
 70
     1
 43
0.0
 10
10960.18611546663
 20
15394.64147222252
 10
9745.00778213329
 20
15394.64147222252
 10
9745.00778213329
 20
12469.61980555586
 10
10960.18611546663
 20
12469.61980555586
  0
LWPOLYLINE
  5
10D
330
1F
100
AcDbEntity
  8
Meeting rooms
  6
Continuous
 62
     6
370
    18
100
AcDbPolyline
 90
        4
 70
     1
 43
0.0
 10
-79.95916231115352
 20
8619.650083333632
 10
4595.051948799958
 20
8619.650083333632
 10
4595.051948799958
 20
2169.108416666965
 10
-79.95916231115352
 20
2169.108416666965
  0
LWPOLYLINE
  5
10F
330
1F
100
AcDbEntity
  8
Meeting rooms
  6
Continuous
 62
     6
370
    18
100
AcDbPolyline
 90
        4
 70
     1
 43
0.0
 10
27270.02000435552
 20
8619.650083333632
 10
28993.48055991107
 20
8619.650083333632
 10
28993.48055991107
 20
6419.83369444474
 10
27270.02000435552
 20
6419.83369444474
  0
LWPOLYLINE
  5
110
330
1F
100
AcDbEntity
  8
Meeting rooms
  6
Continuous
 62
     6
370
    18
100
AcDbPolyline
 90
        4
 70
     1
 43
0.0
 10
29043.46917102218
 20
6419.763138889188
 10
30768.44667102218
 20
6419.763138889188
 10
30768.44667102218
 20
8619.579527778078
 10
29043.46917102218
 20
8619.579527778078
  0
LWPOLYLINE
  5
111
330
1F
100
AcDbEntity
  8
Meeting rooms
  6
Continuous
 62
     6
370
    18
100
AcDbPolyline
 90
        4
 70
     1
 43
0.0
 10
30818.50583768885
 20
8619.650083333632
 10
32170.06805991107
 20
8619.650083333632
 10
32170.06805991107
 20
6419.83369444474
 10
30818.50583768885
 20
6419.83369444474
  0
LWPOLYLINE
  5
112
330
1F
100
AcDbEntity
  8
Meeting rooms
  6
Continuous
 62
     6
370
    18
100
AcDbPolyline
 90
        4
 70
     1
 43
0.0
 10
32220.02139324441
 20
6419.763138889188
 10
33540.01000435552
 20
6419.763138889188
 10
33540.01000435552
 20
8619.579527778078
 10
32220.02139324441
 20
8619.579527778078
  0
LWPOLYLINE
  5
113
330
1F
100
AcDbEntity
  8
Meeting rooms
  6
Continuous
 62
     6
370
    18
100
AcDbPolyline
 90
        4
 70
     1
 43
0.0
 10
33589.99861546663
 20
8619.650083333632
 10
34900.0388932444
 20
8619.650083333632
 10
34900.0388932444
 20
6419.83369444474
 10
33589.99861546663
 20
6419.83369444474
  0
LWPOLYLINE
  5
114
330
1F
100
AcDbEntity
  8
Meeting rooms
  6
Continuous
 62
     6
370
    18
100
AcDbPolyline
 90
        4
 70
     1
 43
0.0
 10
34950.02750435551
 20
6419.763138889188
 10
36270.01611546663
 20
6419.763138889188
 10
36270.01611546663
 20
8619.579527778078
 10
34950.02750435551
 20
8619.579527778078
  0
LWPOLYLINE
  5
115
330
1F
100
AcDbEntity
  8
Meeting rooms
  6
Continuous
 62
     6
370
    18
100
AcDbPolyline
 90
        4
 70
     1
 43
0.0
 10
27270.02000435552
 20
6419.763138889188
 10
36270.01611546663
 20
6419.763138889188
 10
36270.01611546663
 20
2169.108416666965
 10
27270.02000435552
 20
2169.108416666965
  0
LWPOLYLINE
  5
116
330
1F
100
AcDbEntity
  8
Meeting rooms
  6
Continuous
 62
     6
370
    18
100
AcDbPolyline
 90
        4
 70
     1
 43
0.0
 10
27270.02000435552
 20
2169.108416666965
 10
28820.16083768885
 20
2169.108416666965
 10
28820.16083768885
 20
-130.3676944441463
 10
27270.02000435552
 20
-130.3676944441463
  0
LWPOLYLINE
  5
117
330
1F
100
AcDbEntity
  8
Meeting rooms
  6
Continuous
 62
     6
370
    18
100
AcDbPolyline
 90
        4
 70
     1
 43
0.0
 10
28870.18472657774
 20
-130.3676944441463
 10
30061.83278213329
 20
-130.3676944441463
 10
30061.83278213329
 20
2169.108416666965
 10
28870.18472657774
 20
2169.108416666965
  0
LWPOLYLINE
  5
118
330
1F
100
AcDbEntity
  8
Meeting rooms
  6
Continuous
 62
     6
370
    18
100
AcDbPolyline
 90
        4
 70
     1
 43
0.0
 10
30111.82139324441
 20
2169.108416666965
 10
31303.46944879996
 20
2169.108416666965
 10
31303.46944879996
 20
-130.3676944441463
 10
30111.82139324441
 20
-130.3676944441463
  0
LWPOLYLINE
  5
119
330
1F
100
AcDbEntity
  8
Meeting rooms
  6
Continuous
 62
     6
370
    18
100
AcDbPolyline
 90
        4
 70
     1
 43
0.0
 10
31353.45805991108
 20
-130.3676944441463
 10
32545.10611546663
 20
-130.3676944441463
 10
32545.10611546663
 20
2169.108416666965
 10
31353.45805991108
 20
2169.108416666965
  0
LWPOLYLINE
  5
11A
330
1F
100
AcDbEntity
  8
Meeting rooms
  6
Continuous
 62
     6
370
    18
100
AcDbPolyline
 90
        4
 70
     1
 43
0.0
 10
32595.05944879997
 20
2169.108416666965
 10
33786.70750435552
 20
2169.108416666965
 10
33786.70750435552
 20
-130.3676944441463
 10
32595.05944879997
 20
-130.3676944441463
  0
LWPOLYLINE
  5
11B
330
1F
100
AcDbEntity
  8
Meeting rooms
  6
Continuous
 62
     6
370
    18
100
AcDbPolyline
 90
        4
 70
     1
 43
0.0
 10
33836.73139324442
 20
-130.3676944441463
 10
35028.37944879996
 20
-130.3676944441463
 10
35028.37944879996
 20
2169.108416666965
 10
33836.73139324442
 20
2169.108416666965
  0
LWPOLYLINE
  5
11C
330
1F
100
AcDbEntity
  8
Meeting rooms
  6
Continuous
 62
     6
370
    18
100
AcDbPolyline
 90
        4
 70
     1
 43
0.0
 10
35078.33278213329
 20
2169.108416666965
 10
36269.98083768885
 20
2169.108416666965
 10
36269.98083768885
 20
-130.3676944441463
 10
35078.33278213329
 20
-130.3676944441463
  0
LWPOLYLINE
  5
11D
330
1F
100
AcDbEntity
  8
Meeting rooms
  6
Continuous
 62
     6
370
    18
100
AcDbPolyline
 90
        4
 70
     1
 43
0.0
 10
36370.02861546663
 20
-130.3676944441463
 10
39645.00583768885
 20
-130.3676944441463
 10
39645.00583768885
 20
8619.614805555855
 10
36370.02861546663
 20
8619.614805555855
  0
LWPOLYLINE
  5
11E
330
1F
100
AcDbEntity
  8
Meeting rooms
  6
Continuous
 62
     6
370
    18
100
AcDbPolyline
 90
        4
 70
     1
 43
0.0
 10
39694.99444879997
 20
8619.685361111415
 10
44594.93667102217
 20
8619.685361111415
 10
44594.93667102217
 20
-130.2971388885865
 10
39694.99444879997
 20
-130.2971388885865
  0
LWPOLYLINE
  5
11F
330
1F
100
AcDbEntity
  8
Meeting rooms
  6
Continuous
 62
     6
370
    18
100
AcDbPolyline
 90
        4
 70
     1
 43
0.0
 10
44744.97305991107
 20
-130.3676944441463
 10
49044.59333768884
 20
-130.3676944441463
 10
49044.59333768884
 20
8519.567027778074
 10
44744.97305991107
 20
8519.567027778074
  0
LWPOLYLINE
  5
120
330
1F
100
AcDbEntity
  8
Meeting rooms
  6
Continuous
 62
     6
370
    18
100
AcDbPolyline
 90
        4
 70
     1
 43
0.0
 10
49144.60583768885
 20
8519.637583333633
 10
50501.8477821333
 20
8519.637583333633
 10
50501.8477821333
 20
6469.822305555858
 10
49144.60583768885
 20
6469.822305555858
  0
LWPOLYLINE
  5
121
330
1F
100
AcDbEntity
  8
Meeting rooms
  6
Continuous
 62
     6
370
    18
100
AcDbPolyline
 90
        4
 70
     1
 43
0.0
 10
50551.8363932444
 20
6469.751750000299
 10
51909.07833768886
 20
6469.751750000299
 10
51909.07833768886
 20
8519.567027778074
 10
50551.8363932444
 20
8519.567027778074
  0
LWPOLYLINE
  5
122
330
1F
100
AcDbEntity
  8
Meeting rooms
  6
Continuous
 62
     6
370
    18
100
AcDbPolyline
 90
        4
 70
     1
 43
0.0
 10
51959.06694879996
 20
8519.637583333633
 10
53316.23833768885
 20
8519.637583333633
 10
53316.23833768885
 20
6469.822305555858
 10
51959.06694879996
 20
6469.822305555858
  0
LWPOLYLINE
  5
123
330
1F
100
AcDbEntity
  8
Meeting rooms
  6
Continuous
 62
     6
370
    18
100
AcDbPolyline
 90
        4
 70
     1
 43
0.0
 10
53316.20305991108
 20
6419.763138889188
 10
49144.64111546663
 20
6419.763138889188
 10
49144.64111546663
 20
3884.560916666963
 10
53316.20305991108
 20
3884.560916666963
  0
LWPOLYLINE
  5
124
330
1F
100
AcDbEntity
  8
Meeting rooms
  6
Continuous
 62
     6
370
    18
100
AcDbPolyline
 90
        4
 70
     1
 43
0.0
 10
49144.60583768885
 20
3834.572305555859
 10
53316.1677821333
 20
3834.572305555859
 10
53316.1677821333
 20
1569.668416666964
 10
49144.60583768885
 20
1569.668416666964
  0
LWPOLYLINE
  5
125
330
1F
100
AcDbEntity
  8
Meeting rooms
  6
Continuous
 62
     6
370
    18
100
AcDbPolyline
 90
        4
 70
     1
 43
0.0
 10
54016.25528213329
 20
8519.637583333633
 10
55373.46194879998
 20
8519.637583333633
 10
55373.46194879998
 20
6469.822305555858
 10
54016.25528213329
 20
6469.822305555858
  0
LWPOLYLINE
  5
126
330
1F
100
AcDbEntity
  8
Meeting rooms
  6
Continuous
 62
     6
370
    18
100
AcDbPolyline
 90
        4
 70
     1
 43
0.0
 10
55423.34472657774
 20
6469.751750000299
 10
56780.62194879997
 20
6469.751750000299
 10
56780.62194879997
 20
8519.567027778074
 10
55423.34472657774
 20
8519.567027778074
  0
LWPOLYLINE
  5
127
330
1F
100
AcDbEntity
  8
Meeting rooms
  6
Continuous
 62
     6
370
    18
100
AcDbPolyline
 90
        4
 70
     1
 43
0.0
 10
56830.61055991107
 20
8519.637583333633
 10
58187.78194879996
 20
8519.637583333633
 10
58187.78194879996
 20
6469.822305555858
 10
56830.61055991107
 20
6469.822305555858
  0
LWPOLYLINE
  5
128
330
1F
100
AcDbEntity
  8
Meeting rooms
  6
Continuous
 62
     6
370
    18
100
AcDbPolyline
 90
        4
 70
     1
 43
0.0
 10
58237.77055991108
 20
6469.751750000299
 10
59595.0477821333
 20
6469.751750000299
 10
59595.0477821333
 20
8519.567027778074
 10
58237.77055991108
 20
8519.567027778074
  0
LWPOLYLINE
  5
129
330
1F
100
AcDbEntity
  8
Meeting rooms
  6
Continuous
 62
     6
370
    18
100
AcDbPolyline
 90
        4
 70
     1
 43
0.0
 10
54016.25528213329
 20
6419.763138889188
 10
56780.58667102218
 20
6419.763138889188
 10
56780.58667102218
 20
5007.20563888919
 10
54016.25528213329
 20
5007.20563888919
  0
LWPOLYLINE
  5
12A
330
1F
100
AcDbEntity
  8
Meeting rooms
  6
Continuous
 62
     6
370
    18
100
AcDbPolyline
 90
        4
 70
     1
 43
0.0
 10
56830.54000435552
 20
5007.20563888919
 10
59594.97722657776
 20
5007.20563888919
 10
59594.97722657776
 20
6419.763138889188
 10
56830.54000435552
 20
6419.763138889188
  0
LWPOLYLINE
  5
12B
330
1F
100
AcDbEntity
  8
Meeting rooms
  6
Continuous
 62
     6
370
    18
100
AcDbPolyline
 90
        4
 70
     1
 43
0.0
 10
56830.54000435552
 20
4957.181750000302
 10
59594.97722657776
 20
4957.181750000302
 10
59594.97722657776
 20
3544.624250000304
 10
56830.54000435552
 20
3544.624250000304
  0
LWPOLYLINE
  5
12C
330
1F
100
AcDbEntity
  8
Meeting rooms
  6
Continuous
 62
     6
370
    18
100
AcDbPolyline
 90
        4
 70
     1
 43
0.0
 10
56780.58667102218
 20
3544.624250000304
 10
54016.25528213329
 20
3544.624250000304
 10
54016.25528213329
 20
4957.181750000302
 10
56780.58667102218
 20
4957.181750000302
  0
LWPOLYLINE
  5
12D
330
1F
100
AcDbEntity
  8
Meeting rooms
  6
Continuous
 62
     6
370
    18
100
AcDbPolyline
 90
        4
 70
     1
 43
0.0
 10
54016.25528213329
 20
3494.635638889193
 10
59595.04778213328
 20
3494.635638889193
 10
59595.04778213328
 20
-130.3676944441463
 10
54016.25528213329
 20
-130.3676944441463
  0
LWPOLYLINE
  5
12E
330
1F
100
AcDbEntity
  8
Meeting rooms
  6
Continuous
 62
     6
370
    18
100
AcDbPolyline
 90
        4
 70
     1
 43
0.0
 10
59745.04889324441
 20
1519.679805555853
 10
64420.06000435553
 20
1519.679805555853
 10
64420.06000435553
 20
-130.2971388885865
 10
59745.04889324441
 20
-130.2971388885865
  0
LWPOLYLINE
  5
12F
330
1F
100
AcDbEntity
  8
Meeting rooms
  6
Continuous
 62
     6
370
    18
100
AcDbPolyline
 90
        4
 70
     1
 43
0.0
 10
60394.93611546664
 20
6469.822305555858
 10
61703.35361546663
 20
6469.822305555858
 10
61703.35361546663
 20
8519.602305555856
 10
60394.93611546664
 20
8519.602305555856
  0
LWPOLYLINE
  5
130
330
1F
100
AcDbEntity
  8
Meeting rooms
  6
Continuous
 62
     6
370
    18
100
AcDbPolyline
 90
        4
 70
     1
 43
0.0
 10
49144.60583768885
 20
1520.173694444743
 10
53966.30194879996
 20
1520.173694444743
 10
53966.30194879996
 20
-130.3324166663629
 10
49144.60583768885
 20
-130.3324166663629
  0
LWPOLYLINE
  5
131
330
1F
100
AcDbEntity
  8
Meeting rooms
  6
Continuous
 62
     6
370
    18
100
AcDbPolyline
 90
        4
 70
     1
 43
0.0
 10
4745.017782133292
 20
2969.137861111413
 10
5819.825837688847
 20
2969.137861111413
 10
5819.825837688847
 20
7719.643416666969
 10
4745.017782133292
 20
7719.643416666969
  0
LWPOLYLINE
  5
132
330
1F
100
AcDbEntity
  8
Meeting rooms
  6
Continuous
 62
     6
370
    18
100
AcDbPolyline
 90
       12
 70
     1
 43
0.0
 10
4745.000143244402
 20
8619.635972222519
 10
8267.697921022182
 20
8619.635972222519
 10
8267.697921022182
 20
7769.58263888919
 10
6467.719865466625
 20
7769.58263888919
 10
6467.719865466625
 20
2919.064583333629
 10
8267.697921022182
 20
2919.064583333629
 10
8267.697921022182
 20
2169.059027778076
 10
4745.000143244402
 20
2169.059027778076
 10
4745.000143244402
 20
2919.064583333629
 10
5869.796809911069
 20
2919.064583333629
 10
5869.796809911069
 20
7769.58263888919
 10
4745.000143244402
 20
7769.58263888919
  0
LWPOLYLINE
  5
133
330
1F
100
AcDbEntity
  8
Meeting rooms
  6
Continuous
 62
     6
370
    18
100
AcDbPolyline
 90
        4
 70
     1
 43
0.0
 10
11267.73778213329
 20
2169.108416666965
 10
12017.74333768885
 20
2169.108416666965
 10
12017.74333768885
 20
8519.637583333633
 10
11267.73778213329
 20
8519.637583333633
  0
LWPOLYLINE
  5
134
330
1F
100
AcDbEntity
  8
Meeting rooms
  6
Continuous
 62
     6
370
    18
100
AcDbPolyline
 90
        8
 70
     1
 43
0.0
 10
12067.70725435552
 20
8519.627000000299
 10
14595.00725435551
 20
8519.627000000299
 10
14595.00725435551
 20
2169.062555555854
 10
12067.70725435552
 20
2169.062555555854
 10
12067.70725435552
 20
2844.667277778079
 10
12017.7186432444
 20
2844.667277778079
 10
12017.7186432444
 20
7844.128111111409
 10
12067.70725435552
 20
7844.128111111409
  0
LWPOLYLINE
  5
135
330
1F
100
AcDbEntity
  8
Supermarket
  6
Continuous
 62
     3
370
    18
100
AcDbPolyline
 90
        8
 70
     1
 43
0.0
 10
54595.99969879996
 20
21119.63213888918
 10
20544.97136546663
 20
21119.63213888918
 10
20544.97136546663
 20
12369.64963888919
 10
42195.11997657775
 20
12369.64963888919
 10
42195.11997657775
 20
13769.33075000029
 10
44745.0330321333
 20
13769.33075000029
 10
44745.0330321333
 20
12369.64963888919
 10
54595.99969879996
 20
12369.64963888919
  0
LWPOLYLINE
  5
137
330
1F
100
AcDbEntity
  8
Coffee
  6
Continuous
 62
     2
370
    18
100
AcDbPolyline
 90
        4
 70
     1
 43
0.0
 10
9595.00667102218
 20
12469.61980555586
 10
8045.006948799956
 20
12469.61980555586
 10
8045.006948799956
 20
15394.64147222252
 10
9595.00667102218
 20
15394.64147222252
  0
LWPOLYLINE
  5
139
330
1F
100
AcDbEntity
  8
Coffee
  6
Continuous
 62
     2
370
    18
100
AcDbPolyline
 90
        4
 70
     1
 43
0.0
 10
7995.018337688847
 20
15394.64147222252
 10
7091.695559911069
 20
15394.64147222252
 10
7091.695559911069
 20
13894.59508333363
 10
7995.018337688847
 20
13894.59508333363
  0
LWPOLYLINE
  5
13A
330
1F
100
AcDbEntity
  8
Coffee
  6
Continuous
 62
     2
370
    18
100
AcDbPolyline
 90
        4
 70
     1
 43
0.0
 10
7995.018337688847
 20
13844.6417500003
 10
5320.010282133291
 20
13844.6417500003
 10
5320.010282133291
 20
12469.61980555586
 10
7995.018337688847
 20
12469.61980555586
  0
LWPOLYLINE
  5
13B
330
1F
100
AcDbEntity
  8
Coffee
  6
Continuous
 62
     2
370
    18
100
AcDbPolyline
 90
        4
 70
     1
 43
0.0
 10
7041.706948799959
 20
13894.63036111141
 10
5320.010282133294
 20
13894.63036111141
 10
5320.010282133294
 20
15394.6767500003
 10
7041.706948799959
 20
15394.6767500003
  0
LWPOLYLINE
  5
13C
330
1F
100
AcDbEntity
  8
Coffee
  6
Continuous
 62
     2
370
    18
100
AcDbPolyline
 90
        4
 70
     1
 43
0.0
 10
7995.018337688847
 20
15444.63008333364
 10
5320.010282133291
 20
15444.63008333364
 10
5320.010282133291
 20
16844.62869444474
 10
7995.018337688847
 20
16844.62869444474
  0
LWPOLYLINE
  5
13D
330
1F
100
AcDbEntity
  8
Coffee
  6
Continuous
 62
     2
370
    18
100
AcDbPolyline
 90
        4
 70
     1
 43
0.0
 10
9595.00667102218
 20
15444.63008333364
 10
8045.006948799956
 20
15444.63008333364
 10
8045.006948799956
 20
21119.62508333363
 10
9595.00667102218
 20
21119.62508333363
  0
LWPOLYLINE
  5
13E
330
1F
100
AcDbEntity
  8
Coffee
  6
Continuous
 62
     2
370
    18
100
AcDbPolyline
 90
        4
 70
     1
 43
0.0
 10
7995.018337688847
 20
21119.66036111141
 10
6682.508615466626
 20
21119.66036111141
 10
6682.508615466626
 20
18894.65563888919
 10
7995.018337688847
 20
18894.65563888919
  0
LWPOLYLINE
  5
13F
330
1F
100
AcDbEntity
  8
Coffee
  6
Continuous
 62
     2
370
    18
100
AcDbPolyline
 90
        4
 70
     1
 43
0.0
 10
6632.555282133294
 20
18894.62036111141
 10
5320.04555991107
 20
18894.62036111141
 10
5320.04555991107
 20
21119.62508333363
 10
6632.555282133294
 20
21119.62508333363
  0
LWPOLYLINE
  5
140
330
1F
100
AcDbEntity
  8
Coffee
  6
Continuous
 62
     2
370
    18
100
AcDbPolyline
 90
        4
 70
     1
 43
0.0
 10
7995.018337688847
 20
18844.6317500003
 10
5320.010282133291
 20
18844.6317500003
 10
5320.010282133291
 20
16894.65258333363
 10
7995.018337688847
 20
16894.65258333363
  0
LWPOLYLINE
  5
141
330
1F
100
AcDbEntity
  8
Coffee
  6
Continuous
 62
     2
370
    18
100
AcDbPolyline
 90
        4
 70
     1
 43
0.0
 10
5270.056948799959
 20
21119.66036111141
 10
4670.052504355514
 20
21119.66036111141
 10
4670.052504355514
 20
12369.67786111141
 10
5270.056948799959
 20
12369.67786111141
  0
LWPOLYLINE
  5
142
330
1F
100
AcDbEntity
  8
Coffee
  6
Continuous
 62
     2
370
    18
100
AcDbPolyline
 90
        4
 70
     1
 43
0.0
 10
4620.028615466625
 20
12369.64258333364
 10
2865.311948799958
 20
12369.64258333364
 10
2865.311948799958
 20
13727.13147222252
 10
4620.028615466625
 20
13727.13147222252
  0
LWPOLYLINE
  5
143
330
1F
100
AcDbEntity
  8
Coffee
  6
Continuous
 62
     2
370
    18
100
AcDbPolyline
 90
        4
 70
     1
 43
0.0
 10
2865.311948799958
 20
13777.15536111141
 10
4670.052504355514
 20
13777.15536111141
 10
4670.052504355514
 20
15034.66702777808
 10
2865.311948799958
 20
15034.66702777808
  0
LWPOLYLINE
  5
144
330
1F
100
AcDbEntity
  8
Coffee
  6
Continuous
 62
     2
370
    18
100
AcDbPolyline
 90
        6
 70
     1
 43
0.0
 10
4620.014504355513
 20
15084.65211111141
 10
2815.273948799957
 20
15084.65211111141
 10
2815.273948799957
 20
15584.64405555586
 10
3115.27617102218
 20
15584.64405555586
 10
3115.27617102218
 20
17449.63905555585
 10
4620.014504355513
 20
17449.63905555585
  0
LWPOLYLINE
  5
145
330
1F
100
AcDbEntity
  8
Coffee
  6
Continuous
 62
     2
370
    18
100
AcDbPolyline
 90
       10
 70
     1
 43
0.0
 10
-79.9909123111533
 20
21119.97433333363
 10
4620.032143244403
 20
21119.97433333363
 10
4620.032143244403
 20
17749.64127777808
 10
2815.256309911069
 20
17749.64127777808
 10
2815.256309911069
 20
12369.63905555585
 10
-79.9909123111533
 20
12369.63905555585
 10
-79.9909123111533
 20
18519.75516666696
 10
147.3038099110688
 20
18423.94072222252
 10
148.9618654666245
 20
19936.51072222252
 10
-79.9909123111533
 20
20058.4660000003
  0
LWPOLYLINE
  5
146
330
1F
100
AcDbEntity
  8
Entrance
  6
Continuous
 62
   194
370
    18
100
AcDbPolyline
 90
        4
 70
     1
 43
0.0
 10
-129.986578977821
 20
12028.72872222252
 10
-79.97680120004702
 20
12028.72872222252
 10
-79.97680120004702
 20
8961.07194444474
 10
-129.986578977821
 20
8961.07194444474
  0
ENDSEC
  0
SECTION
  2
OBJECTS
  0
DICTIONARY
  5
C
330
0
100
AcDbDictionary
281
     1
  3
ACAD_DETAILVIEWSTYLE
350
155
  3
ACAD_GROUP
350
D
  3
ACAD_LAYOUT
350
1A
  3
ACAD_MATERIAL
350
43
  3
ACAD_MLEADERSTYLE
350
6B
  3
ACAD_MLINESTYLE
350
17
  3
ACAD_PLOTSETTINGS
350
19
  3
ACAD_PLOTSTYLENAME
350
E
  3
ACAD_SCALELIST
350
47
  3
ACAD_SECTIONVIEWSTYLE
350
156
  3
ACAD_TABLESTYLE
350
69
  3
ACAD_VISUALSTYLE
350
2A
  3
AcDbVariableDictionary
350
14D
  3
ACDB_RECOMPOSE_DATA
350
151
  3
WATERMARKS
350
14B
  0
SUN
  5
6D
330
29
100
AcDbSun
 90
        1
290
     0
 63
     7
421
 16777215
 40
1.0
291
     1
 91
  2455826
 92
 54000000
292
     0
 70
     2
 71
   256
280
     1
  0
DICTIONARY
  5
155
102
{ACAD_REACTORS
330
C
102
}
330
C
100
AcDbDictionary
281
     1
  0
DICTIONARY
  5
D
102
{ACAD_REACTORS
330
C
102
}
330
C
100
AcDbDictionary
281
     1
  0
DICTIONARY
  5
1A
102
{ACAD_REACTORS
330
C
102
}
330
C
100
AcDbDictionary
281
     1
  3
Layout1
350
1E
  3
Layout2
350
26
  3
Model
350
22
  0
DICTIONARY
  5
43
102
{ACAD_REACTORS
330
C
102
}
330
C
100
AcDbDictionary
281
     1
  3
ByBlock
350
45
  3
ByLayer
350
44
  3
Global
350
46
  0
DICTIONARY
  5
6B
102
{ACAD_REACTORS
330
C
102
}
330
C
100
AcDbDictionary
281
     1
  3
Standard
350
6C
  0
DICTIONARY
  5
17
102
{ACAD_REACTORS
330
C
102
}
330
C
100
AcDbDictionary
281
     1
  3
Standard
350
18
  0
DICTIONARY
  5
19
102
{ACAD_REACTORS
330
C
102
}
330
C
100
AcDbDictionary
281
     1
  0
ACDBDICTIONARYWDFLT
  5
E
102
{ACAD_REACTORS
330
C
102
}
330
C
100
AcDbDictionary
281
     1
  3
Normal
350
F
100
AcDbDictionaryWithDefault
340
F
  0
DICTIONARY
  5
47
102
{ACAD_REACTORS
330
C
102
}
330
C
100
AcDbDictionary
281
     1
  3
A0
350
48
  3
A1
350
49
  3
A2
350
4A
  3
A3
350
4B
  3
A4
350
4C
  3
A5
350
4D
  3
A6
350
4E
  3
A7
350
4F
  3
A8
350
50
  3
A9
350
51
  3
B0
350
52
  3
B1
350
53
  3
B2
350
54
  3
B3
350
55
  3
B4
350
56
  3
B5
350
57
  3
B6
350
58
  3
B7
350
59
  3
B8
350
5A
  3
B9
350
5B
  3
C0
350
5C
  3
C1
350
5D
  3
C2
350
5E
  3
C3
350
5F
  3
C4
350
60
  3
C5
350
61
  3
C6
350
62
  3
C7
350
63
  3
C8
350
64
  3
C9
350
65
  3
D0
350
66
  3
D1
350
67
  3
D2
350
68
  0
DICTIONARY
  5
156
102
{ACAD_REACTORS
330
C
102
}
330
C
100
AcDbDictionary
281
     1
  0
DICTIONARY
  5
69
102
{ACAD_REACTORS
330
C
102
}
330
C
100
AcDbDictionary
281
     1
  3
Standard
350
6A
  0
DICTIONARY
  5
2A
102
{ACAD_REACTORS
330
C
102
}
330
C
100
AcDbDictionary
281
     1
  3
2dWireframe
350
2F
  3
Basic
350
32
  3
Brighten
350
36
  3
ColorChange
350
3A
  3
Conceptual
350
34
  3
Dim
350
35
  3
EdgeColorOff
350
3D
  3
Facepattern
350
39
  3
Flat
350
2B
  3
FlatWithEdges
350
2C
  3
Gouraud
350
2D
  3
GouraudWithEdges
350
2E
  3
Hidden
350
31
  3
JitterOff
350
3B
  3
Linepattern
350
38
  3
OverhangOff
350
3C
  3
Realistic
350
33
  3
Shaded
350
42
  3
Shaded with edges
350
41
  3
Shades of Gray
350
3E
  3
Sketchy
350
3F
  3
Thicken
350
37
  3
Wireframe
350
30
  3
X-Ray
350
40
  0
DICTIONARY
  5
14D
102
{ACAD_REACTORS
330
C
102
}
330
C
100
AcDbDictionary
281
     1
  3
CANNOSCALE
350
14E
  3
CMLEADERSTYLE
350
153
  3
CTABLESTYLE
350
152
  3
XCLIPFRAME
350
154
  0
XRECORD
  5
151
102
{ACAD_REACTORS
330
C
102
}
330
C
100
AcDbXrecord
280
     1
 90
        1
330
6A
  0
DICTIONARY
  5
14B
102
{ACAD_REACTORS
330
C
102
}
330
C
100
AcDbDictionary
281
     1
  3
AC_WATERMARK
350
14C
  0
LAYOUT
  5
1E
102
{ACAD_REACTORS
330
1A
102
}
330
1A
100
AcDbPlotSettings
  1

  2
none_device
  4

  6

 40
0.0
 41
0.0
 42
0.0
 43
0.0
 44
0.0
 45
0.0
 46
0.0
 47
0.0
 48
0.0
 49
0.0
140
0.0
141
0.0
142
1.0
143
1.0
 70
   688
 72
     0
 73
     0
 74
     5
  7

 75
    16
 76
     0
 77
     2
 78
   300
147
1.0
148
0.0
149
0.0
100
AcDbLayout
  1
Layout1
 70
     1
 71
     1
 10
0.0
 20
0.0
 11
12.0
 21
9.0
 12
0.0
 22
0.0
 32
0.0
 14
1.000000000000000E+20
 24
1.000000000000000E+20
 34
1.000000000000000E+20
 15
-1.000000000000000E+20
 25
-1.000000000000000E+20
 35
-1.000000000000000E+20
146
0.0
 13
0.0
 23
0.0
 33
0.0
 16
1.0
 26
0.0
 36
0.0
 17
0.0
 27
1.0
 37
0.0
 76
     0
330
1B
  0
LAYOUT
  5
26
102
{ACAD_REACTORS
330
1A
102
}
330
1A
100
AcDbPlotSettings
  1

  2
none_device
  4

  6

 40
0.0
 41
0.0
 42
0.0
 43
0.0
 44
0.0
 45
0.0
 46
0.0
 47
0.0
 48
0.0
 49
0.0
140
0.0
141
0.0
142
1.0
143
1.0
 70
   688
 72
     0
 73
     0
 74
     5
  7

 75
    16
 76
     0
 77
     2
 78
   300
147
1.0
148
0.0
149
0.0
100
AcDbLayout
  1
Layout2
 70
     1
 71
     2
 10
0.0
 20
0.0
 11
0.0
 21
0.0
 12
0.0
 22
0.0
 32
0.0
 14
0.0
 24
0.0
 34
0.0
 15
0.0
 25
0.0
 35
0.0
146
0.0
 13
0.0
 23
0.0
 33
0.0
 16
1.0
 26
0.0
 36
0.0
 17
0.0
 27
1.0
 37
0.0
 76
     0
330
23
  0
LAYOUT
  5
22
102
{ACAD_REACTORS
330
1A
102
}
330
1A
100
AcDbPlotSettings
  1

  2
none_device
  4
Letter_(8.50_x_11.00_Inches)
  6

 40
6.35
 41
6.35
 42
6.35000508
 43
6.35000508
 44
215.9
 45
279.4
 46
0.0
 47
0.0
 48
0.0
 49
0.0
140
0.0
141
0.0
142
1.0
143
1.0
 70
  1712
 72
     0
 73
     0
 74
     0
  7

 75
     0
 76
     0
 77
     2
 78
   300
147
1.0
148
0.0
149
0.0
100
AcDbLayout
  1
Model
 70
     1
 71
     0
 10
-130.0006900889343
 20
-380.0214722219266
 11
70070.01130991107
 21
21369.99852777808
 12
0.0
 22
0.0
 32
0.0
 14
-130.0006900889343
 24
-380.0214722219266
 34
0.0
 15
70070.01130991107
 25
21369.99852777808
 35
0.0
146
0.0
 13
0.0
 23
0.0
 33
0.0
 16
1.0
 26
0.0
 36
0.0
 17
0.0
 27
1.0
 37
0.0
 76
     0
330
1F
331
29
  0
MATERIAL
  5
45
102
{ACAD_REACTORS
330
43
102
}
330
43
100
AcDbMaterial
  1
ByBlock
 72
     1
 94
      127
  0
MATERIAL
  5
44
102
{ACAD_REACTORS
330
43
102
}
330
43
100
AcDbMaterial
  1
ByLayer
 72
     1
 94
      127
  0
MATERIAL
  5
46
102
{ACAD_REACTORS
330
43
102
}
330
43
100
AcDbMaterial
  1
Global
 72
     1
 94
      127
  0
MLEADERSTYLE
  5
6C
102
{ACAD_REACTORS
330
6B
102
}
330
6B
100
AcDbMLeaderStyle
179
     2
170
     2
171
     1
172
     0
 90
        2
 40
0.0
 41
0.0
173
     1
 91
-1056964608
340
14
 92
       -2
290
     1
 42
0.09
291
     1
 43
0.36
  3
Standard
341
0
 44
0.18
300

342
11
174
     1
178
     6
175
     1
176
     0
 93
-1056964608
 45
0.18
292
     0
297
     0
 46
0.18
343
0
 94
-1056964608
 47
1.0
 49
1.0
140
1.0
293
     1
141
0.0
294
     1
177
     0
142
1.0
295
     0
296
     0
143
0.125
271
     0
272
     9
273
     9
298
     0
  0
MLINESTYLE
  5
18
102
{ACAD_REACTORS
330
17
102
}
330
17
100
AcDbMlineStyle
  2
Standard
 70
     0
  3

 62
   256
 51
90.0
 52
90.0
 71
     2
 49
0.5
 62
   256
  6
BYLAYER
 49
-0.5
 62
   256
  6
BYLAYER
  0
ACDBPLACEHOLDER
  5
F
102
{ACAD_REACTORS
330
E
102
}
330
E
  0
SCALE
  5
48
102
{ACAD_REACTORS
330
47
102
}
330
47
100
AcDbScale
 70
     0
300
1:1
140
1.0
141
1.0
290
     1
  0
SCALE
  5
49
102
{ACAD_REACTORS
330
47
102
}
330
47
100
AcDbScale
 70
     0
300
1:2
140
1.0
141
2.0
290
     0
  0
SCALE
  5
4A
102
{ACAD_REACTORS
330
47
102
}
330
47
100
AcDbScale
 70
     0
300
1:4
140
1.0
141
4.0
290
     0
  0
SCALE
  5
4B
102
{ACAD_REACTORS
330
47
102
}
330
47
100
AcDbScale
 70
     0
300
1:5
140
1.0
141
5.0
290
     0
  0
SCALE
  5
4C
102
{ACAD_REACTORS
330
47
102
}
330
47
100
AcDbScale
 70
     0
300
1:8
140
1.0
141
8.0
290
     0
  0
SCALE
  5
4D
102
{ACAD_REACTORS
330
47
102
}
330
47
100
AcDbScale
 70
     0
300
1:10
140
1.0
141
10.0
290
     0
  0
SCALE
  5
4E
102
{ACAD_REACTORS
330
47
102
}
330
47
100
AcDbScale
 70
     0
300
1:16
140
1.0
141
16.0
290
     0
  0
SCALE
  5
4F
102
{ACAD_REACTORS
330
47
102
}
330
47
100
AcDbScale
 70
     0
300
1:20
140
1.0
141
20.0
290
     0
  0
SCALE
  5
50
102
{ACAD_REACTORS
330
47
102
}
330
47
100
AcDbScale
 70
     0
300
1:30
140
1.0
141
30.0
290
     0
  0
SCALE
  5
51
102
{ACAD_REACTORS
330
47
102
}
330
47
100
AcDbScale
 70
     0
300
1:40
140
1.0
141
40.0
290
     0
  0
SCALE
  5
52
102
{ACAD_REACTORS
330
47
102
}
330
47
100
AcDbScale
 70
     0
300
1:50
140
1.0
141
50.0
290
     0
  0
SCALE
  5
53
102
{ACAD_REACTORS
330
47
102
}
330
47
100
AcDbScale
 70
     0
300
1:100
140
1.0
141
100.0
290
     0
  0
SCALE
  5
54
102
{ACAD_REACTORS
330
47
102
}
330
47
100
AcDbScale
 70
     0
300
2:1
140
2.0
141
1.0
290
     0
  0
SCALE
  5
55
102
{ACAD_REACTORS
330
47
102
}
330
47
100
AcDbScale
 70
     0
300
4:1
140
4.0
141
1.0
290
     0
  0
SCALE
  5
56
102
{ACAD_REACTORS
330
47
102
}
330
47
100
AcDbScale
 70
     0
300
8:1
140
8.0
141
1.0
290
     0
  0
SCALE
  5
57
102
{ACAD_REACTORS
330
47
102
}
330
47
100
AcDbScale
 70
     0
300
10:1
140
10.0
141
1.0
290
     0
  0
SCALE
  5
58
102
{ACAD_REACTORS
330
47
102
}
330
47
100
AcDbScale
 70
     0
300
100:1
140
100.0
141
1.0
290
     0
  0
SCALE
  5
59
102
{ACAD_REACTORS
330
47
102
}
330
47
100
AcDbScale
 70
     0
300
1/128" = 1'-0"
140
0.0078125
141
12.0
290
     0
  0
SCALE
  5
5A
102
{ACAD_REACTORS
330
47
102
}
330
47
100
AcDbScale
 70
     0
300
1/64" = 1'-0"
140
0.015625
141
12.0
290
     0
  0
SCALE
  5
5B
102
{ACAD_REACTORS
330
47
102
}
330
47
100
AcDbScale
 70
     0
300
1/32" = 1'-0"
140
0.03125
141
12.0
290
     0
  0
SCALE
  5
5C
102
{ACAD_REACTORS
330
47
102
}
330
47
100
AcDbScale
 70
     0
300
1/16" = 1'-0"
140
0.0625
141
12.0
290
     0
  0
SCALE
  5
5D
102
{ACAD_REACTORS
330
47
102
}
330
47
100
AcDbScale
 70
     0
300
3/32" = 1'-0"
140
0.09375
141
12.0
290
     0
  0
SCALE
  5
5E
102
{ACAD_REACTORS
330
47
102
}
330
47
100
AcDbScale
 70
     0
300
1/8" = 1'-0"
140
0.125
141
12.0
290
     0
  0
SCALE
  5
5F
102
{ACAD_REACTORS
330
47
102
}
330
47
100
AcDbScale
 70
     0
300
3/16" = 1'-0"
140
0.1875
141
12.0
290
     0
  0
SCALE
  5
60
102
{ACAD_REACTORS
330
47
102
}
330
47
100
AcDbScale
 70
     0
300
1/4" = 1'-0"
140
0.25
141
12.0
290
     0
  0
SCALE
  5
61
102
{ACAD_REACTORS
330
47
102
}
330
47
100
AcDbScale
 70
     0
300
3/8" = 1'-0"
140
0.375
141
12.0
290
     0
  0
SCALE
  5
62
102
{ACAD_REACTORS
330
47
102
}
330
47
100
AcDbScale
 70
     0
300
1/2" = 1'-0"
140
0.5
141
12.0
290
     0
  0
SCALE
  5
63
102
{ACAD_REACTORS
330
47
102
}
330
47
100
AcDbScale
 70
     0
300
3/4" = 1'-0"
140
0.75
141
12.0
290
     0
  0
SCALE
  5
64
102
{ACAD_REACTORS
330
47
102
}
330
47
100
AcDbScale
 70
     0
300
1" = 1'-0"
140
1.0
141
12.0
290
     0
  0
SCALE
  5
65
102
{ACAD_REACTORS
330
47
102
}
330
47
100
AcDbScale
 70
     0
300
1-1/2" = 1'-0"
140
1.5
141
12.0
290
     0
  0
SCALE
  5
66
102
{ACAD_REACTORS
330
47
102
}
330
47
100
AcDbScale
 70
     0
300
3" = 1'-0"
140
3.0
141
12.0
290
     0
  0
SCALE
  5
67
102
{ACAD_REACTORS
330
47
102
}
330
47
100
AcDbScale
 70
     0
300
6" = 1'-0"
140
6.0
141
12.0
290
     0
  0
SCALE
  5
68
102
{ACAD_REACTORS
330
47
102
}
330
47
100
AcDbScale
 70
     0
300
1'-0" = 1'-0"
140
12.0
141
12.0
290
     0
  0
TABLESTYLE
  5
6A
102
{ACAD_REACTORS
330
69
102
}
102
{ACAD_XDICTIONARY
360
14F
102
}
330
69
100
AcDbTableStyle
  3
Standard
 70
     0
 71
     0
 40
0.06
 41
0.06
280
     0
281
     0
  7
Standard
140
0.18
170
     2
 62
     0
 63
   257
283
     0
 90
        4
 91
        0
  1

274
    -2
284
     1
 64
     0
275
    -2
285
     1
 65
     0
276
    -2
286
     1
 66
     0
277
    -2
287
     1
 67
     0
278
    -2
288
     1
 68
     0
279
    -2
289
     1
 69
     0
  7
Standard
140
0.25
170
     5
 62
     0
 63
   257
283
     0
 90
        4
 91
        0
  1

274
    -2
284
     1
 64
     0
275
    -2
285
     1
 65
     0
276
    -2
286
     1
 66
     0
277
    -2
287
     1
 67
     0
278
    -2
288
     1
 68
     0
279
    -2
289
     1
 69
     0
  7
Standard
140
0.18
170
     5
 62
     0
 63
   257
283
     0
 90
        4
 91
        0
  1

274
    -2
284
     1
 64
     0
275
    -2
285
     1
 65
     0
276
    -2
286
     1
 66
     0
277
    -2
287
     1
 67
     0
278
    -2
288
     1
 68
     0
279
    -2
289
     1
 69
     0
  0
VISUALSTYLE
  5
2F
102
{ACAD_REACTORS
330
2A
102
}
330
2A
100
AcDbVisualStyle
  2
2dWireframe
 70
     4
177
     3
291
     0
 70
    58
 90
        0
176
     1
 90
        2
176
     1
 90
        0
176
     1
 90
        0
176
     1
 40
0.6
176
     1
 40
30.0
176
     1
 62
     7
420
 16777215
176
     1
 90
        1
176
     1
 90
        4
176
     1
 62
     7
176
     1
 62
   257
176
     1
 90
        1
176
     1
 90
        1
176
     1
 40
1.0
176
     1
 90
        0
176
     1
 62
   257
176
     1
 40
1.0
176
     1
 90
        1
176
     1
 90
        6
176
     1
 90
        2
176
     1
 62
     7
176
     1
 90
        5
176
     1
 90
        0
176
     1
 90
        0
176
     1
290
     0
176
     1
 90
        1
176
     1
 40
0.0
176
     1
 90
        0
176
     1
290
     1
176
     1
290
     1
176
     1
290
     0
176
     1
290
     0
176
     1
290
     0
176
     1
290
     0
176
     1
290
     0
176
     1
290
     0
176
     1
290
     0
176
     1
 90
       50
176
     1
 40
0.0
176
     1
 40
1.0
176
     1
 90
        0
176
     1
 62
   178
420
        0
176
     1
 90
       50
176
     1
 90
        3
176
     1
 62
     5
420
      255
176
     1
290
     0
176
     1
 90
       50
176
     1
 90
       50
176
     1
 90
       50
176
     1
290
     0
176
     1
 90
       50
176
     1
 62
   256
176
     0
 40
1.0
176
     0
 90
        2
176
     1
  1
strokes_ogs.tif
176
     1
290
     0
176
     1
 40
1.0
176
     1
 40
1.0
176
     1
  0
VISUALSTYLE
  5
32
102
{ACAD_REACTORS
330
2A
102
}
330
2A
100
AcDbVisualStyle
  2
Basic
 70
     7
177
     3
291
     1
 70
    58
 90
        1
176
     1
 90
        0
176
     1
 90
        1
176
     1
 90
        0
176
     1
 40
0.6
176
     1
 40
30.0
176
     1
 62
     7
420
 16777215
176
     1
 90
        0
176
     1
 90
        4
176
     1
 62
     7
176
     1
 62
   257
176
     1
 90
        1
176
     1
 90
        1
176
     1
 40
1.0
176
     1
 90
        8
176
     1
 62
     7
176
     1
 40
1.0
176
     1
 90
        1
176
     1
 90
        6
176
     1
 90
        2
176
     1
 62
     7
176
     1
 90
        5
176
     1
 90
        0
176
     1
 90
        0
176
     1
290
     0
176
     1
 90
        1
176
     1
 40
0.0
176
     1
 90
        0
176
     1
290
     0
176
     1
290
     1
176
     1
290
     1
176
     1
290
     0
176
     1
290
     0
176
     1
290
     0
176
     1
290
     0
176
     1
290
     0
176
     1
290
     0
176
     1
 90
       50
176
     1
 40
0.0
176
     1
 40
1.0
176
     1
 90
        0
176
     1
 62
   178
420
        0
176
     1
 90
       50
176
     1
 90
        3
176
     1
 62
     5
420
      255
176
     1
290
     0
176
     1
 90
       50
176
     1
 90
       50
176
     1
 90
       50
176
     1
290
     0
176
     1
 90
       50
176
     1
 62
   256
176
     0
 40
1.0
176
     0
 90
        2
176
     1
  1
strokes_ogs.tif
176
     1
290
     0
176
     1
 40
1.0
176
     1
 40
1.0
176
     1
  0
VISUALSTYLE
  5
36
102
{ACAD_REACTORS
330
2A
102
}
330
2A
100
AcDbVisualStyle
  2
Brighten
 70
    12
177
     3
291
     1
 70
    58
 90
        2
176
     1
 90
        2
176
     1
 90
        0
176
     1
 90
        0
176
     1
 40
0.6
176
     1
 40
30.0
176
     1
 62
     7
420
 16777215
176
     1
 90
        1
176
     1
 90
        4
176
     1
 62
     7
176
     1
 62
   257
176
     1
 90
        1
176
     1
 90
        1
176
     1
 40
1.0
176
     1
 90
        8
176
     1
 62
     7
176
     1
 40
1.0
176
     1
 90
        1
176
     1
 90
        6
176
     1
 90
        2
176
     1
 62
     7
176
     1
 90
        5
176
     1
 90
        0
176
     1
 90
        0
176
     1
290
     0
176
     1
 90
        1
176
     1
 40
50.0
176
     1
 90
        0
176
     1
290
     0
176
     1
290
     1
176
     1
290
     1
176
     1
290
     0
176
     1
290
     0
176
     1
290
     0
176
     1
290
     0
176
     1
290
     0
176
     1
290
     0
176
     1
 90
       50
176
     1
 40
0.0
176
     1
 40
1.0
176
     1
 90
        0
176
     1
 62
   178
420
        0
176
     1
 90
       50
176
     1
 90
        3
176
     1
 62
     5
420
      255
176
     1
290
     0
176
     1
 90
       50
176
     1
 90
       50
176
     1
 90
       50
176
     1
290
     0
176
     1
 90
       50
176
     1
 62
   256
176
     0
 40
1.0
176
     0
 90
        2
176
     1
  1
strokes_ogs.tif
176
     1
290
     0
176
     1
 40
1.0
176
     1
 40
1.0
176
     1
  0
VISUALSTYLE
  5
3A
102
{ACAD_REACTORS
330
2A
102
}
330
2A
100
AcDbVisualStyle
  2
ColorChange
 70
    16
177
     3
291
     1
 70
    58
 90
        2
176
     1
 90
        2
176
     1
 90
        3
176
     1
 90
        0
176
     1
 40
0.6
176
     1
 40
30.0
176
     1
 62
     8
420
  8421504
176
     1
 90
        1
176
     1
 90
        4
176
     1
 62
     7
176
     1
 62
   257
176
     1
 90
        1
176
     1
 90
        1
176
     1
 40
1.0
176
     1
 90
        8
176
     1
 62
     8
420
  8421504
176
     1
 40
1.0
176
     1
 90
        1
176
     1
 90
        6
176
     1
 90
        2
176
     1
 62
     7
176
     1
 90
        5
176
     1
 90
        0
176
     1
 90
        0
176
     1
290
     0
176
     1
 90
        1
176
     1
 40
0.0
176
     1
 90
        0
176
     1
290
     0
176
     1
290
     1
176
     1
290
     1
176
     1
290
     0
176
     1
290
     0
176
     1
290
     0
176
     1
290
     0
176
     1
290
     0
176
     1
290
     0
176
     1
 90
       50
176
     1
 40
0.0
176
     1
 40
1.0
176
     1
 90
        0
176
     1
 62
   178
420
        0
176
     1
 90
       50
176
     1
 90
        3
176
     1
 62
     5
420
      255
176
     1
290
     0
176
     1
 90
       50
176
     1
 90
       50
176
     1
 90
       50
176
     1
290
     0
176
     1
 90
       50
176
     1
 62
   256
176
     0
 40
1.0
176
     0
 90
        2
176
     1
  1
strokes_ogs.tif
176
     1
290
     0
176
     1
 40
1.0
176
     1
 40
1.0
176
     1
  0
VISUALSTYLE
  5
34
102
{ACAD_REACTORS
330
2A
102
}
330
2A
100
AcDbVisualStyle
  2
Conceptual
 70
     9
177
     3
291
     0
 70
    58
 90
        3
176
     1
 90
        2
176
     1
 90
        0
176
     1
 90
        0
176
     1
 40
0.6
176
     1
 40
30.0
176
     1
 62
     7
420
 16777215
176
     1
 90
        2
176
     1
 90
        2
176
     1
 62
     7
176
     1
 62
   257
176
     1
 90
        1
176
     1
 90
        1
176
     1
 40
179.0
176
     1
 90
        8
176
     1
 62
     7
176
     1
 40
1.0
176
     1
 90
        1
176
     1
 90
        6
176
     1
 90
        2
176
     1
 62
     7
176
     1
 90
        3
176
     1
 90
        0
176
     1
 90
        0
176
     1
290
     0
176
     1
 90
        1
176
     1
 40
0.0
176
     1
 90
        0
176
     1
290
     0
176
     1
290
     1
176
     1
290
     1
176
     1
290
     0
176
     1
290
     0
176
     1
290
     0
176
     1
290
     0
176
     1
290
     0
176
     1
290
     0
176
     1
 90
       50
176
     1
 40
0.0
176
     1
 40
1.0
176
     1
 90
        0
176
     1
 62
   178
420
        0
176
     1
 90
       50
176
     1
 90
        3
176
     1
 62
     5
420
      255
176
     1
290
     0
176
     1
 90
       50
176
     1
 90
       50
176
     1
 90
       50
176
     1
290
     0
176
     1
 90
       50
176
     1
 62
   256
176
     0
 40
1.0
176
     0
 90
        2
176
     1
  1
strokes_ogs.tif
176
     1
290
     0
176
     1
 40
1.0
176
     1
 40
1.0
176
     1
  0
VISUALSTYLE
  5
35
102
{ACAD_REACTORS
330
2A
102
}
330
2A
100
AcDbVisualStyle
  2
Dim
 70
    11
177
     3
291
     1
 70
    58
 90
        2
176
     1
 90
        2
176
     1
 90
        0
176
     1
 90
        0
176
     1
 40
0.6
176
     1
 40
30.0
176
     1
 62
     7
420
 16777215
176
     1
 90
        1
176
     1
 90
        4
176
     1
 62
     7
176
     1
 62
   257
176
     1
 90
        1
176
     1
 90
        1
176
     1
 40
1.0
176
     1
 90
        8
176
     1
 62
     7
176
     1
 40
1.0
176
     1
 90
        1
176
     1
 90
        6
176
     1
 90
        2
176
     1
 62
     7
176
     1
 90
        5
176
     1
 90
        0
176
     1
 90
        0
176
     1
290
     0
176
     1
 90
        1
176
     1
 40
-50.0
176
     1
 90
        0
176
     1
290
     0
176
     1
290
     1
176
     1
290
     1
176
     1
290
     0
176
     1
290
     0
176
     1
290
     0
176
     1
290
     0
176
     1
290
     0
176
     1
290
     0
176
     1
 90
       50
176
     1
 40
0.0
176
     1
 40
1.0
176
     1
 90
        0
176
     1
 62
   178
420
        0
176
     1
 90
       50
176
     1
 90
        3
176
     1
 62
     5
420
      255
176
     1
290
     0
176
     1
 90
       50
176
     1
 90
       50
176
     1
 90
       50
176
     1
290
     0
176
     1
 90
       50
176
     1
 62
   256
176
     0
 40
1.0
176
     0
 90
        2
176
     1
  1
strokes_ogs.tif
176
     1
290
     0
176
     1
 40
1.0
176
     1
 40
1.0
176
     1
  0
VISUALSTYLE
  5
3D
102
{ACAD_REACTORS
330
2A
102
}
330
2A
100
AcDbVisualStyle
  2
EdgeColorOff
 70
    22
177
     3
291
     1
 70
    58
 90
        2
176
     0
 90
        2
176
     0
 90
        0
176
     0
 90
        0
176
     0
 40
0.6
176
     0
 40
30.0
176
     0
 62
     7
420
 16777215
176
     0
 90
        1
176
     0
 90
        4
176
     0
 62
     7
176
     0
 62
   257
176
     0
 90
        1
176
     0
 90
        1
176
     0
 40
1.0
176
     0
 90
        8
176
     2
 62
     7
176
     0
 40
1.0
176
     0
 90
        1
176
     0
 90
        6
176
     0
 90
        2
176
     0
 62
     7
176
     0
 90
        5
176
     0
 90
        0
176
     0
 90
        0
176
     0
290
     0
176
     0
 90
        1
176
     0
 40
0.0
176
     0
 90
        0
176
     0
290
     0
176
     0
290
     1
176
     0
290
     1
176
     0
290
     0
176
     0
290
     0
176
     0
290
     0
176
     0
290
     0
176
     0
290
     0
176
     0
290
     0
176
     0
 90
       50
176
     0
 40
0.0
176
     0
 40
1.0
176
     0
 90
        0
176
     0
 62
   178
420
        0
176
     0
 90
       50
176
     0
 90
        3
176
     0
 62
     5
420
      255
176
     0
290
     0
176
     0
 90
       50
176
     0
 90
       50
176
     0
 90
       50
176
     0
290
     0
176
     0
 90
       50
176
     0
 62
   256
176
     0
 40
1.0
176
     0
 90
        2
176
     0
  1
strokes_ogs.tif
176
     0
290
     0
176
     0
 40
1.0
176
     0
 40
1.0
176
     0
  0
VISUALSTYLE
  5
39
102
{ACAD_REACTORS
330
2A
102
}
330
2A
100
AcDbVisualStyle
  2
Facepattern
 70
    15
177
     3
291
     1
 70
    58
 90
        2
176
     1
 90
        2
176
     1
 90
        0
176
     1
 90
        0
176
     1
 40
0.6
176
     1
 40
30.0
176
     1
 62
     7
420
 16777215
176
     1
 90
        1
176
     1
 90
        4
176
     1
 62
     7
176
     1
 62
   257
176
     1
 90
        1
176
     1
 90
        1
176
     1
 40
1.0
176
     1
 90
        8
176
     1
 62
     7
176
     1
 40
1.0
176
     1
 90
        1
176
     1
 90
        6
176
     1
 90
        2
176
     1
 62
     7
176
     1
 90
        5
176
     1
 90
        0
176
     1
 90
        0
176
     1
290
     0
176
     1
 90
        1
176
     1
 40
0.0
176
     1
 90
        0
176
     1
290
     0
176
     1
290
     1
176
     1
290
     1
176
     1
290
     0
176
     1
290
     0
176
     1
290
     0
176
     1
290
     0
176
     1
290
     0
176
     1
290
     0
176
     1
 90
       50
176
     1
 40
0.0
176
     1
 40
1.0
176
     1
 90
        0
176
     1
 62
   178
420
        0
176
     1
 90
       50
176
     1
 90
        3
176
     1
 62
     5
420
      255
176
     1
290
     0
176
     1
 90
       50
176
     1
 90
       50
176
     1
 90
       50
176
     1
290
     0
176
     1
 90
       50
176
     1
 62
   256
176
     0
 40
1.0
176
     0
 90
        2
176
     1
  1
strokes_ogs.tif
176
     1
290
     0
176
     1
 40
1.0
176
     1
 40
1.0
176
     1
  0
VISUALSTYLE
  5
2B
102
{ACAD_REACTORS
330
2A
102
}
330
2A
100
AcDbVisualStyle
  2
Flat
 70
     0
177
     3
291
     1
 70
    58
 90
        2
176
     1
 90
        1
176
     1
 90
        1
176
     1
 90
        2
176
     1
 40
0.6
176
     1
 40
30.0
176
     1
 62
     7
420
 16777215
176
     1
 90
        0
176
     1
 90
        0
176
     1
 62
     7
176
     1
 62
   257
176
     1
 90
        1
176
     1
 90
        1
176
     1
 40
1.0
176
     1
 90
        8
176
     1
 62
     7
176
     1
 40
1.0
176
     1
 90
        1
176
     1
 90
        6
176
     1
 90
        2
176
     1
 62
     7
176
     1
 90
        5
176
     1
 90
        0
176
     1
 90
        0
176
     1
290
     0
176
     1
 90
       13
176
     1
 40
0.0
176
     1
 90
        0
176
     1
290
     0
176
     1
290
     1
176
     1
290
     1
176
     1
290
     0
176
     1
290
     0
176
     1
290
     0
176
     1
290
     0
176
     1
290
     0
176
     1
290
     0
176
     1
 90
       50
176
     1
 40
0.0
176
     1
 40
1.0
176
     1
 90
        0
176
     1
 62
   178
420
        0
176
     1
 90
       50
176
     1
 90
        3
176
     1
 62
     5
420
      255
176
     1
290
     0
176
     1
 90
       50
176
     1
 90
       50
176
     1
 90
       50
176
     1
290
     0
176
     1
 90
       50
176
     1
 62
   256
176
     0
 40
1.0
176
     0
 90
        2
176
     1
  1
strokes_ogs.tif
176
     1
290
     0
176
     1
 40
1.0
176
     1
 40
1.0
176
     1
  0
VISUALSTYLE
  5
2C
102
{ACAD_REACTORS
330
2A
102
}
330
2A
100
AcDbVisualStyle
  2
FlatWithEdges
 70
     1
177
     3
291
     1
 70
    58
 90
        2
176
     1
 90
        1
176
     1
 90
        1
176
     1
 90
        2
176
     1
 40
0.6
176
     1
 40
30.0
176
     1
 62
     7
420
 16777215
176
     1
 90
        1
176
     1
 90
        0
176
     1
 62
     7
176
     1
 62
   257
176
     1
 90
        1
176
     1
 90
        1
176
     1
 40
1.0
176
     1
 90
        0
176
     1
 62
   257
176
     1
 40
1.0
176
     1
 90
        1
176
     1
 90
        6
176
     1
 90
        2
176
     1
 62
     7
176
     1
 90
        5
176
     1
 90
        0
176
     1
 90
        0
176
     1
290
     0
176
     1
 90
       13
176
     1
 40
0.0
176
     1
 90
        0
176
     1
290
     0
176
     1
290
     1
176
     1
290
     1
176
     1
290
     0
176
     1
290
     0
176
     1
290
     0
176
     1
290
     0
176
     1
290
     0
176
     1
290
     0
176
     1
 90
       50
176
     1
 40
0.0
176
     1
 40
1.0
176
     1
 90
        0
176
     1
 62
   178
420
        0
176
     1
 90
       50
176
     1
 90
        3
176
     1
 62
     5
420
      255
176
     1
290
     0
176
     1
 90
       50
176
     1
 90
       50
176
     1
 90
       50
176
     1
290
     0
176
     1
 90
       50
176
     1
 62
   256
176
     0
 40
1.0
176
     0
 90
        2
176
     1
  1
strokes_ogs.tif
176
     1
290
     0
176
     1
 40
1.0
176
     1
 40
1.0
176
     1
  0
VISUALSTYLE
  5
2D
102
{ACAD_REACTORS
330
2A
102
}
330
2A
100
AcDbVisualStyle
  2
Gouraud
 70
     2
177
     3
291
     1
 70
    58
 90
        2
176
     1
 90
        2
176
     1
 90
        1
176
     1
 90
        2
176
     1
 40
0.6
176
     1
 40
30.0
176
     1
 62
     7
420
 16777215
176
     1
 90
        0
176
     1
 90
        0
176
     1
 62
     7
176
     1
 62
   257
176
     1
 90
        1
176
     1
 90
        1
176
     1
 40
1.0
176
     1
 90
        0
176
     1
 62
     7
176
     1
 40
1.0
176
     1
 90
        1
176
     1
 90
        6
176
     1
 90
        2
176
     1
 62
     7
176
     1
 90
        5
176
     1
 90
        0
176
     1
 90
        0
176
     1
290
     0
176
     1
 90
       13
176
     1
 40
0.0
176
     1
 90
        0
176
     1
290
     0
176
     1
290
     1
176
     1
290
     1
176
     1
290
     0
176
     1
290
     0
176
     1
290
     0
176
     1
290
     0
176
     1
290
     0
176
     1
290
     0
176
     1
 90
       50
176
     1
 40
0.0
176
     1
 40
1.0
176
     1
 90
        0
176
     1
 62
   178
420
        0
176
     1
 90
       50
176
     1
 90
        3
176
     1
 62
     5
420
      255
176
     1
290
     0
176
     1
 90
       50
176
     1
 90
       50
176
     1
 90
       50
176
     1
290
     0
176
     1
 90
       50
176
     1
 62
   256
176
     0
 40
1.0
176
     0
 90
        2
176
     1
  1
strokes_ogs.tif
176
     1
290
     0
176
     1
 40
1.0
176
     1
 40
1.0
176
     1
  0
VISUALSTYLE
  5
2E
102
{ACAD_REACTORS
330
2A
102
}
330
2A
100
AcDbVisualStyle
  2
GouraudWithEdges
 70
     3
177
     3
291
     1
 70
    58
 90
        2
176
     1
 90
        2
176
     1
 90
        1
176
     1
 90
        2
176
     1
 40
0.6
176
     1
 40
30.0
176
     1
 62
     7
420
 16777215
176
     1
 90
        1
176
     1
 90
        0
176
     1
 62
     7
176
     1
 62
   257
176
     1
 90
        1
176
     1
 90
        1
176
     1
 40
1.0
176
     1
 90
        0
176
     1
 62
   257
176
     1
 40
1.0
176
     1
 90
        1
176
     1
 90
        6
176
     1
 90
        2
176
     1
 62
     7
176
     1
 90
        5
176
     1
 90
        0
176
     1
 90
        0
176
     1
290
     0
176
     1
 90
       13
176
     1
 40
0.0
176
     1
 90
        0
176
     1
290
     0
176
     1
290
     1
176
     1
290
     1
176
     1
290
     0
176
     1
290
     0
176
     1
290
     0
176
     1
290
     0
176
     1
290
     0
176
     1
290
     0
176
     1
 90
       50
176
     1
 40
0.0
176
     1
 40
1.0
176
     1
 90
        0
176
     1
 62
   178
420
        0
176
     1
 90
       50
176
     1
 90
        3
176
     1
 62
     5
420
      255
176
     1
290
     0
176
     1
 90
       50
176
     1
 90
       50
176
     1
 90
       50
176
     1
290
     0
176
     1
 90
       50
176
     1
 62
   256
176
     0
 40
1.0
176
     0
 90
        2
176
     1
  1
strokes_ogs.tif
176
     1
290
     0
176
     1
 40
1.0
176
     1
 40
1.0
176
     1
  0
VISUALSTYLE
  5
31
102
{ACAD_REACTORS
330
2A
102
}
330
2A
100
AcDbVisualStyle
  2
Hidden
 70
     6
177
     3
291
     0
 70
    58
 90
        1
176
     1
 90
        2
176
     1
 90
        2
176
     1
 90
        0
176
     1
 40
0.6
176
     1
 40
30.0
176
     1
 62
     7
420
 16777215
176
     1
 90
        2
176
     1
 90
        2
176
     1
 62
     7
176
     1
 62
   257
176
     1
 90
        2
176
     1
 90
        1
176
     1
 40
40.0
176
     1
 90
        0
176
     1
 62
   257
176
     1
 40
1.0
176
     1
 90
        1
176
     1
 90
        6
176
     1
 90
        2
176
     1
 62
     7
176
     1
 90
        3
176
     1
 90
        0
176
     1
 90
        0
176
     1
290
     0
176
     1
 90
        1
176
     1
 40
0.0
176
     1
 90
        0
176
     1
290
     0
176
     1
290
     1
176
     1
290
     1
176
     1
290
     0
176
     1
290
     0
176
     1
290
     0
176
     1
290
     0
176
     1
290
     0
176
     1
290
     0
176
     1
 90
       50
176
     1
 40
0.0
176
     1
 40
1.0
176
     1
 90
        0
176
     1
 62
   178
420
        0
176
     1
 90
       50
176
     1
 90
        3
176
     1
 62
     5
420
      255
176
     1
290
     0
176
     1
 90
       50
176
     1
 90
       50
176
     1
 90
       50
176
     1
290
     0
176
     1
 90
       50
176
     1
 62
   256
176
     0
 40
1.0
176
     0
 90
        2
176
     1
  1
strokes_ogs.tif
176
     1
290
     0
176
     1
 40
1.0
176
     1
 40
1.0
176
     1
  0
VISUALSTYLE
  5
3B
102
{ACAD_REACTORS
330
2A
102
}
330
2A
100
AcDbVisualStyle
  2
JitterOff
 70
    20
177
     3
291
     1
 70
    58
 90
        2
176
     0
 90
        2
176
     0
 90
        0
176
     0
 90
        0
176
     0
 40
0.6
176
     0
 40
30.0
176
     0
 62
     7
420
 16777215
176
     0
 90
        1
176
     0
 90
        4
176
     0
 62
     7
176
     0
 62
   257
176
     0
 90
        1
176
     0
 90
        1
176
     0
 40
1.0
176
     0
 90
       10
176
     2
 62
     7
176
     0
 40
1.0
176
     0
 90
        1
176
     0
 90
        6
176
     0
 90
        2
176
     0
 62
     7
176
     0
 90
        5
176
     0
 90
        0
176
     0
 90
        0
176
     0
290
     0
176
     0
 90
        1
176
     0
 40
0.0
176
     0
 90
        0
176
     0
290
     0
176
     0
290
     1
176
     0
290
     1
176
     0
290
     0
176
     0
290
     0
176
     0
290
     0
176
     0
290
     0
176
     0
290
     0
176
     0
290
     0
176
     0
 90
       50
176
     0
 40
0.0
176
     0
 40
1.0
176
     0
 90
        0
176
     0
 62
   178
420
        0
176
     0
 90
       50
176
     0
 90
        3
176
     0
 62
     5
420
      255
176
     0
290
     0
176
     0
 90
       50
176
     0
 90
       50
176
     0
 90
       50
176
     0
290
     0
176
     0
 90
       50
176
     0
 62
   256
176
     0
 40
1.0
176
     0
 90
        2
176
     0
  1
strokes_ogs.tif
176
     0
290
     0
176
     0
 40
1.0
176
     0
 40
1.0
176
     0
  0
VISUALSTYLE
  5
38
102
{ACAD_REACTORS
330
2A
102
}
330
2A
100
AcDbVisualStyle
  2
Linepattern
 70
    14
177
     3
291
     1
 70
    58
 90
        2
176
     1
 90
        2
176
     1
 90
        0
176
     1
 90
        0
176
     1
 40
0.6
176
     1
 40
30.0
176
     1
 62
     7
420
 16777215
176
     1
 90
        1
176
     1
 90
        4
176
     1
 62
     7
176
     1
 62
   257
176
     1
 90
        7
176
     1
 90
        7
176
     1
 40
1.0
176
     1
 90
        8
176
     1
 62
     7
176
     1
 40
1.0
176
     1
 90
        1
176
     1
 90
        6
176
     1
 90
        2
176
     1
 62
     7
176
     1
 90
        5
176
     1
 90
        0
176
     1
 90
        0
176
     1
290
     0
176
     1
 90
        1
176
     1
 40
0.0
176
     1
 90
        0
176
     1
290
     0
176
     1
290
     1
176
     1
290
     1
176
     1
290
     0
176
     1
290
     0
176
     1
290
     0
176
     1
290
     0
176
     1
290
     0
176
     1
290
     0
176
     1
 90
       50
176
     1
 40
0.0
176
     1
 40
1.0
176
     1
 90
        0
176
     1
 62
   178
420
        0
176
     1
 90
       50
176
     1
 90
        3
176
     1
 62
     5
420
      255
176
     1
290
     0
176
     1
 90
       50
176
     1
 90
       50
176
     1
 90
       50
176
     1
290
     0
176
     1
 90
       50
176
     1
 62
   256
176
     0
 40
1.0
176
     0
 90
        2
176
     1
  1
strokes_ogs.tif
176
     1
290
     0
176
     1
 40
1.0
176
     1
 40
1.0
176
     1
  0
VISUALSTYLE
  5
3C
102
{ACAD_REACTORS
330
2A
102
}
330
2A
100
AcDbVisualStyle
  2
OverhangOff
 70
    21
177
     3
291
     1
 70
    58
 90
        2
176
     0
 90
        2
176
     0
 90
        0
176
     0
 90
        0
176
     0
 40
0.6
176
     0
 40
30.0
176
     0
 62
     7
420
 16777215
176
     0
 90
        1
176
     0
 90
        4
176
     0
 62
     7
176
     0
 62
   257
176
     0
 90
        1
176
     0
 90
        1
176
     0
 40
1.0
176
     0
 90
        9
176
     2
 62
     7
176
     0
 40
1.0
176
     0
 90
        1
176
     0
 90
        6
176
     0
 90
        2
176
     0
 62
     7
176
     0
 90
        5
176
     0
 90
        0
176
     0
 90
        0
176
     0
290
     0
176
     0
 90
        1
176
     0
 40
0.0
176
     0
 90
        0
176
     0
290
     0
176
     0
290
     1
176
     0
290
     1
176
     0
290
     0
176
     0
290
     0
176
     0
290
     0
176
     0
290
     0
176
     0
290
     0
176
     0
290
     0
176
     0
 90
       50
176
     0
 40
0.0
176
     0
 40
1.0
176
     0
 90
        0
176
     0
 62
   178
420
        0
176
     0
 90
       50
176
     0
 90
        3
176
     0
 62
     5
420
      255
176
     0
290
     0
176
     0
 90
       50
176
     0
 90
       50
176
     0
 90
       50
176
     0
290
     0
176
     0
 90
       50
176
     0
 62
   256
176
     0
 40
1.0
176
     0
 90
        2
176
     0
  1
strokes_ogs.tif
176
     0
290
     0
176
     0
 40
1.0
176
     0
 40
1.0
176
     0
  0
VISUALSTYLE
  5
33
102
{ACAD_REACTORS
330
2A
102
}
330
2A
100
AcDbVisualStyle
  2
Realistic
 70
     8
177
     3
291
     0
 70
    58
 90
        2
176
     1
 90
        3
176
     1
 90
        0
176
     1
 90
        2
176
     1
 40
0.6
176
     1
 40
30.0
176
     1
 62
     7
420
 16777215
176
     1
 90
        0
176
     1
 90
        0
176
     1
 62
     7
176
     1
 62
   257
176
     1
 90
        1
176
     1
 90
        1
176
     1
 40
1.0
176
     1
 90
        8
176
     1
 62
   257
176
     1
 40
1.0
176
     1
 90
        1
176
     1
 90
        6
176
     1
 90
        2
176
     1
 62
     7
176
     1
 90
        3
176
     1
 90
        0
176
     1
 90
        0
176
     1
290
     0
176
     1
 90
       13
176
     1
 40
0.0
176
     1
 90
        0
176
     1
290
     0
176
     1
290
     1
176
     1
290
     1
176
     1
290
     0
176
     1
290
     0
176
     1
290
     0
176
     1
290
     0
176
     1
290
     0
176
     1
290
     0
176
     1
 90
       50
176
     1
 40
0.0
176
     1
 40
1.0
176
     1
 90
        0
176
     1
 62
   178
420
        0
176
     1
 90
       50
176
     1
 90
        3
176
     1
 62
     5
420
      255
176
     1
290
     0
176
     1
 90
       50
176
     1
 90
       50
176
     1
 90
       50
176
     1
290
     0
176
     1
 90
       50
176
     1
 62
   256
176
     0
 40
1.0
176
     0
 90
        2
176
     1
  1
strokes_ogs.tif
176
     1
290
     0
176
     1
 40
1.0
176
     1
 40
1.0
176
     1
  0
VISUALSTYLE
  5
42
102
{ACAD_REACTORS
330
2A
102
}
330
2A
100
AcDbVisualStyle
  2
Shaded
 70
    27
177
     3
291
     0
 70
    58
 90
        2
176
     1
 90
        2
176
     1
 90
        1
176
     1
 90
        2
176
     1
 40
0.6
176
     1
 40
30.0
176
     1
 62
     7
420
 16777215
176
     1
 90
        0
176
     1
 90
        4
176
     1
 62
     7
176
     1
 62
   257
176
     1
 90
        1
176
     1
 90
        1
176
     1
 40
1.0
176
     1
 90
        8
176
     1
 62
   257
176
     1
 40
1.0
176
     1
 90
        1
176
     1
 90
        6
176
     1
 90
        2
176
     1
 62
     8
420
  7895160
176
     1
 90
        3
176
     1
 90
        0
176
     1
 90
        0
176
     1
290
     0
176
     1
 90
        5
176
     1
 40
0.0
176
     1
 90
        0
176
     1
290
     0
176
     1
290
     1
176
     1
290
     1
176
     1
290
     0
176
     1
290
     0
176
     1
290
     0
176
     1
290
     0
176
     1
290
     0
176
     1
290
     0
176
     1
 90
       50
176
     1
 40
0.0
176
     1
 40
1.0
176
     1
 90
        0
176
     1
 62
   178
420
        0
176
     1
 90
       50
176
     1
 90
        3
176
     1
 62
     5
420
      255
176
     1
290
     0
176
     1
 90
       50
176
     1
 90
       50
176
     1
 90
       50
176
     1
290
     0
176
     1
 90
       50
176
     1
 62
   256
176
     0
 40
1.0
176
     0
 90
        2
176
     1
  1
strokes_ogs.tif
176
     1
290
     0
176
     1
 40
1.0
176
     1
 40
1.0
176
     1
  0
VISUALSTYLE
  5
41
102
{ACAD_REACTORS
330
2A
102
}
330
2A
100
AcDbVisualStyle
  2
Shaded with edges
 70
    26
177
     3
291
     0
 70
    58
 90
        2
176
     1
 90
        2
176
     1
 90
        1
176
     1
 90
        2
176
     1
 40
0.6
176
     1
 40
30.0
176
     1
 62
     7
420
 16777215
176
     1
 90
        1
176
     1
 90
       10
176
     1
 62
     7
176
     1
 62
   257
176
     1
 90
        2
176
     1
 90
        1
176
     1
 40
1.0
176
     1
 90
        8
176
     1
 62
   257
176
     1
 40
1.0
176
     1
 90
        1
176
     1
 90
        6
176
     1
 90
        2
176
     1
 62
     7
176
     1
 90
        3
176
     1
 90
        0
176
     1
 90
        0
176
     1
290
     0
176
     1
 90
        5
176
     1
 40
0.0
176
     1
 90
        0
176
     1
290
     0
176
     1
290
     1
176
     1
290
     1
176
     1
290
     0
176
     1
290
     0
176
     1
290
     0
176
     1
290
     0
176
     1
290
     0
176
     1
290
     0
176
     1
 90
       50
176
     1
 40
0.0
176
     1
 40
1.0
176
     1
 90
        0
176
     1
 62
   178
420
        0
176
     1
 90
       50
176
     1
 90
        3
176
     1
 62
     5
420
      255
176
     1
290
     0
176
     1
 90
       50
176
     1
 90
       50
176
     1
 90
       50
176
     1
290
     0
176
     1
 90
       50
176
     1
 62
   256
176
     0
 40
1.0
176
     0
 90
        2
176
     1
  1
strokes_ogs.tif
176
     1
290
     0
176
     1
 40
1.0
176
     1
 40
1.0
176
     1
  0
VISUALSTYLE
  5
3E
102
{ACAD_REACTORS
330
2A
102
}
330
2A
100
AcDbVisualStyle
  2
Shades of Gray
 70
    23
177
     3
291
     0
 70
    58
 90
        2
176
     1
 90
        2
176
     1
 90
        3
176
     1
 90
        0
176
     1
 40
0.6
176
     1
 40
30.0
176
     1
 62
     7
420
 16777215
176
     1
 90
        2
176
     1
 90
        2
176
     1
 62
     7
176
     1
 62
     7
176
     1
 90
        1
176
     1
 90
        1
176
     1
 40
40.0
176
     1
 90
        8
176
     1
 62
     7
176
     1
 40
1.0
176
     1
 90
        1
176
     1
 90
        6
176
     1
 90
        2
176
     1
 62
     7
176
     1
 90
        3
176
     1
 90
        0
176
     1
 90
        0
176
     1
290
     0
176
     1
 90
        1
176
     1
 40
0.0
176
     1
 90
        0
176
     1
290
     0
176
     1
290
     1
176
     1
290
     1
176
     1
290
     0
176
     1
290
     0
176
     1
290
     0
176
     1
290
     0
176
     1
290
     0
176
     1
290
     0
176
     1
 90
       50
176
     1
 40
0.0
176
     1
 40
1.0
176
     1
 90
        0
176
     1
 62
   178
420
        0
176
     1
 90
       50
176
     1
 90
        3
176
     1
 62
     5
420
      255
176
     1
290
     0
176
     1
 90
       50
176
     1
 90
       50
176
     1
 90
       50
176
     1
290
     0
176
     1
 90
       50
176
     1
 62
   256
176
     0
 40
1.0
176
     0
 90
        2
176
     1
  1
strokes_ogs.tif
176
     1
290
     0
176
     1
 40
1.0
176
     1
 40
1.0
176
     1
  0
VISUALSTYLE
  5
3F
102
{ACAD_REACTORS
330
2A
102
}
330
2A
100
AcDbVisualStyle
  2
Sketchy
 70
    24
177
     3
291
     0
 70
    58
 90
        1
176
     1
 90
        2
176
     1
 90
        2
176
     1
 90
        0
176
     1
 40
0.6
176
     1
 40
30.0
176
     1
 62
     7
420
 16777215
176
     1
 90
        2
176
     1
 90
        2
176
     1
 62
     7
176
     1
 62
     7
176
     1
 90
        1
176
     1
 90
        1
176
     1
 40
40.0
176
     1
 90
       11
176
     1
 62
     7
176
     1
 40
1.0
176
     1
 90
        1
176
     1
 90
        6
176
     1
 90
        2
176
     1
 62
     7
176
     1
 90
        6
176
     1
 90
        0
176
     1
 90
        0
176
     1
290
     0
176
     1
 90
        1
176
     1
 40
0.0
176
     1
 90
        0
176
     1
290
     0
176
     1
290
     1
176
     1
290
     1
176
     1
290
     0
176
     1
290
     0
176
     1
290
     0
176
     1
290
     0
176
     1
290
     0
176
     1
290
     0
176
     1
 90
       50
176
     1
 40
0.0
176
     1
 40
1.0
176
     1
 90
        0
176
     1
 62
   178
420
        0
176
     1
 90
       50
176
     1
 90
        3
176
     1
 62
     5
420
      255
176
     1
290
     0
176
     1
 90
       50
176
     1
 90
       50
176
     1
 90
       50
176
     1
290
     0
176
     1
 90
       50
176
     1
 62
   256
176
     0
 40
1.0
176
     0
 90
        2
176
     1
  1
strokes_ogs.tif
176
     1
290
     0
176
     1
 40
1.0
176
     1
 40
1.0
176
     1
  0
VISUALSTYLE
  5
37
102
{ACAD_REACTORS
330
2A
102
}
330
2A
100
AcDbVisualStyle
  2
Thicken
 70
    13
177
     3
291
     1
 70
    58
 90
        2
176
     1
 90
        2
176
     1
 90
        0
176
     1
 90
        0
176
     1
 40
0.6
176
     1
 40
30.0
176
     1
 62
     7
420
 16777215
176
     1
 90
        1
176
     1
 90
        4
176
     1
 62
     7
176
     1
 62
   257
176
     1
 90
        1
176
     1
 90
        1
176
     1
 40
1.0
176
     1
 90
       12
176
     1
 62
     7
176
     1
 40
1.0
176
     1
 90
        1
176
     1
 90
        6
176
     1
 90
        2
176
     1
 62
     7
176
     1
 90
        5
176
     1
 90
        0
176
     1
 90
        0
176
     1
290
     0
176
     1
 90
        1
176
     1
 40
0.0
176
     1
 90
        0
176
     1
290
     0
176
     1
290
     1
176
     1
290
     1
176
     1
290
     0
176
     1
290
     0
176
     1
290
     0
176
     1
290
     0
176
     1
290
     0
176
     1
290
     0
176
     1
 90
       50
176
     1
 40
0.0
176
     1
 40
1.0
176
     1
 90
        0
176
     1
 62
   178
420
        0
176
     1
 90
       50
176
     1
 90
        3
176
     1
 62
     5
420
      255
176
     1
290
     0
176
     1
 90
       50
176
     1
 90
       50
176
     1
 90
       50
176
     1
290
     0
176
     1
 90
       50
176
     1
 62
   256
176
     0
 40
1.0
176
     0
 90
        2
176
     1
  1
strokes_ogs.tif
176
     1
290
     0
176
     1
 40
1.0
176
     1
 40
1.0
176
     1
  0
VISUALSTYLE
  5
30
102
{ACAD_REACTORS
330
2A
102
}
330
2A
100
AcDbVisualStyle
  2
Wireframe
 70
     5
177
     3
291
     0
 70
    58
 90
        0
176
     1
 90
        2
176
     1
 90
        0
176
     1
 90
        0
176
     1
 40
0.6
176
     1
 40
30.0
176
     1
 62
     7
420
 16777215
176
     1
 90
        1
176
     1
 90
        4
176
     1
 62
     7
176
     1
 62
   257
176
     1
 90
        1
176
     1
 90
        1
176
     1
 40
1.0
176
     1
 90
        0
176
     1
 62
   257
176
     1
 40
1.0
176
     1
 90
        1
176
     1
 90
        6
176
     1
 90
        2
176
     1
 62
     7
176
     1
 90
        3
176
     1
 90
        0
176
     1
 90
        0
176
     1
290
     0
176
     1
 90
        1
176
     1
 40
0.0
176
     1
 90
        0
176
     1
290
     0
176
     1
290
     1
176
     1
290
     1
176
     1
290
     0
176
     1
290
     0
176
     1
290
     0
176
     1
290
     0
176
     1
290
     0
176
     1
290
     0
176
     1
 90
       50
176
     1
 40
0.0
176
     1
 40
1.0
176
     1
 90
        0
176
     1
 62
   178
420
        0
176
     1
 90
       50
176
     1
 90
        3
176
     1
 62
     5
420
      255
176
     1
290
     0
176
     1
 90
       50
176
     1
 90
       50
176
     1
 90
       50
176
     1
290
     0
176
     1
 90
       50
176
     1
 62
   256
176
     0
 40
1.0
176
     0
 90
        2
176
     1
  1
strokes_ogs.tif
176
     1
290
     0
176
     1
 40
1.0
176
     1
 40
1.0
176
     1
  0
VISUALSTYLE
  5
40
102
{ACAD_REACTORS
330
2A
102
}
330
2A
100
AcDbVisualStyle
  2
X-Ray
 70
    25
177
     3
291
     0
 70
    58
 90
        2
176
     1
 90
        2
176
     1
 90
        1
176
     1
 90
        1
176
     1
 40
0.5
176
     1
 40
30.0
176
     1
 62
     7
420
 16777215
176
     1
 90
        1
176
     1
 90
        0
176
     1
 62
     7
176
     1
 62
   257
176
     1
 90
        1
176
     1
 90
        1
176
     1
 40
1.0
176
     1
 90
        8
176
     1
 62
     7
176
     1
 40
1.0
176
     1
 90
        1
176
     1
 90
        6
176
     1
 90
        2
176
     1
 62
     7
176
     1
 90
        3
176
     1
 90
        0
176
     1
 90
        0
176
     1
290
     0
176
     1
 90
       13
176
     1
 40
0.0
176
     1
 90
        0
176
     1
290
     0
176
     1
290
     1
176
     1
290
     1
176
     1
290
     0
176
     1
290
     0
176
     1
290
     0
176
     1
290
     0
176
     1
290
     0
176
     1
290
     0
176
     1
 90
       50
176
     1
 40
0.0
176
     1
 40
1.0
176
     1
 90
        0
176
     1
 62
   178
420
        0
176
     1
 90
       50
176
     1
 90
        3
176
     1
 62
     5
420
      255
176
     1
290
     0
176
     1
 90
       50
176
     1
 90
       50
176
     1
 90
       50
176
     1
290
     0
176
     1
 90
       50
176
     1
 62
   256
176
     0
 40
1.0
176
     0
 90
        2
176
     1
  1
strokes_ogs.tif
176
     1
290
     0
176
     1
 40
1.0
176
     1
 40
1.0
176
     1
  0
DICTIONARYVAR
  5
14E
102
{ACAD_REACTORS
330
14D
102
}
330
14D
100
DictionaryVariables
280
     0
  1
1:1
  0
DICTIONARYVAR
  5
153
102
{ACAD_REACTORS
330
14D
102
}
330
14D
100
DictionaryVariables
280
     0
  1
Standard
  0
DICTIONARYVAR
  5
152
102
{ACAD_REACTORS
330
14D
102
}
330
14D
100
DictionaryVariables
280
     0
  1
Standard
  0
DICTIONARYVAR
  5
154
102
{ACAD_REACTORS
330
14D
102
}
330
14D
100
DictionaryVariables
280
     0
  1
0
  0
XRECORD
  5
14C
102
{ACAD_REACTORS
330
14B
102
}
330
14B
100
AcDbXrecord
280
     1
1000
Ce fichier DWG a t cr par ARCHICAD(TM)
  0
DICTIONARY
  5
14F
330
6A
100
AcDbDictionary
280
     1
281
     1
  3
ACAD_ROUNDTRIP_2008_TABLESTYLE_CELLSTYLEMAP
360
150
  0
CELLSTYLEMAP
  5
150
102
{ACAD_REACTORS
330
14F
102
}
330
14F
100
AcDbCellStyleMap
 90
        3
300
CELLSTYLE
  1
TABLEFORMAT_BEGIN
 90
        5
170
     1
 91
        0
 92
    32768
 62
   257
 93
        1
300
CONTENTFORMAT
  1
CONTENTFORMAT_BEGIN
 90
        0
 91
        0
 92
        4
 93
        0
300

 40
0.0
140
1.0
 94
        5
 62
     0
340
11
144
0.25
309
CONTENTFORMAT_END
171
     1
301
MARGIN
  1
CELLMARGIN_BEGIN
 40
0.06
 40
0.06
 40
0.06
 40
0.06
 40
0.06
 40
0.06
309
CELLMARGIN_END
 94
        6
 95
        1
302
GRIDFORMAT
  1
GRIDFORMAT_BEGIN
 90
        0
 91
        1
 62
     0
 92
       -2
340
14
 93
        0
 40
0.045
309
GRIDFORMAT_END
 95
        2
302
GRIDFORMAT
  1
GRIDFORMAT_BEGIN
 90
        0
 91
        1
 62
     0
 92
       -2
340
14
 93
        0
 40
0.045
309
GRIDFORMAT_END
 95
        4
302
GRIDFORMAT
  1
GRIDFORMAT_BEGIN
 90
        0
 91
        1
 62
     0
 92
       -2
340
14
 93
        0
 40
0.045
309
GRIDFORMAT_END
 95
        8
302
GRIDFORMAT
  1
GRIDFORMAT_BEGIN
 90
        0
 91
        1
 62
     0
 92
       -2
340
14
 93
        0
 40
0.045
309
GRIDFORMAT_END
 95
       16
302
GRIDFORMAT
  1
GRIDFORMAT_BEGIN
 90
        0
 91
        1
 62
     0
 92
       -2
340
14
 93
        0
 40
0.045
309
GRIDFORMAT_END
 95
       32
302
GRIDFORMAT
  1
GRIDFORMAT_BEGIN
 90
        0
 91
        1
 62
     0
 92
       -2
340
14
 93
        0
 40
0.045
309
GRIDFORMAT_END
309
TABLEFORMAT_END
  1
CELLSTYLE_BEGIN
 90
        1
 91
        1
300
_TITLE
309
CELLSTYLE_END
300
CELLSTYLE
  1
TABLEFORMAT_BEGIN
 90
        5
170
     1
 91
        0
 92
        0
 62
   257
 93
        1
300
CONTENTFORMAT
  1
CONTENTFORMAT_BEGIN
 90
        0
 91
        0
 92
        4
 93
        0
300

 40
0.0
140
1.0
 94
        5
 62
     0
340
11
144
0.18
309
CONTENTFORMAT_END
171
     1
301
MARGIN
  1
CELLMARGIN_BEGIN
 40
0.06
 40
0.06
 40
0.06
 40
0.06
 40
0.06
 40
0.06
309
CELLMARGIN_END
 94
        6
 95
        1
302
GRIDFORMAT
  1
GRIDFORMAT_BEGIN
 90
        0
 91
        1
 62
     0
 92
       -2
340
14
 93
        0
 40
0.045
309
GRIDFORMAT_END
 95
        2
302
GRIDFORMAT
  1
GRIDFORMAT_BEGIN
 90
        0
 91
        1
 62
     0
 92
       -2
340
14
 93
        0
 40
0.045
309
GRIDFORMAT_END
 95
        4
302
GRIDFORMAT
  1
GRIDFORMAT_BEGIN
 90
        0
 91
        1
 62
     0
 92
       -2
340
14
 93
        0
 40
0.045
309
GRIDFORMAT_END
 95
        8
302
GRIDFORMAT
  1
GRIDFORMAT_BEGIN
 90
        0
 91
        1
 62
     0
 92
       -2
340
14
 93
        0
 40
0.045
309
GRIDFORMAT_END
 95
       16
302
GRIDFORMAT
  1
GRIDFORMAT_BEGIN
 90
        0
 91
        1
 62
     0
 92
       -2
340
14
 93
        0
 40
0.045
309
GRIDFORMAT_END
 95
       32
302
GRIDFORMAT
  1
GRIDFORMAT_BEGIN
 90
        0
 91
        1
 62
     0
 92
       -2
340
14
 93
        0
 40
0.045
309
GRIDFORMAT_END
309
TABLEFORMAT_END
  1
CELLSTYLE_BEGIN
 90
        2
 91
        1
300
_HEADER
309
CELLSTYLE_END
300
CELLSTYLE
  1
TABLEFORMAT_BEGIN
 90
        5
170
     1
 91
        0
 92
        0
 62
   257
 93
        1
300
CONTENTFORMAT
  1
CONTENTFORMAT_BEGIN
 90
        0
 91
        0
 92
        4
 93
        0
300

 40
0.0
140
1.0
 94
        2
 62
     0
340
11
144
0.18
309
CONTENTFORMAT_END
171
     1
301
MARGIN
  1
CELLMARGIN_BEGIN
 40
0.06
 40
0.06
 40
0.06
 40
0.06
 40
0.06
 40
0.06
309
CELLMARGIN_END
 94
        6
 95
        1
302
GRIDFORMAT
  1
GRIDFORMAT_BEGIN
 90
        0
 91
        1
 62
     0
 92
       -2
340
14
 93
        0
 40
0.045
309
GRIDFORMAT_END
 95
        2
302
GRIDFORMAT
  1
GRIDFORMAT_BEGIN
 90
        0
 91
        1
 62
     0
 92
       -2
340
14
 93
        0
 40
0.045
309
GRIDFORMAT_END
 95
        4
302
GRIDFORMAT
  1
GRIDFORMAT_BEGIN
 90
        0
 91
        1
 62
     0
 92
       -2
340
14
 93
        0
 40
0.045
309
GRIDFORMAT_END
 95
        8
302
GRIDFORMAT
  1
GRIDFORMAT_BEGIN
 90
        0
 91
        1
 62
     0
 92
       -2
340
14
 93
        0
 40
0.045
309
GRIDFORMAT_END
 95
       16
302
GRIDFORMAT
  1
GRIDFORMAT_BEGIN
 90
        0
 91
        1
 62
     0
 92
       -2
340
14
 93
        0
 40
0.045
309
GRIDFORMAT_END
 95
       32
302
GRIDFORMAT
  1
GRIDFORMAT_BEGIN
 90
        0
 91
        1
 62
     0
 92
       -2
340
14
 93
        0
 40
0.045
309
GRIDFORMAT_END
309
TABLEFORMAT_END
  1
CELLSTYLE_BEGIN
 90
        3
 91
        2
300
_DATA
309
CELLSTYLE_END
  0
ENDSEC
  0
EOF
